G04 (created by PCBNEW-RS274X (2012-01-19 BZR 3256)-stable) date 12/5/2012 8:15:46 PM*
G01*
G70*
G90*
%MOIN*%
G04 Gerber Fmt 3.4, Leading zero omitted, Abs format*
%FSLAX34Y34*%
G04 APERTURE LIST*
%ADD10C,0.006000*%
%ADD11C,0.012000*%
%ADD12C,0.004000*%
%ADD13C,0.003900*%
%ADD14C,0.015000*%
%ADD15C,0.005000*%
%ADD16C,0.002600*%
%ADD17C,0.010000*%
G04 APERTURE END LIST*
G54D10*
G54D11*
X71114Y-32286D02*
X71200Y-32324D01*
X71343Y-32324D01*
X71400Y-32286D01*
X71429Y-32248D01*
X71457Y-32171D01*
X71457Y-32095D01*
X71429Y-32019D01*
X71400Y-31981D01*
X71343Y-31943D01*
X71229Y-31905D01*
X71171Y-31867D01*
X71143Y-31829D01*
X71114Y-31752D01*
X71114Y-31676D01*
X71143Y-31600D01*
X71171Y-31562D01*
X71229Y-31524D01*
X71371Y-31524D01*
X71457Y-31562D01*
X71714Y-32324D02*
X71714Y-31524D01*
X72286Y-32324D02*
X72000Y-32324D01*
X72000Y-31524D01*
X72486Y-32324D02*
X72486Y-31524D01*
X72829Y-32324D02*
X72572Y-31867D01*
X72829Y-31524D02*
X72486Y-31981D01*
X73457Y-31524D02*
X73800Y-31524D01*
X73629Y-32324D02*
X73629Y-31524D01*
X74114Y-31524D02*
X74228Y-31524D01*
X74286Y-31562D01*
X74343Y-31638D01*
X74371Y-31790D01*
X74371Y-32057D01*
X74343Y-32210D01*
X74286Y-32286D01*
X74228Y-32324D01*
X74114Y-32324D01*
X74057Y-32286D01*
X74000Y-32210D01*
X73971Y-32057D01*
X73971Y-31790D01*
X74000Y-31638D01*
X74057Y-31562D01*
X74114Y-31524D01*
X74629Y-32324D02*
X74629Y-31524D01*
X74857Y-31524D01*
X74915Y-31562D01*
X74943Y-31600D01*
X74972Y-31676D01*
X74972Y-31790D01*
X74943Y-31867D01*
X74915Y-31905D01*
X74857Y-31943D01*
X74629Y-31943D01*
G54D12*
X61563Y-45090D02*
X61546Y-45081D01*
X61520Y-45081D01*
X61495Y-45090D01*
X61477Y-45110D01*
X61469Y-45129D01*
X61460Y-45167D01*
X61460Y-45195D01*
X61469Y-45233D01*
X61477Y-45252D01*
X61495Y-45271D01*
X61520Y-45281D01*
X61537Y-45281D01*
X61563Y-45271D01*
X61572Y-45262D01*
X61572Y-45195D01*
X61537Y-45195D01*
X61649Y-45281D02*
X61649Y-45081D01*
X61752Y-45281D01*
X61752Y-45081D01*
X61838Y-45281D02*
X61838Y-45081D01*
X61881Y-45081D01*
X61906Y-45090D01*
X61924Y-45110D01*
X61932Y-45129D01*
X61941Y-45167D01*
X61941Y-45195D01*
X61932Y-45233D01*
X61924Y-45252D01*
X61906Y-45271D01*
X61881Y-45281D01*
X61838Y-45281D01*
X61507Y-44371D02*
X61533Y-44381D01*
X61576Y-44381D01*
X61593Y-44371D01*
X61602Y-44362D01*
X61610Y-44343D01*
X61610Y-44324D01*
X61602Y-44305D01*
X61593Y-44295D01*
X61576Y-44286D01*
X61542Y-44276D01*
X61524Y-44267D01*
X61516Y-44257D01*
X61507Y-44238D01*
X61507Y-44219D01*
X61516Y-44200D01*
X61524Y-44190D01*
X61542Y-44181D01*
X61584Y-44181D01*
X61610Y-44190D01*
X61747Y-44276D02*
X61773Y-44286D01*
X61781Y-44295D01*
X61790Y-44314D01*
X61790Y-44343D01*
X61781Y-44362D01*
X61773Y-44371D01*
X61755Y-44381D01*
X61687Y-44381D01*
X61687Y-44181D01*
X61747Y-44181D01*
X61764Y-44190D01*
X61773Y-44200D01*
X61781Y-44219D01*
X61781Y-44238D01*
X61773Y-44257D01*
X61764Y-44267D01*
X61747Y-44276D01*
X61687Y-44276D01*
X61850Y-44181D02*
X61893Y-44381D01*
X61927Y-44238D01*
X61961Y-44381D01*
X62004Y-44181D01*
X62047Y-44181D02*
X62150Y-44181D01*
X62099Y-44381D02*
X62099Y-44181D01*
X62313Y-44362D02*
X62304Y-44371D01*
X62278Y-44381D01*
X62261Y-44381D01*
X62236Y-44371D01*
X62218Y-44352D01*
X62210Y-44333D01*
X62201Y-44295D01*
X62201Y-44267D01*
X62210Y-44229D01*
X62218Y-44210D01*
X62236Y-44190D01*
X62261Y-44181D01*
X62278Y-44181D01*
X62304Y-44190D01*
X62313Y-44200D01*
X62390Y-44381D02*
X62390Y-44181D01*
X62493Y-44381D02*
X62416Y-44267D01*
X62493Y-44181D02*
X62390Y-44295D01*
X61460Y-43271D02*
X61486Y-43281D01*
X61529Y-43281D01*
X61546Y-43271D01*
X61555Y-43262D01*
X61563Y-43243D01*
X61563Y-43224D01*
X61555Y-43205D01*
X61546Y-43195D01*
X61529Y-43186D01*
X61495Y-43176D01*
X61477Y-43167D01*
X61469Y-43157D01*
X61460Y-43138D01*
X61460Y-43119D01*
X61469Y-43100D01*
X61477Y-43090D01*
X61495Y-43081D01*
X61537Y-43081D01*
X61563Y-43090D01*
X61700Y-43176D02*
X61726Y-43186D01*
X61734Y-43195D01*
X61743Y-43214D01*
X61743Y-43243D01*
X61734Y-43262D01*
X61726Y-43271D01*
X61708Y-43281D01*
X61640Y-43281D01*
X61640Y-43081D01*
X61700Y-43081D01*
X61717Y-43090D01*
X61726Y-43100D01*
X61734Y-43119D01*
X61734Y-43138D01*
X61726Y-43157D01*
X61717Y-43167D01*
X61700Y-43176D01*
X61640Y-43176D01*
X61803Y-43081D02*
X61846Y-43281D01*
X61880Y-43138D01*
X61914Y-43281D01*
X61957Y-43081D01*
X62000Y-43081D02*
X62103Y-43081D01*
X62052Y-43281D02*
X62052Y-43081D01*
X62163Y-43281D02*
X62163Y-43081D01*
X62206Y-43081D01*
X62231Y-43090D01*
X62249Y-43110D01*
X62257Y-43129D01*
X62266Y-43167D01*
X62266Y-43195D01*
X62257Y-43233D01*
X62249Y-43252D01*
X62231Y-43271D01*
X62206Y-43281D01*
X62163Y-43281D01*
X62343Y-43281D02*
X62343Y-43081D01*
X62463Y-43081D02*
X62497Y-43081D01*
X62515Y-43090D01*
X62532Y-43110D01*
X62540Y-43148D01*
X62540Y-43214D01*
X62532Y-43252D01*
X62515Y-43271D01*
X62497Y-43281D01*
X62463Y-43281D01*
X62446Y-43271D01*
X62429Y-43252D01*
X62420Y-43214D01*
X62420Y-43148D01*
X62429Y-43110D01*
X62446Y-43090D01*
X62463Y-43081D01*
X61460Y-42081D02*
X61520Y-42281D01*
X61580Y-42081D01*
X61743Y-42262D02*
X61734Y-42271D01*
X61708Y-42281D01*
X61691Y-42281D01*
X61666Y-42271D01*
X61648Y-42252D01*
X61640Y-42233D01*
X61631Y-42195D01*
X61631Y-42167D01*
X61640Y-42129D01*
X61648Y-42110D01*
X61666Y-42090D01*
X61691Y-42081D01*
X61708Y-42081D01*
X61734Y-42090D01*
X61743Y-42100D01*
X61923Y-42262D02*
X61914Y-42271D01*
X61888Y-42281D01*
X61871Y-42281D01*
X61846Y-42271D01*
X61828Y-42252D01*
X61820Y-42233D01*
X61811Y-42195D01*
X61811Y-42167D01*
X61820Y-42129D01*
X61828Y-42110D01*
X61846Y-42090D01*
X61871Y-42081D01*
X61888Y-42081D01*
X61914Y-42090D01*
X61923Y-42100D01*
G54D13*
X67946Y-35906D02*
X67945Y-35913D01*
X67942Y-35921D01*
X67939Y-35928D01*
X67934Y-35934D01*
X67928Y-35939D01*
X67921Y-35942D01*
X67914Y-35945D01*
X67906Y-35945D01*
X67899Y-35945D01*
X67892Y-35943D01*
X67885Y-35939D01*
X67879Y-35934D01*
X67873Y-35928D01*
X67870Y-35921D01*
X67867Y-35914D01*
X67867Y-35906D01*
X67867Y-35899D01*
X67869Y-35892D01*
X67873Y-35885D01*
X67878Y-35879D01*
X67884Y-35874D01*
X67890Y-35870D01*
X67898Y-35867D01*
X67906Y-35867D01*
X67912Y-35867D01*
X67920Y-35869D01*
X67927Y-35873D01*
X67933Y-35878D01*
X67938Y-35883D01*
X67942Y-35890D01*
X67945Y-35898D01*
X67945Y-35905D01*
X67946Y-35906D01*
X67827Y-35984D02*
X67984Y-35984D01*
X67984Y-35984D02*
X67984Y-35827D01*
X67984Y-34173D02*
X67984Y-34016D01*
X67984Y-34016D02*
X67827Y-34016D01*
X66173Y-34016D02*
X66016Y-34016D01*
X66016Y-34173D02*
X66016Y-34016D01*
X66016Y-35984D02*
X66016Y-35827D01*
X66016Y-35984D02*
X66173Y-35984D01*
G54D14*
X61420Y-33680D02*
X61700Y-33680D01*
X64110Y-30140D02*
X64110Y-30350D01*
X61090Y-30140D02*
X61090Y-30350D01*
X64120Y-31680D02*
X64120Y-32500D01*
X61080Y-31680D02*
X61080Y-32520D01*
X63500Y-33680D02*
X63760Y-33680D01*
X61090Y-30140D02*
X64110Y-30140D01*
X69200Y-38500D02*
X69186Y-38635D01*
X69147Y-38766D01*
X69083Y-38887D01*
X68996Y-38993D01*
X68891Y-39080D01*
X68771Y-39145D01*
X68640Y-39185D01*
X68504Y-39199D01*
X68369Y-39187D01*
X68238Y-39149D01*
X68117Y-39085D01*
X68011Y-39000D01*
X67923Y-38895D01*
X67857Y-38775D01*
X67816Y-38645D01*
X67801Y-38509D01*
X67812Y-38374D01*
X67850Y-38243D01*
X67912Y-38121D01*
X67997Y-38014D01*
X68101Y-37926D01*
X68220Y-37859D01*
X68350Y-37817D01*
X68486Y-37801D01*
X68621Y-37811D01*
X68753Y-37848D01*
X68875Y-37909D01*
X68982Y-37994D01*
X69072Y-38097D01*
X69139Y-38216D01*
X69182Y-38345D01*
X69199Y-38481D01*
X69200Y-38500D01*
X68900Y-39700D02*
X68100Y-39700D01*
X69700Y-37600D02*
X69700Y-39400D01*
X68100Y-37300D02*
X68900Y-37300D01*
X67300Y-39400D02*
X67300Y-37600D01*
X62200Y-36000D02*
X62186Y-36135D01*
X62147Y-36266D01*
X62083Y-36387D01*
X61996Y-36493D01*
X61891Y-36580D01*
X61771Y-36645D01*
X61640Y-36685D01*
X61504Y-36699D01*
X61369Y-36687D01*
X61238Y-36649D01*
X61117Y-36585D01*
X61011Y-36500D01*
X60923Y-36395D01*
X60857Y-36275D01*
X60816Y-36145D01*
X60801Y-36009D01*
X60812Y-35874D01*
X60850Y-35743D01*
X60912Y-35621D01*
X60997Y-35514D01*
X61101Y-35426D01*
X61220Y-35359D01*
X61350Y-35317D01*
X61486Y-35301D01*
X61621Y-35311D01*
X61753Y-35348D01*
X61875Y-35409D01*
X61982Y-35494D01*
X62072Y-35597D01*
X62139Y-35716D01*
X62182Y-35845D01*
X62199Y-35981D01*
X62200Y-36000D01*
X61100Y-34800D02*
X61900Y-34800D01*
X60300Y-36900D02*
X60300Y-35100D01*
X61900Y-37200D02*
X61100Y-37200D01*
X62700Y-35100D02*
X62700Y-36900D01*
X69200Y-42500D02*
X69186Y-42635D01*
X69147Y-42766D01*
X69083Y-42887D01*
X68996Y-42993D01*
X68891Y-43080D01*
X68771Y-43145D01*
X68640Y-43185D01*
X68504Y-43199D01*
X68369Y-43187D01*
X68238Y-43149D01*
X68117Y-43085D01*
X68011Y-43000D01*
X67923Y-42895D01*
X67857Y-42775D01*
X67816Y-42645D01*
X67801Y-42509D01*
X67812Y-42374D01*
X67850Y-42243D01*
X67912Y-42121D01*
X67997Y-42014D01*
X68101Y-41926D01*
X68220Y-41859D01*
X68350Y-41817D01*
X68486Y-41801D01*
X68621Y-41811D01*
X68753Y-41848D01*
X68875Y-41909D01*
X68982Y-41994D01*
X69072Y-42097D01*
X69139Y-42216D01*
X69182Y-42345D01*
X69199Y-42481D01*
X69200Y-42500D01*
X68900Y-43700D02*
X68100Y-43700D01*
X69700Y-41600D02*
X69700Y-43400D01*
X68100Y-41300D02*
X68900Y-41300D01*
X67300Y-43400D02*
X67300Y-41600D01*
G54D10*
X63250Y-43400D02*
X66750Y-43400D01*
X66750Y-43400D02*
X66750Y-44800D01*
X66750Y-44800D02*
X63250Y-44800D01*
X63250Y-44800D02*
X63250Y-43400D01*
G54D15*
X63591Y-44600D02*
X63588Y-44627D01*
X63580Y-44653D01*
X63567Y-44678D01*
X63550Y-44699D01*
X63528Y-44716D01*
X63504Y-44729D01*
X63478Y-44738D01*
X63450Y-44740D01*
X63424Y-44738D01*
X63398Y-44730D01*
X63373Y-44717D01*
X63352Y-44700D01*
X63334Y-44679D01*
X63321Y-44655D01*
X63313Y-44629D01*
X63310Y-44601D01*
X63312Y-44575D01*
X63319Y-44549D01*
X63332Y-44524D01*
X63349Y-44503D01*
X63370Y-44485D01*
X63394Y-44471D01*
X63420Y-44463D01*
X63448Y-44460D01*
X63474Y-44462D01*
X63500Y-44469D01*
X63525Y-44481D01*
X63547Y-44498D01*
X63565Y-44519D01*
X63578Y-44543D01*
X63587Y-44569D01*
X63590Y-44597D01*
X63591Y-44600D01*
X63250Y-43850D02*
X63550Y-43850D01*
X63550Y-43850D02*
X63550Y-44350D01*
X63550Y-44350D02*
X63250Y-44350D01*
X67850Y-33550D02*
X67850Y-32650D01*
X67850Y-32650D02*
X68350Y-32650D01*
X68350Y-32650D02*
X68350Y-33550D01*
X68350Y-33550D02*
X67850Y-33550D01*
X67150Y-33550D02*
X67150Y-32650D01*
X67150Y-32650D02*
X67650Y-32650D01*
X67650Y-32650D02*
X67650Y-33550D01*
X67650Y-33550D02*
X67150Y-33550D01*
X65000Y-35200D02*
X65000Y-34300D01*
X65000Y-34300D02*
X65500Y-34300D01*
X65500Y-34300D02*
X65500Y-35200D01*
X65500Y-35200D02*
X65000Y-35200D01*
X65550Y-37350D02*
X66450Y-37350D01*
X66450Y-37350D02*
X66450Y-37850D01*
X66450Y-37850D02*
X65550Y-37850D01*
X65550Y-37850D02*
X65550Y-37350D01*
X65550Y-38150D02*
X66450Y-38150D01*
X66450Y-38150D02*
X66450Y-38650D01*
X66450Y-38650D02*
X65550Y-38650D01*
X65550Y-38650D02*
X65550Y-38150D01*
X63550Y-34750D02*
X64450Y-34750D01*
X64450Y-34750D02*
X64450Y-35250D01*
X64450Y-35250D02*
X63550Y-35250D01*
X63550Y-35250D02*
X63550Y-34750D01*
X63550Y-34050D02*
X64450Y-34050D01*
X64450Y-34050D02*
X64450Y-34550D01*
X64450Y-34550D02*
X63550Y-34550D01*
X63550Y-34550D02*
X63550Y-34050D01*
X64250Y-41250D02*
X64250Y-42150D01*
X64250Y-42150D02*
X63750Y-42150D01*
X63750Y-42150D02*
X63750Y-41250D01*
X63750Y-41250D02*
X64250Y-41250D01*
X66250Y-41250D02*
X66250Y-42150D01*
X66250Y-42150D02*
X65750Y-42150D01*
X65750Y-42150D02*
X65750Y-41250D01*
X65750Y-41250D02*
X66250Y-41250D01*
G54D16*
X68823Y-34823D02*
X69177Y-34823D01*
X69177Y-34823D02*
X69177Y-34666D01*
X68823Y-34666D02*
X69177Y-34666D01*
X68823Y-34823D02*
X68823Y-34666D01*
X68823Y-35334D02*
X69177Y-35334D01*
X69177Y-35334D02*
X69177Y-35177D01*
X68823Y-35177D02*
X69177Y-35177D01*
X68823Y-35334D02*
X68823Y-35177D01*
X68823Y-35000D02*
X68882Y-35000D01*
X68882Y-35000D02*
X68882Y-34882D01*
X68823Y-34882D02*
X68882Y-34882D01*
X68823Y-35000D02*
X68823Y-34882D01*
X69118Y-35000D02*
X69177Y-35000D01*
X69177Y-35000D02*
X69177Y-34882D01*
X69118Y-34882D02*
X69177Y-34882D01*
X69118Y-35000D02*
X69118Y-34882D01*
X68941Y-35000D02*
X69059Y-35000D01*
X69059Y-35000D02*
X69059Y-34882D01*
X68941Y-34882D02*
X69059Y-34882D01*
X68941Y-35000D02*
X68941Y-34882D01*
G54D12*
X68843Y-34823D02*
X68843Y-35177D01*
X69157Y-34823D02*
X69157Y-35177D01*
G54D16*
X65223Y-31023D02*
X65577Y-31023D01*
X65577Y-31023D02*
X65577Y-30866D01*
X65223Y-30866D02*
X65577Y-30866D01*
X65223Y-31023D02*
X65223Y-30866D01*
X65223Y-31534D02*
X65577Y-31534D01*
X65577Y-31534D02*
X65577Y-31377D01*
X65223Y-31377D02*
X65577Y-31377D01*
X65223Y-31534D02*
X65223Y-31377D01*
X65223Y-31200D02*
X65282Y-31200D01*
X65282Y-31200D02*
X65282Y-31082D01*
X65223Y-31082D02*
X65282Y-31082D01*
X65223Y-31200D02*
X65223Y-31082D01*
X65518Y-31200D02*
X65577Y-31200D01*
X65577Y-31200D02*
X65577Y-31082D01*
X65518Y-31082D02*
X65577Y-31082D01*
X65518Y-31200D02*
X65518Y-31082D01*
X65341Y-31200D02*
X65459Y-31200D01*
X65459Y-31200D02*
X65459Y-31082D01*
X65341Y-31082D02*
X65459Y-31082D01*
X65341Y-31200D02*
X65341Y-31082D01*
G54D12*
X65243Y-31023D02*
X65243Y-31377D01*
X65557Y-31023D02*
X65557Y-31377D01*
G54D16*
X66223Y-31023D02*
X66577Y-31023D01*
X66577Y-31023D02*
X66577Y-30866D01*
X66223Y-30866D02*
X66577Y-30866D01*
X66223Y-31023D02*
X66223Y-30866D01*
X66223Y-31534D02*
X66577Y-31534D01*
X66577Y-31534D02*
X66577Y-31377D01*
X66223Y-31377D02*
X66577Y-31377D01*
X66223Y-31534D02*
X66223Y-31377D01*
X66223Y-31200D02*
X66282Y-31200D01*
X66282Y-31200D02*
X66282Y-31082D01*
X66223Y-31082D02*
X66282Y-31082D01*
X66223Y-31200D02*
X66223Y-31082D01*
X66518Y-31200D02*
X66577Y-31200D01*
X66577Y-31200D02*
X66577Y-31082D01*
X66518Y-31082D02*
X66577Y-31082D01*
X66518Y-31200D02*
X66518Y-31082D01*
X66341Y-31200D02*
X66459Y-31200D01*
X66459Y-31200D02*
X66459Y-31082D01*
X66341Y-31082D02*
X66459Y-31082D01*
X66341Y-31200D02*
X66341Y-31082D01*
G54D12*
X66243Y-31023D02*
X66243Y-31377D01*
X66557Y-31023D02*
X66557Y-31377D01*
G54D17*
X69500Y-46000D02*
X61500Y-46000D01*
X61500Y-47000D02*
X69500Y-47000D01*
X69500Y-46000D02*
X69500Y-47000D01*
X61500Y-47000D02*
X61500Y-46000D01*
X68500Y-47000D02*
X68500Y-46000D01*
G54D10*
X68500Y-30500D02*
X69500Y-30500D01*
X69500Y-30500D02*
X69500Y-33500D01*
X69500Y-33500D02*
X68500Y-33500D01*
X68500Y-33500D02*
X68500Y-30500D01*
X69500Y-31500D02*
X68500Y-31500D01*
G54D17*
X61700Y-39200D02*
X61700Y-41200D01*
X62700Y-39200D02*
X62700Y-41200D01*
X61700Y-39200D02*
X62700Y-39200D01*
X62700Y-41200D02*
X61700Y-41200D01*
X62700Y-40200D02*
X61700Y-40200D01*
X60300Y-39200D02*
X60300Y-41200D01*
X61300Y-39200D02*
X61300Y-41200D01*
X60300Y-39200D02*
X61300Y-39200D01*
X61300Y-41200D02*
X60300Y-41200D01*
X61300Y-40200D02*
X60300Y-40200D01*
X68400Y-32500D02*
X68400Y-30500D01*
X67400Y-32500D02*
X67400Y-30500D01*
X68400Y-32500D02*
X67400Y-32500D01*
X67400Y-30500D02*
X68400Y-30500D01*
X67400Y-31500D02*
X68400Y-31500D01*
X60300Y-41700D02*
X60300Y-45700D01*
X61300Y-41700D02*
X61300Y-45700D01*
X60300Y-41700D02*
X61300Y-41700D01*
X61300Y-45700D02*
X60300Y-45700D01*
X61300Y-42700D02*
X60300Y-42700D01*
X69004Y-48972D02*
X69201Y-49248D01*
X69201Y-49248D02*
X68807Y-49248D01*
X68807Y-49248D02*
X69004Y-48972D01*
X69594Y-47476D02*
X61406Y-47476D01*
X69594Y-49445D02*
X61406Y-49445D01*
X69594Y-49760D02*
X69594Y-47201D01*
X69594Y-47201D02*
X61406Y-47201D01*
X61406Y-47201D02*
X61406Y-49760D01*
X61406Y-49760D02*
X69594Y-49760D01*
X62500Y-49512D02*
X62500Y-49762D01*
X63500Y-49512D02*
X63500Y-49762D01*
X64500Y-49512D02*
X64500Y-49762D01*
X65500Y-49512D02*
X65500Y-49762D01*
X66500Y-49512D02*
X66500Y-49762D01*
X67500Y-49512D02*
X67500Y-49762D01*
X68500Y-49512D02*
X68500Y-49762D01*
G54D15*
X64300Y-40200D02*
X64300Y-39600D01*
X65700Y-40200D02*
X65700Y-39600D01*
X64600Y-37700D02*
X64000Y-37700D01*
X64600Y-36300D02*
X64000Y-36300D01*
G54D12*
X65663Y-33781D02*
X65663Y-33943D01*
X65671Y-33962D01*
X65680Y-33971D01*
X65697Y-33981D01*
X65731Y-33981D01*
X65749Y-33971D01*
X65757Y-33962D01*
X65766Y-33943D01*
X65766Y-33781D01*
X65946Y-33981D02*
X65843Y-33981D01*
X65895Y-33981D02*
X65895Y-33781D01*
X65878Y-33810D01*
X65860Y-33829D01*
X65843Y-33838D01*
X62540Y-33981D02*
X62540Y-34124D01*
X62532Y-34152D01*
X62515Y-34171D01*
X62489Y-34181D01*
X62472Y-34181D01*
X62720Y-34181D02*
X62617Y-34181D01*
X62669Y-34181D02*
X62669Y-33981D01*
X62652Y-34010D01*
X62634Y-34029D01*
X62617Y-34038D01*
X67071Y-37940D02*
X67081Y-37914D01*
X67081Y-37871D01*
X67071Y-37854D01*
X67062Y-37845D01*
X67043Y-37837D01*
X67024Y-37837D01*
X67005Y-37845D01*
X66995Y-37854D01*
X66986Y-37871D01*
X66976Y-37905D01*
X66967Y-37923D01*
X66957Y-37931D01*
X66938Y-37940D01*
X66919Y-37940D01*
X66900Y-37931D01*
X66890Y-37923D01*
X66881Y-37905D01*
X66881Y-37863D01*
X66890Y-37837D01*
X66881Y-37777D02*
X67081Y-37734D01*
X66938Y-37700D01*
X67081Y-37666D01*
X66881Y-37623D01*
X67081Y-37460D02*
X67081Y-37563D01*
X67081Y-37511D02*
X66881Y-37511D01*
X66910Y-37528D01*
X66929Y-37546D01*
X66938Y-37563D01*
X63071Y-35340D02*
X63081Y-35314D01*
X63081Y-35271D01*
X63071Y-35254D01*
X63062Y-35245D01*
X63043Y-35237D01*
X63024Y-35237D01*
X63005Y-35245D01*
X62995Y-35254D01*
X62986Y-35271D01*
X62976Y-35305D01*
X62967Y-35323D01*
X62957Y-35331D01*
X62938Y-35340D01*
X62919Y-35340D01*
X62900Y-35331D01*
X62890Y-35323D01*
X62881Y-35305D01*
X62881Y-35263D01*
X62890Y-35237D01*
X62881Y-35177D02*
X63081Y-35134D01*
X62938Y-35100D01*
X63081Y-35066D01*
X62881Y-35023D01*
X62881Y-34971D02*
X62881Y-34860D01*
X62957Y-34920D01*
X62957Y-34894D01*
X62967Y-34877D01*
X62976Y-34868D01*
X62995Y-34860D01*
X63043Y-34860D01*
X63062Y-34868D01*
X63071Y-34877D01*
X63081Y-34894D01*
X63081Y-34946D01*
X63071Y-34963D01*
X63062Y-34971D01*
X67071Y-41940D02*
X67081Y-41914D01*
X67081Y-41871D01*
X67071Y-41854D01*
X67062Y-41845D01*
X67043Y-41837D01*
X67024Y-41837D01*
X67005Y-41845D01*
X66995Y-41854D01*
X66986Y-41871D01*
X66976Y-41905D01*
X66967Y-41923D01*
X66957Y-41931D01*
X66938Y-41940D01*
X66919Y-41940D01*
X66900Y-41931D01*
X66890Y-41923D01*
X66881Y-41905D01*
X66881Y-41863D01*
X66890Y-41837D01*
X66881Y-41777D02*
X67081Y-41734D01*
X66938Y-41700D01*
X67081Y-41666D01*
X66881Y-41623D01*
X66900Y-41563D02*
X66890Y-41554D01*
X66881Y-41537D01*
X66881Y-41494D01*
X66890Y-41477D01*
X66900Y-41468D01*
X66919Y-41460D01*
X66938Y-41460D01*
X66967Y-41468D01*
X67081Y-41571D01*
X67081Y-41460D01*
X62881Y-44237D02*
X63043Y-44237D01*
X63062Y-44229D01*
X63071Y-44220D01*
X63081Y-44203D01*
X63081Y-44169D01*
X63071Y-44151D01*
X63062Y-44143D01*
X63043Y-44134D01*
X62881Y-44134D01*
X62900Y-44057D02*
X62890Y-44048D01*
X62881Y-44031D01*
X62881Y-43988D01*
X62890Y-43971D01*
X62900Y-43962D01*
X62919Y-43954D01*
X62938Y-43954D01*
X62967Y-43962D01*
X63081Y-44065D01*
X63081Y-43954D01*
X68071Y-33881D02*
X68011Y-33786D01*
X67968Y-33881D02*
X67968Y-33681D01*
X68036Y-33681D01*
X68054Y-33690D01*
X68062Y-33700D01*
X68071Y-33719D01*
X68071Y-33748D01*
X68062Y-33767D01*
X68054Y-33776D01*
X68036Y-33786D01*
X67968Y-33786D01*
X68131Y-33681D02*
X68242Y-33681D01*
X68182Y-33757D01*
X68208Y-33757D01*
X68225Y-33767D01*
X68234Y-33776D01*
X68242Y-33795D01*
X68242Y-33843D01*
X68234Y-33862D01*
X68225Y-33871D01*
X68208Y-33881D01*
X68156Y-33881D01*
X68139Y-33871D01*
X68131Y-33862D01*
X67081Y-33129D02*
X66986Y-33189D01*
X67081Y-33232D02*
X66881Y-33232D01*
X66881Y-33164D01*
X66890Y-33146D01*
X66900Y-33138D01*
X66919Y-33129D01*
X66948Y-33129D01*
X66967Y-33138D01*
X66976Y-33146D01*
X66986Y-33164D01*
X66986Y-33232D01*
X66948Y-32975D02*
X67081Y-32975D01*
X66871Y-33018D02*
X67014Y-33061D01*
X67014Y-32949D01*
X65171Y-34181D02*
X65111Y-34086D01*
X65068Y-34181D02*
X65068Y-33981D01*
X65136Y-33981D01*
X65154Y-33990D01*
X65162Y-34000D01*
X65171Y-34019D01*
X65171Y-34048D01*
X65162Y-34067D01*
X65154Y-34076D01*
X65136Y-34086D01*
X65068Y-34086D01*
X65334Y-33981D02*
X65248Y-33981D01*
X65239Y-34076D01*
X65248Y-34067D01*
X65265Y-34057D01*
X65308Y-34057D01*
X65325Y-34067D01*
X65334Y-34076D01*
X65342Y-34095D01*
X65342Y-34143D01*
X65334Y-34162D01*
X65325Y-34171D01*
X65308Y-34181D01*
X65265Y-34181D01*
X65248Y-34171D01*
X65239Y-34162D01*
X65381Y-37629D02*
X65286Y-37689D01*
X65381Y-37732D02*
X65181Y-37732D01*
X65181Y-37664D01*
X65190Y-37646D01*
X65200Y-37638D01*
X65219Y-37629D01*
X65248Y-37629D01*
X65267Y-37638D01*
X65276Y-37646D01*
X65286Y-37664D01*
X65286Y-37732D01*
X65181Y-37475D02*
X65181Y-37509D01*
X65190Y-37526D01*
X65200Y-37535D01*
X65229Y-37552D01*
X65267Y-37561D01*
X65343Y-37561D01*
X65362Y-37552D01*
X65371Y-37544D01*
X65381Y-37526D01*
X65381Y-37492D01*
X65371Y-37475D01*
X65362Y-37466D01*
X65343Y-37458D01*
X65295Y-37458D01*
X65276Y-37466D01*
X65267Y-37475D01*
X65257Y-37492D01*
X65257Y-37526D01*
X65267Y-37544D01*
X65276Y-37552D01*
X65295Y-37561D01*
X65381Y-38429D02*
X65286Y-38489D01*
X65381Y-38532D02*
X65181Y-38532D01*
X65181Y-38464D01*
X65190Y-38446D01*
X65200Y-38438D01*
X65219Y-38429D01*
X65248Y-38429D01*
X65267Y-38438D01*
X65276Y-38446D01*
X65286Y-38464D01*
X65286Y-38532D01*
X65267Y-38326D02*
X65257Y-38344D01*
X65248Y-38352D01*
X65229Y-38361D01*
X65219Y-38361D01*
X65200Y-38352D01*
X65190Y-38344D01*
X65181Y-38326D01*
X65181Y-38292D01*
X65190Y-38275D01*
X65200Y-38266D01*
X65219Y-38258D01*
X65229Y-38258D01*
X65248Y-38266D01*
X65257Y-38275D01*
X65267Y-38292D01*
X65267Y-38326D01*
X65276Y-38344D01*
X65286Y-38352D01*
X65305Y-38361D01*
X65343Y-38361D01*
X65362Y-38352D01*
X65371Y-38344D01*
X65381Y-38326D01*
X65381Y-38292D01*
X65371Y-38275D01*
X65362Y-38266D01*
X65343Y-38258D01*
X65305Y-38258D01*
X65286Y-38266D01*
X65276Y-38275D01*
X65267Y-38292D01*
X64781Y-35029D02*
X64686Y-35089D01*
X64781Y-35132D02*
X64581Y-35132D01*
X64581Y-35064D01*
X64590Y-35046D01*
X64600Y-35038D01*
X64619Y-35029D01*
X64648Y-35029D01*
X64667Y-35038D01*
X64676Y-35046D01*
X64686Y-35064D01*
X64686Y-35132D01*
X64781Y-34944D02*
X64781Y-34909D01*
X64771Y-34892D01*
X64762Y-34884D01*
X64733Y-34866D01*
X64695Y-34858D01*
X64619Y-34858D01*
X64600Y-34866D01*
X64590Y-34875D01*
X64581Y-34892D01*
X64581Y-34926D01*
X64590Y-34944D01*
X64600Y-34952D01*
X64619Y-34961D01*
X64667Y-34961D01*
X64686Y-34952D01*
X64695Y-34944D01*
X64705Y-34926D01*
X64705Y-34892D01*
X64695Y-34875D01*
X64686Y-34866D01*
X64667Y-34858D01*
X64781Y-34415D02*
X64686Y-34475D01*
X64781Y-34518D02*
X64581Y-34518D01*
X64581Y-34450D01*
X64590Y-34432D01*
X64600Y-34424D01*
X64619Y-34415D01*
X64648Y-34415D01*
X64667Y-34424D01*
X64676Y-34432D01*
X64686Y-34450D01*
X64686Y-34518D01*
X64781Y-34244D02*
X64781Y-34347D01*
X64781Y-34295D02*
X64581Y-34295D01*
X64610Y-34312D01*
X64629Y-34330D01*
X64638Y-34347D01*
X64581Y-34133D02*
X64581Y-34116D01*
X64590Y-34099D01*
X64600Y-34090D01*
X64619Y-34081D01*
X64657Y-34073D01*
X64705Y-34073D01*
X64743Y-34081D01*
X64762Y-34090D01*
X64771Y-34099D01*
X64781Y-34116D01*
X64781Y-34133D01*
X64771Y-34150D01*
X64762Y-34159D01*
X64743Y-34167D01*
X64705Y-34176D01*
X64657Y-34176D01*
X64619Y-34167D01*
X64600Y-34159D01*
X64590Y-34150D01*
X64581Y-34133D01*
X63681Y-41815D02*
X63586Y-41875D01*
X63681Y-41918D02*
X63481Y-41918D01*
X63481Y-41850D01*
X63490Y-41832D01*
X63500Y-41824D01*
X63519Y-41815D01*
X63548Y-41815D01*
X63567Y-41824D01*
X63576Y-41832D01*
X63586Y-41850D01*
X63586Y-41918D01*
X63681Y-41644D02*
X63681Y-41747D01*
X63681Y-41695D02*
X63481Y-41695D01*
X63510Y-41712D01*
X63529Y-41730D01*
X63538Y-41747D01*
X63548Y-41490D02*
X63681Y-41490D01*
X63471Y-41533D02*
X63614Y-41576D01*
X63614Y-41464D01*
X65681Y-41815D02*
X65586Y-41875D01*
X65681Y-41918D02*
X65481Y-41918D01*
X65481Y-41850D01*
X65490Y-41832D01*
X65500Y-41824D01*
X65519Y-41815D01*
X65548Y-41815D01*
X65567Y-41824D01*
X65576Y-41832D01*
X65586Y-41850D01*
X65586Y-41918D01*
X65681Y-41644D02*
X65681Y-41747D01*
X65681Y-41695D02*
X65481Y-41695D01*
X65510Y-41712D01*
X65529Y-41730D01*
X65538Y-41747D01*
X65500Y-41576D02*
X65490Y-41567D01*
X65481Y-41550D01*
X65481Y-41507D01*
X65490Y-41490D01*
X65500Y-41481D01*
X65519Y-41473D01*
X65538Y-41473D01*
X65567Y-41481D01*
X65681Y-41584D01*
X65681Y-41473D01*
X68681Y-35132D02*
X68481Y-35132D01*
X68481Y-35089D01*
X68490Y-35064D01*
X68510Y-35046D01*
X68529Y-35038D01*
X68567Y-35029D01*
X68595Y-35029D01*
X68633Y-35038D01*
X68652Y-35046D01*
X68671Y-35064D01*
X68681Y-35089D01*
X68681Y-35132D01*
X68481Y-34969D02*
X68481Y-34858D01*
X68557Y-34918D01*
X68557Y-34892D01*
X68567Y-34875D01*
X68576Y-34866D01*
X68595Y-34858D01*
X68643Y-34858D01*
X68662Y-34866D01*
X68671Y-34875D01*
X68681Y-34892D01*
X68681Y-34944D01*
X68671Y-34961D01*
X68662Y-34969D01*
X65268Y-31981D02*
X65268Y-31781D01*
X65311Y-31781D01*
X65336Y-31790D01*
X65354Y-31810D01*
X65362Y-31829D01*
X65371Y-31867D01*
X65371Y-31895D01*
X65362Y-31933D01*
X65354Y-31952D01*
X65336Y-31971D01*
X65311Y-31981D01*
X65268Y-31981D01*
X65439Y-31800D02*
X65448Y-31790D01*
X65465Y-31781D01*
X65508Y-31781D01*
X65525Y-31790D01*
X65534Y-31800D01*
X65542Y-31819D01*
X65542Y-31838D01*
X65534Y-31867D01*
X65431Y-31981D01*
X65542Y-31981D01*
X66268Y-31981D02*
X66268Y-31781D01*
X66311Y-31781D01*
X66336Y-31790D01*
X66354Y-31810D01*
X66362Y-31829D01*
X66371Y-31867D01*
X66371Y-31895D01*
X66362Y-31933D01*
X66354Y-31952D01*
X66336Y-31971D01*
X66311Y-31981D01*
X66268Y-31981D01*
X66542Y-31981D02*
X66439Y-31981D01*
X66491Y-31981D02*
X66491Y-31781D01*
X66474Y-31810D01*
X66456Y-31829D01*
X66439Y-31838D01*
X61081Y-46632D02*
X60881Y-46632D01*
X60881Y-46564D01*
X60890Y-46546D01*
X60900Y-46538D01*
X60919Y-46529D01*
X60948Y-46529D01*
X60967Y-46538D01*
X60976Y-46546D01*
X60986Y-46564D01*
X60986Y-46632D01*
X60881Y-46375D02*
X60881Y-46409D01*
X60890Y-46426D01*
X60900Y-46435D01*
X60929Y-46452D01*
X60967Y-46461D01*
X61043Y-46461D01*
X61062Y-46452D01*
X61071Y-46444D01*
X61081Y-46426D01*
X61081Y-46392D01*
X61071Y-46375D01*
X61062Y-46366D01*
X61043Y-46358D01*
X60995Y-46358D01*
X60976Y-46366D01*
X60967Y-46375D01*
X60957Y-46392D01*
X60957Y-46426D01*
X60967Y-46444D01*
X60976Y-46452D01*
X60995Y-46461D01*
X68868Y-33781D02*
X68868Y-33581D01*
X68936Y-33581D01*
X68954Y-33590D01*
X68962Y-33600D01*
X68971Y-33619D01*
X68971Y-33648D01*
X68962Y-33667D01*
X68954Y-33676D01*
X68936Y-33686D01*
X68868Y-33686D01*
X69142Y-33781D02*
X69039Y-33781D01*
X69091Y-33781D02*
X69091Y-33581D01*
X69074Y-33610D01*
X69056Y-33629D01*
X69039Y-33638D01*
X62068Y-39081D02*
X62068Y-38881D01*
X62136Y-38881D01*
X62154Y-38890D01*
X62162Y-38900D01*
X62171Y-38919D01*
X62171Y-38948D01*
X62162Y-38967D01*
X62154Y-38976D01*
X62136Y-38986D01*
X62068Y-38986D01*
X62334Y-38881D02*
X62248Y-38881D01*
X62239Y-38976D01*
X62248Y-38967D01*
X62265Y-38957D01*
X62308Y-38957D01*
X62325Y-38967D01*
X62334Y-38976D01*
X62342Y-38995D01*
X62342Y-39043D01*
X62334Y-39062D01*
X62325Y-39071D01*
X62308Y-39081D01*
X62265Y-39081D01*
X62248Y-39071D01*
X62239Y-39062D01*
X60668Y-39081D02*
X60668Y-38881D01*
X60736Y-38881D01*
X60754Y-38890D01*
X60762Y-38900D01*
X60771Y-38919D01*
X60771Y-38948D01*
X60762Y-38967D01*
X60754Y-38976D01*
X60736Y-38986D01*
X60668Y-38986D01*
X60925Y-38948D02*
X60925Y-39081D01*
X60882Y-38871D02*
X60839Y-39014D01*
X60951Y-39014D01*
X67181Y-30832D02*
X66981Y-30832D01*
X66981Y-30764D01*
X66990Y-30746D01*
X67000Y-30738D01*
X67019Y-30729D01*
X67048Y-30729D01*
X67067Y-30738D01*
X67076Y-30746D01*
X67086Y-30764D01*
X67086Y-30832D01*
X67000Y-30661D02*
X66990Y-30652D01*
X66981Y-30635D01*
X66981Y-30592D01*
X66990Y-30575D01*
X67000Y-30566D01*
X67019Y-30558D01*
X67038Y-30558D01*
X67067Y-30566D01*
X67181Y-30669D01*
X67181Y-30558D01*
X60668Y-46081D02*
X60668Y-45881D01*
X60736Y-45881D01*
X60754Y-45890D01*
X60762Y-45900D01*
X60771Y-45919D01*
X60771Y-45948D01*
X60762Y-45967D01*
X60754Y-45976D01*
X60736Y-45986D01*
X60668Y-45986D01*
X60831Y-45881D02*
X60942Y-45881D01*
X60882Y-45957D01*
X60908Y-45957D01*
X60925Y-45967D01*
X60934Y-45976D01*
X60942Y-45995D01*
X60942Y-46043D01*
X60934Y-46062D01*
X60925Y-46071D01*
X60908Y-46081D01*
X60856Y-46081D01*
X60839Y-46071D01*
X60831Y-46062D01*
X60781Y-48727D02*
X60781Y-48624D01*
X60981Y-48675D02*
X60781Y-48675D01*
X60876Y-48504D02*
X60886Y-48478D01*
X60895Y-48470D01*
X60914Y-48461D01*
X60943Y-48461D01*
X60962Y-48470D01*
X60971Y-48478D01*
X60981Y-48496D01*
X60981Y-48564D01*
X60781Y-48564D01*
X60781Y-48504D01*
X60790Y-48487D01*
X60800Y-48478D01*
X60819Y-48470D01*
X60838Y-48470D01*
X60857Y-48478D01*
X60867Y-48487D01*
X60876Y-48504D01*
X60876Y-48564D01*
X60981Y-48290D02*
X60981Y-48393D01*
X60981Y-48341D02*
X60781Y-48341D01*
X60810Y-48358D01*
X60829Y-48376D01*
X60838Y-48393D01*
X64855Y-39181D02*
X64975Y-39381D01*
X64975Y-39181D02*
X64855Y-39381D01*
X65034Y-39200D02*
X65043Y-39190D01*
X65060Y-39181D01*
X65103Y-39181D01*
X65120Y-39190D01*
X65129Y-39200D01*
X65137Y-39219D01*
X65137Y-39238D01*
X65129Y-39267D01*
X65026Y-39381D01*
X65137Y-39381D01*
X63855Y-35981D02*
X63975Y-36181D01*
X63975Y-35981D02*
X63855Y-36181D01*
X64137Y-36181D02*
X64034Y-36181D01*
X64086Y-36181D02*
X64086Y-35981D01*
X64069Y-36010D01*
X64051Y-36029D01*
X64034Y-36038D01*
M02*
