G04 (created by PCBNEW (2012-01-19 BZR 3256)-stable) date 12/5/2012 8:16:12 PM*
G01*
G70*
G90*
%MOIN*%
G04 Gerber Fmt 3.4, Leading zero omitted, Abs format*
%FSLAX34Y34*%
G04 APERTURE LIST*
%ADD10C,0.001000*%
%ADD11C,0.015000*%
%ADD12C,0.008000*%
G04 APERTURE END LIST*
G54D10*
G54D11*
X60000Y-50000D02*
X70000Y-50000D01*
X60000Y-30000D02*
X60000Y-50000D01*
X70000Y-30000D02*
X60000Y-30000D01*
X70000Y-30000D02*
X70000Y-50000D01*
G54D10*
X61560Y-32025D02*
X61910Y-32375D01*
X61910Y-32025D02*
X61560Y-32375D01*
X63290Y-32025D02*
X63640Y-32375D01*
X63640Y-32025D02*
X63290Y-32375D01*
G54D12*
X60239Y-51355D02*
X60239Y-50555D01*
X60430Y-50555D01*
X60544Y-50593D01*
X60620Y-50669D01*
X60659Y-50745D01*
X60697Y-50898D01*
X60697Y-51012D01*
X60659Y-51164D01*
X60620Y-51241D01*
X60544Y-51317D01*
X60430Y-51355D01*
X60239Y-51355D01*
X61039Y-51355D02*
X61039Y-50821D01*
X61039Y-50974D02*
X61078Y-50898D01*
X61116Y-50860D01*
X61192Y-50821D01*
X61268Y-50821D01*
X61534Y-51355D02*
X61534Y-50821D01*
X61534Y-50555D02*
X61496Y-50593D01*
X61534Y-50631D01*
X61573Y-50593D01*
X61534Y-50555D01*
X61534Y-50631D01*
X62030Y-51355D02*
X61954Y-51317D01*
X61915Y-51241D01*
X61915Y-50555D01*
X62449Y-51355D02*
X62373Y-51317D01*
X62334Y-51241D01*
X62334Y-50555D01*
X63363Y-51355D02*
X63363Y-50555D01*
X63630Y-51126D01*
X63897Y-50555D01*
X63897Y-51355D01*
X64620Y-51355D02*
X64620Y-50936D01*
X64582Y-50860D01*
X64506Y-50821D01*
X64354Y-50821D01*
X64277Y-50860D01*
X64620Y-51317D02*
X64544Y-51355D01*
X64354Y-51355D01*
X64277Y-51317D01*
X64239Y-51241D01*
X64239Y-51164D01*
X64277Y-51088D01*
X64354Y-51050D01*
X64544Y-51050D01*
X64620Y-51012D01*
X65001Y-50821D02*
X65001Y-51621D01*
X65001Y-50860D02*
X65078Y-50821D01*
X65230Y-50821D01*
X65306Y-50860D01*
X65344Y-50898D01*
X65382Y-50974D01*
X65382Y-51202D01*
X65344Y-51279D01*
X65306Y-51317D01*
X65230Y-51355D01*
X65078Y-51355D01*
X65001Y-51317D01*
X65725Y-51279D02*
X65764Y-51317D01*
X65725Y-51355D01*
X65687Y-51317D01*
X65725Y-51279D01*
X65725Y-51355D01*
X65725Y-50860D02*
X65764Y-50898D01*
X65725Y-50936D01*
X65687Y-50898D01*
X65725Y-50860D01*
X65725Y-50936D01*
X59499Y-52536D02*
X59849Y-52886D01*
X59849Y-52536D02*
X59499Y-52886D01*
X60392Y-52235D02*
X60468Y-52235D01*
X60544Y-52273D01*
X60582Y-52311D01*
X60620Y-52387D01*
X60659Y-52540D01*
X60659Y-52730D01*
X60620Y-52882D01*
X60582Y-52959D01*
X60544Y-52997D01*
X60468Y-53035D01*
X60392Y-53035D01*
X60316Y-52997D01*
X60278Y-52959D01*
X60239Y-52882D01*
X60201Y-52730D01*
X60201Y-52540D01*
X60239Y-52387D01*
X60278Y-52311D01*
X60316Y-52273D01*
X60392Y-52235D01*
X61001Y-52959D02*
X61040Y-52997D01*
X61001Y-53035D01*
X60963Y-52997D01*
X61001Y-52959D01*
X61001Y-53035D01*
X61535Y-52235D02*
X61611Y-52235D01*
X61687Y-52273D01*
X61725Y-52311D01*
X61763Y-52387D01*
X61802Y-52540D01*
X61802Y-52730D01*
X61763Y-52882D01*
X61725Y-52959D01*
X61687Y-52997D01*
X61611Y-53035D01*
X61535Y-53035D01*
X61459Y-52997D01*
X61421Y-52959D01*
X61382Y-52882D01*
X61344Y-52730D01*
X61344Y-52540D01*
X61382Y-52387D01*
X61421Y-52311D01*
X61459Y-52273D01*
X61535Y-52235D01*
X62068Y-52235D02*
X62564Y-52235D01*
X62297Y-52540D01*
X62411Y-52540D01*
X62487Y-52578D01*
X62525Y-52616D01*
X62564Y-52692D01*
X62564Y-52882D01*
X62525Y-52959D01*
X62487Y-52997D01*
X62411Y-53035D01*
X62183Y-53035D01*
X62106Y-52997D01*
X62068Y-52959D01*
X63287Y-52235D02*
X62906Y-52235D01*
X62868Y-52616D01*
X62906Y-52578D01*
X62983Y-52540D01*
X63173Y-52540D01*
X63249Y-52578D01*
X63287Y-52616D01*
X63326Y-52692D01*
X63326Y-52882D01*
X63287Y-52959D01*
X63249Y-52997D01*
X63173Y-53035D01*
X62983Y-53035D01*
X62906Y-52997D01*
X62868Y-52959D01*
X63630Y-52235D02*
X63630Y-52387D01*
X63935Y-52235D02*
X63935Y-52387D01*
X65460Y-52197D02*
X64774Y-53225D01*
X66489Y-52235D02*
X66565Y-52235D01*
X66641Y-52273D01*
X66679Y-52311D01*
X66717Y-52387D01*
X66756Y-52540D01*
X66756Y-52730D01*
X66717Y-52882D01*
X66679Y-52959D01*
X66641Y-52997D01*
X66565Y-53035D01*
X66489Y-53035D01*
X66413Y-52997D01*
X66375Y-52959D01*
X66336Y-52882D01*
X66298Y-52730D01*
X66298Y-52540D01*
X66336Y-52387D01*
X66375Y-52311D01*
X66413Y-52273D01*
X66489Y-52235D01*
X67098Y-52959D02*
X67137Y-52997D01*
X67098Y-53035D01*
X67060Y-52997D01*
X67098Y-52959D01*
X67098Y-53035D01*
X67594Y-52578D02*
X67518Y-52540D01*
X67479Y-52501D01*
X67441Y-52425D01*
X67441Y-52387D01*
X67479Y-52311D01*
X67518Y-52273D01*
X67594Y-52235D01*
X67746Y-52235D01*
X67822Y-52273D01*
X67860Y-52311D01*
X67899Y-52387D01*
X67899Y-52425D01*
X67860Y-52501D01*
X67822Y-52540D01*
X67746Y-52578D01*
X67594Y-52578D01*
X67518Y-52616D01*
X67479Y-52654D01*
X67441Y-52730D01*
X67441Y-52882D01*
X67479Y-52959D01*
X67518Y-52997D01*
X67594Y-53035D01*
X67746Y-53035D01*
X67822Y-52997D01*
X67860Y-52959D01*
X67899Y-52882D01*
X67899Y-52730D01*
X67860Y-52654D01*
X67822Y-52616D01*
X67746Y-52578D01*
X68280Y-53035D02*
X68432Y-53035D01*
X68508Y-52997D01*
X68546Y-52959D01*
X68622Y-52844D01*
X68661Y-52692D01*
X68661Y-52387D01*
X68622Y-52311D01*
X68584Y-52273D01*
X68508Y-52235D01*
X68356Y-52235D01*
X68280Y-52273D01*
X68241Y-52311D01*
X68203Y-52387D01*
X68203Y-52578D01*
X68241Y-52654D01*
X68280Y-52692D01*
X68356Y-52730D01*
X68508Y-52730D01*
X68584Y-52692D01*
X68622Y-52654D01*
X68661Y-52578D01*
X69003Y-53035D02*
X69003Y-52501D01*
X69003Y-52578D02*
X69042Y-52540D01*
X69118Y-52501D01*
X69232Y-52501D01*
X69308Y-52540D01*
X69346Y-52616D01*
X69346Y-53035D01*
X69346Y-52616D02*
X69384Y-52540D01*
X69461Y-52501D01*
X69575Y-52501D01*
X69651Y-52540D01*
X69689Y-52616D01*
X69689Y-53035D01*
X70070Y-53035D02*
X70070Y-52501D01*
X70070Y-52578D02*
X70109Y-52540D01*
X70185Y-52501D01*
X70299Y-52501D01*
X70375Y-52540D01*
X70413Y-52616D01*
X70413Y-53035D01*
X70413Y-52616D02*
X70451Y-52540D01*
X70528Y-52501D01*
X70642Y-52501D01*
X70718Y-52540D01*
X70756Y-52616D01*
X70756Y-53035D01*
X71976Y-53340D02*
X71938Y-53301D01*
X71862Y-53187D01*
X71824Y-53111D01*
X71786Y-52997D01*
X71747Y-52806D01*
X71747Y-52654D01*
X71786Y-52463D01*
X71824Y-52349D01*
X71862Y-52273D01*
X71938Y-52159D01*
X71976Y-52121D01*
X72242Y-52311D02*
X72280Y-52273D01*
X72357Y-52235D01*
X72547Y-52235D01*
X72623Y-52273D01*
X72661Y-52311D01*
X72700Y-52387D01*
X72700Y-52463D01*
X72661Y-52578D01*
X72204Y-53035D01*
X72700Y-53035D01*
X73652Y-53035D02*
X73652Y-52235D01*
X73995Y-53035D02*
X73995Y-52616D01*
X73957Y-52540D01*
X73881Y-52501D01*
X73767Y-52501D01*
X73691Y-52540D01*
X73652Y-52578D01*
X74491Y-53035D02*
X74415Y-52997D01*
X74376Y-52959D01*
X74338Y-52882D01*
X74338Y-52654D01*
X74376Y-52578D01*
X74415Y-52540D01*
X74491Y-52501D01*
X74605Y-52501D01*
X74681Y-52540D01*
X74719Y-52578D01*
X74757Y-52654D01*
X74757Y-52882D01*
X74719Y-52959D01*
X74681Y-52997D01*
X74605Y-53035D01*
X74491Y-53035D01*
X75215Y-53035D02*
X75139Y-52997D01*
X75100Y-52921D01*
X75100Y-52235D01*
X75824Y-52997D02*
X75748Y-53035D01*
X75596Y-53035D01*
X75519Y-52997D01*
X75481Y-52921D01*
X75481Y-52616D01*
X75519Y-52540D01*
X75596Y-52501D01*
X75748Y-52501D01*
X75824Y-52540D01*
X75862Y-52616D01*
X75862Y-52692D01*
X75481Y-52768D01*
X76167Y-52997D02*
X76244Y-53035D01*
X76396Y-53035D01*
X76472Y-52997D01*
X76510Y-52921D01*
X76510Y-52882D01*
X76472Y-52806D01*
X76396Y-52768D01*
X76282Y-52768D01*
X76205Y-52730D01*
X76167Y-52654D01*
X76167Y-52616D01*
X76205Y-52540D01*
X76282Y-52501D01*
X76396Y-52501D01*
X76472Y-52540D01*
X76777Y-53340D02*
X76815Y-53301D01*
X76892Y-53187D01*
X76930Y-53111D01*
X76968Y-52997D01*
X77006Y-52806D01*
X77006Y-52654D01*
X76968Y-52463D01*
X76930Y-52349D01*
X76892Y-52273D01*
X76815Y-52159D01*
X76777Y-52121D01*
M02*
