G04 (created by PCBNEW-RS274X (2012-01-19 BZR 3256)-stable) date 12/5/2012 8:15:46 PM*
G01*
G70*
G90*
%MOIN*%
G04 Gerber Fmt 3.4, Leading zero omitted, Abs format*
%FSLAX34Y34*%
G04 APERTURE LIST*
%ADD10C,0.006000*%
%ADD11C,0.012000*%
%ADD12R,0.157800X0.157800*%
%ADD13O,0.059400X0.031800*%
%ADD14O,0.031800X0.059400*%
%ADD15C,0.055000*%
%ADD16R,0.099000X0.118000*%
%ADD17R,0.040000X0.111000*%
%ADD18C,0.080000*%
%ADD19R,0.036000X0.070000*%
%ADD20R,0.065000X0.045000*%
%ADD21R,0.045000X0.065000*%
%ADD22R,0.051400X0.051400*%
%ADD23R,0.080000X0.080000*%
%ADD24C,0.100000*%
%ADD25C,0.090000*%
%ADD26R,0.090000X0.090000*%
%ADD27R,0.035700X0.094800*%
%ADD28R,0.094800X0.035700*%
G04 APERTURE END LIST*
G54D10*
G54D11*
X71143Y-33824D02*
X71143Y-33024D01*
X71343Y-33595D01*
X71543Y-33024D01*
X71543Y-33824D01*
X71800Y-33595D02*
X72086Y-33595D01*
X71743Y-33824D02*
X71943Y-33024D01*
X72143Y-33824D01*
X72314Y-33786D02*
X72400Y-33824D01*
X72543Y-33824D01*
X72600Y-33786D01*
X72629Y-33748D01*
X72657Y-33671D01*
X72657Y-33595D01*
X72629Y-33519D01*
X72600Y-33481D01*
X72543Y-33443D01*
X72429Y-33405D01*
X72371Y-33367D01*
X72343Y-33329D01*
X72314Y-33252D01*
X72314Y-33176D01*
X72343Y-33100D01*
X72371Y-33062D01*
X72429Y-33024D01*
X72571Y-33024D01*
X72657Y-33062D01*
X72914Y-33824D02*
X72914Y-33024D01*
X73257Y-33824D02*
X73000Y-33367D01*
X73257Y-33024D02*
X72914Y-33481D01*
X73885Y-33024D02*
X74228Y-33024D01*
X74057Y-33824D02*
X74057Y-33024D01*
X74542Y-33024D02*
X74656Y-33024D01*
X74714Y-33062D01*
X74771Y-33138D01*
X74799Y-33290D01*
X74799Y-33557D01*
X74771Y-33710D01*
X74714Y-33786D01*
X74656Y-33824D01*
X74542Y-33824D01*
X74485Y-33786D01*
X74428Y-33710D01*
X74399Y-33557D01*
X74399Y-33290D01*
X74428Y-33138D01*
X74485Y-33062D01*
X74542Y-33024D01*
X75057Y-33824D02*
X75057Y-33024D01*
X75285Y-33024D01*
X75343Y-33062D01*
X75371Y-33100D01*
X75400Y-33176D01*
X75400Y-33290D01*
X75371Y-33367D01*
X75343Y-33405D01*
X75285Y-33443D01*
X75057Y-33443D01*
G54D12*
X67000Y-35000D03*
G54D13*
X67986Y-35640D03*
X67984Y-35384D03*
X67984Y-35128D03*
X67984Y-34872D03*
X67984Y-34616D03*
X67984Y-34360D03*
G54D14*
X67640Y-34016D03*
X67384Y-34016D03*
X67128Y-34016D03*
X66872Y-34016D03*
X66616Y-34016D03*
X66360Y-34016D03*
G54D13*
X66016Y-34360D03*
X66016Y-34616D03*
X66016Y-34872D03*
X66016Y-35128D03*
X66016Y-35384D03*
X66016Y-35640D03*
G54D14*
X66360Y-35984D03*
X66616Y-35984D03*
X66872Y-35984D03*
X67128Y-35984D03*
X67384Y-35984D03*
X67640Y-35984D03*
G54D15*
X61735Y-32200D03*
G54D16*
X64350Y-31020D03*
X60850Y-31020D03*
X60850Y-33190D03*
G54D17*
X63220Y-33225D03*
X61980Y-33225D03*
X62290Y-33225D03*
X62910Y-33225D03*
X62600Y-33225D03*
G54D16*
X64350Y-33190D03*
G54D15*
X63465Y-32200D03*
G54D18*
X67615Y-39780D03*
X67615Y-37220D03*
X69385Y-39780D03*
X69385Y-37220D03*
X62385Y-34720D03*
X62385Y-37280D03*
X60615Y-34720D03*
X60615Y-37280D03*
X67615Y-43780D03*
X67615Y-41220D03*
X69385Y-43780D03*
X69385Y-41220D03*
G54D19*
X63600Y-45150D03*
X63850Y-45150D03*
X64110Y-45150D03*
X64370Y-45150D03*
X64620Y-45150D03*
X64880Y-45150D03*
X65140Y-45150D03*
X65390Y-45150D03*
X65650Y-45150D03*
X65900Y-45150D03*
X66160Y-45150D03*
X66420Y-45150D03*
X66430Y-43050D03*
X66160Y-43050D03*
X65900Y-43050D03*
X65650Y-43050D03*
X65390Y-43050D03*
X65140Y-43050D03*
X64880Y-43050D03*
X64620Y-43050D03*
X64370Y-43050D03*
X64110Y-43050D03*
X63850Y-43050D03*
X63600Y-43050D03*
G54D20*
X68100Y-33400D03*
X68100Y-32800D03*
X67400Y-33400D03*
X67400Y-32800D03*
X65250Y-35050D03*
X65250Y-34450D03*
G54D21*
X65700Y-37600D03*
X66300Y-37600D03*
X65700Y-38400D03*
X66300Y-38400D03*
X63700Y-35000D03*
X64300Y-35000D03*
X63700Y-34300D03*
X64300Y-34300D03*
G54D20*
X64000Y-41400D03*
X64000Y-42000D03*
X66000Y-41400D03*
X66000Y-42000D03*
G54D22*
X69000Y-35295D03*
X69000Y-34705D03*
X65400Y-31495D03*
X65400Y-30905D03*
X66400Y-31495D03*
X66400Y-30905D03*
G54D18*
X63000Y-46500D03*
X64000Y-46500D03*
X62000Y-46500D03*
X65000Y-46500D03*
X66000Y-46500D03*
G54D23*
X69000Y-46500D03*
G54D18*
X68000Y-46500D03*
X67000Y-46500D03*
G54D23*
X69000Y-31000D03*
G54D18*
X69000Y-32000D03*
X69000Y-33000D03*
G54D23*
X62200Y-39700D03*
G54D18*
X62200Y-40700D03*
G54D23*
X60800Y-39700D03*
G54D18*
X60800Y-40700D03*
G54D23*
X67900Y-32000D03*
G54D18*
X67900Y-31000D03*
X60800Y-45200D03*
G54D23*
X60800Y-42200D03*
G54D18*
X60800Y-43200D03*
X60800Y-44200D03*
G54D24*
X60600Y-49400D03*
X60600Y-32000D03*
X69400Y-49400D03*
G54D25*
X63000Y-48500D03*
X64000Y-48500D03*
X62000Y-48500D03*
X65000Y-48500D03*
X66000Y-48500D03*
G54D26*
X69000Y-48500D03*
G54D25*
X68000Y-48500D03*
X67000Y-48500D03*
G54D27*
X65472Y-39900D03*
X65000Y-39900D03*
X64528Y-39900D03*
G54D28*
X64300Y-36528D03*
X64300Y-37000D03*
X64300Y-37472D03*
M02*
