G04 (created by PCBNEW-RS274X (2012-01-19 BZR 3256)-stable) date 12/5/2012 8:15:46 PM*
G01*
G70*
G90*
%MOIN*%
G04 Gerber Fmt 3.4, Leading zero omitted, Abs format*
%FSLAX34Y34*%
G04 APERTURE LIST*
%ADD10C,0.006000*%
%ADD11C,0.012000*%
%ADD12C,0.005000*%
%ADD13C,0.010000*%
%ADD14C,0.004000*%
G04 APERTURE END LIST*
G54D10*
G54D11*
X71114Y-39786D02*
X71200Y-39824D01*
X71343Y-39824D01*
X71400Y-39786D01*
X71429Y-39748D01*
X71457Y-39671D01*
X71457Y-39595D01*
X71429Y-39519D01*
X71400Y-39481D01*
X71343Y-39443D01*
X71229Y-39405D01*
X71171Y-39367D01*
X71143Y-39329D01*
X71114Y-39252D01*
X71114Y-39176D01*
X71143Y-39100D01*
X71171Y-39062D01*
X71229Y-39024D01*
X71371Y-39024D01*
X71457Y-39062D01*
X71714Y-39824D02*
X71714Y-39024D01*
X72286Y-39824D02*
X72000Y-39824D01*
X72000Y-39024D01*
X72486Y-39824D02*
X72486Y-39024D01*
X72829Y-39824D02*
X72572Y-39367D01*
X72829Y-39024D02*
X72486Y-39481D01*
X73743Y-39405D02*
X73829Y-39443D01*
X73857Y-39481D01*
X73886Y-39557D01*
X73886Y-39671D01*
X73857Y-39748D01*
X73829Y-39786D01*
X73771Y-39824D01*
X73543Y-39824D01*
X73543Y-39024D01*
X73743Y-39024D01*
X73800Y-39062D01*
X73829Y-39100D01*
X73857Y-39176D01*
X73857Y-39252D01*
X73829Y-39329D01*
X73800Y-39367D01*
X73743Y-39405D01*
X73543Y-39405D01*
X74257Y-39024D02*
X74371Y-39024D01*
X74429Y-39062D01*
X74486Y-39138D01*
X74514Y-39290D01*
X74514Y-39557D01*
X74486Y-39710D01*
X74429Y-39786D01*
X74371Y-39824D01*
X74257Y-39824D01*
X74200Y-39786D01*
X74143Y-39710D01*
X74114Y-39557D01*
X74114Y-39290D01*
X74143Y-39138D01*
X74200Y-39062D01*
X74257Y-39024D01*
X74686Y-39024D02*
X75029Y-39024D01*
X74858Y-39824D02*
X74858Y-39024D01*
X75143Y-39024D02*
X75486Y-39024D01*
X75315Y-39824D02*
X75315Y-39024D01*
X75800Y-39024D02*
X75914Y-39024D01*
X75972Y-39062D01*
X76029Y-39138D01*
X76057Y-39290D01*
X76057Y-39557D01*
X76029Y-39710D01*
X75972Y-39786D01*
X75914Y-39824D01*
X75800Y-39824D01*
X75743Y-39786D01*
X75686Y-39710D01*
X75657Y-39557D01*
X75657Y-39290D01*
X75686Y-39138D01*
X75743Y-39062D01*
X75800Y-39024D01*
X76315Y-39824D02*
X76315Y-39024D01*
X76515Y-39595D01*
X76715Y-39024D01*
X76715Y-39824D01*
G54D12*
X65450Y-39650D02*
X64550Y-39650D01*
X64550Y-39650D02*
X64550Y-40150D01*
X64550Y-40150D02*
X65450Y-40150D01*
X65450Y-40150D02*
X65450Y-39650D01*
X66850Y-38750D02*
X67750Y-38750D01*
X67750Y-38750D02*
X67750Y-38250D01*
X67750Y-38250D02*
X66850Y-38250D01*
X66850Y-38250D02*
X66850Y-38750D01*
X66650Y-31650D02*
X66650Y-30750D01*
X66650Y-30750D02*
X66150Y-30750D01*
X66150Y-30750D02*
X66150Y-31650D01*
X66150Y-31650D02*
X66650Y-31650D01*
X65650Y-31650D02*
X65650Y-30750D01*
X65650Y-30750D02*
X65150Y-30750D01*
X65150Y-30750D02*
X65150Y-31650D01*
X65150Y-31650D02*
X65650Y-31650D01*
X64050Y-36550D02*
X64050Y-37450D01*
X64050Y-37450D02*
X64550Y-37450D01*
X64550Y-37450D02*
X64550Y-36550D01*
X64550Y-36550D02*
X64050Y-36550D01*
X64450Y-45350D02*
X65350Y-45350D01*
X65350Y-45350D02*
X65350Y-44850D01*
X65350Y-44850D02*
X64450Y-44850D01*
X64450Y-44850D02*
X64450Y-45350D01*
X66850Y-42750D02*
X67750Y-42750D01*
X67750Y-42750D02*
X67750Y-42250D01*
X67750Y-42250D02*
X66850Y-42250D01*
X66850Y-42250D02*
X66850Y-42750D01*
X69250Y-34450D02*
X69250Y-33550D01*
X69250Y-33550D02*
X68750Y-33550D01*
X68750Y-33550D02*
X68750Y-34450D01*
X68750Y-34450D02*
X69250Y-34450D01*
G54D13*
X65400Y-42500D02*
X65399Y-42509D01*
X65396Y-42519D01*
X65391Y-42527D01*
X65385Y-42535D01*
X65377Y-42541D01*
X65369Y-42546D01*
X65360Y-42548D01*
X65350Y-42549D01*
X65341Y-42549D01*
X65332Y-42546D01*
X65323Y-42541D01*
X65316Y-42535D01*
X65309Y-42528D01*
X65305Y-42519D01*
X65302Y-42510D01*
X65301Y-42500D01*
X65301Y-42491D01*
X65304Y-42482D01*
X65308Y-42473D01*
X65315Y-42466D01*
X65322Y-42459D01*
X65330Y-42455D01*
X65340Y-42452D01*
X65349Y-42451D01*
X65358Y-42451D01*
X65368Y-42454D01*
X65376Y-42458D01*
X65384Y-42464D01*
X65390Y-42472D01*
X65395Y-42480D01*
X65398Y-42489D01*
X65399Y-42499D01*
X65400Y-42500D01*
X65800Y-43550D02*
X65300Y-43550D01*
X65300Y-43550D02*
X65300Y-42650D01*
X65300Y-42650D02*
X65800Y-42650D01*
X66200Y-43550D02*
X66700Y-43550D01*
X66700Y-43550D02*
X66700Y-42650D01*
X66700Y-42650D02*
X66200Y-42650D01*
X67200Y-36100D02*
X67199Y-36109D01*
X67196Y-36119D01*
X67191Y-36127D01*
X67185Y-36135D01*
X67177Y-36141D01*
X67169Y-36146D01*
X67160Y-36148D01*
X67150Y-36149D01*
X67141Y-36149D01*
X67132Y-36146D01*
X67123Y-36141D01*
X67116Y-36135D01*
X67109Y-36128D01*
X67105Y-36119D01*
X67102Y-36110D01*
X67101Y-36100D01*
X67101Y-36091D01*
X67104Y-36082D01*
X67108Y-36073D01*
X67115Y-36066D01*
X67122Y-36059D01*
X67130Y-36055D01*
X67140Y-36052D01*
X67149Y-36051D01*
X67158Y-36051D01*
X67168Y-36054D01*
X67176Y-36058D01*
X67184Y-36064D01*
X67190Y-36072D01*
X67195Y-36080D01*
X67198Y-36089D01*
X67199Y-36099D01*
X67200Y-36100D01*
X66700Y-35050D02*
X67200Y-35050D01*
X67200Y-35050D02*
X67200Y-35950D01*
X67200Y-35950D02*
X66700Y-35950D01*
X66300Y-35050D02*
X65800Y-35050D01*
X65800Y-35050D02*
X65800Y-35950D01*
X65800Y-35950D02*
X66300Y-35950D01*
X67200Y-37200D02*
X67199Y-37209D01*
X67196Y-37219D01*
X67191Y-37227D01*
X67185Y-37235D01*
X67177Y-37241D01*
X67169Y-37246D01*
X67160Y-37248D01*
X67150Y-37249D01*
X67141Y-37249D01*
X67132Y-37246D01*
X67123Y-37241D01*
X67116Y-37235D01*
X67109Y-37228D01*
X67105Y-37219D01*
X67102Y-37210D01*
X67101Y-37200D01*
X67101Y-37191D01*
X67104Y-37182D01*
X67108Y-37173D01*
X67115Y-37166D01*
X67122Y-37159D01*
X67130Y-37155D01*
X67140Y-37152D01*
X67149Y-37151D01*
X67158Y-37151D01*
X67168Y-37154D01*
X67176Y-37158D01*
X67184Y-37164D01*
X67190Y-37172D01*
X67195Y-37180D01*
X67198Y-37189D01*
X67199Y-37199D01*
X67200Y-37200D01*
X66700Y-36150D02*
X67200Y-36150D01*
X67200Y-36150D02*
X67200Y-37050D01*
X67200Y-37050D02*
X66700Y-37050D01*
X66300Y-36150D02*
X65800Y-36150D01*
X65800Y-36150D02*
X65800Y-37050D01*
X65800Y-37050D02*
X66300Y-37050D01*
G54D14*
X69000Y-38700D02*
X68700Y-38700D01*
X69000Y-39300D02*
X68700Y-39300D01*
X68000Y-38700D02*
X68300Y-38700D01*
X68000Y-39300D02*
X68300Y-39300D01*
X68000Y-39300D02*
X68000Y-38700D01*
X69000Y-38700D02*
X69000Y-39300D01*
X69000Y-42700D02*
X68700Y-42700D01*
X69000Y-43300D02*
X68700Y-43300D01*
X68000Y-42700D02*
X68300Y-42700D01*
X68000Y-43300D02*
X68300Y-43300D01*
X68000Y-43300D02*
X68000Y-42700D01*
X69000Y-42700D02*
X69000Y-43300D01*
X65750Y-34800D02*
X66050Y-34800D01*
X65750Y-34200D02*
X66050Y-34200D01*
X66750Y-34800D02*
X66450Y-34800D01*
X66750Y-34200D02*
X66450Y-34200D01*
X66750Y-34200D02*
X66750Y-34800D01*
X65750Y-34800D02*
X65750Y-34200D01*
X67600Y-35800D02*
X67600Y-36100D01*
X68200Y-35800D02*
X68200Y-36100D01*
X67600Y-36800D02*
X67600Y-36500D01*
X68200Y-36800D02*
X68200Y-36500D01*
X68200Y-36800D02*
X67600Y-36800D01*
X67600Y-35800D02*
X68200Y-35800D01*
X69500Y-34950D02*
X69200Y-34950D01*
X69500Y-35550D02*
X69200Y-35550D01*
X68500Y-34950D02*
X68800Y-34950D01*
X68500Y-35550D02*
X68800Y-35550D01*
X68500Y-35550D02*
X68500Y-34950D01*
X69500Y-34950D02*
X69500Y-35550D01*
X67700Y-34000D02*
X67700Y-34300D01*
X68300Y-34000D02*
X68300Y-34300D01*
X67700Y-35000D02*
X67700Y-34700D01*
X68300Y-35000D02*
X68300Y-34700D01*
X68300Y-35000D02*
X67700Y-35000D01*
X67700Y-34000D02*
X68300Y-34000D01*
X69500Y-35700D02*
X69200Y-35700D01*
X69500Y-36300D02*
X69200Y-36300D01*
X68500Y-35700D02*
X68800Y-35700D01*
X68500Y-36300D02*
X68800Y-36300D01*
X68500Y-36300D02*
X68500Y-35700D01*
X69500Y-35700D02*
X69500Y-36300D01*
X65115Y-39481D02*
X65175Y-39386D01*
X65218Y-39481D02*
X65218Y-39281D01*
X65150Y-39281D01*
X65132Y-39290D01*
X65124Y-39300D01*
X65115Y-39319D01*
X65115Y-39348D01*
X65124Y-39367D01*
X65132Y-39376D01*
X65150Y-39386D01*
X65218Y-39386D01*
X64944Y-39481D02*
X65047Y-39481D01*
X64995Y-39481D02*
X64995Y-39281D01*
X65012Y-39310D01*
X65030Y-39329D01*
X65047Y-39338D01*
X64884Y-39281D02*
X64773Y-39281D01*
X64833Y-39357D01*
X64807Y-39357D01*
X64790Y-39367D01*
X64781Y-39376D01*
X64773Y-39395D01*
X64773Y-39443D01*
X64781Y-39462D01*
X64790Y-39471D01*
X64807Y-39481D01*
X64859Y-39481D01*
X64876Y-39471D01*
X64884Y-39462D01*
X67415Y-39081D02*
X67475Y-38986D01*
X67518Y-39081D02*
X67518Y-38881D01*
X67450Y-38881D01*
X67432Y-38890D01*
X67424Y-38900D01*
X67415Y-38919D01*
X67415Y-38948D01*
X67424Y-38967D01*
X67432Y-38976D01*
X67450Y-38986D01*
X67518Y-38986D01*
X67244Y-39081D02*
X67347Y-39081D01*
X67295Y-39081D02*
X67295Y-38881D01*
X67312Y-38910D01*
X67330Y-38929D01*
X67347Y-38938D01*
X67090Y-38881D02*
X67124Y-38881D01*
X67141Y-38890D01*
X67150Y-38900D01*
X67167Y-38929D01*
X67176Y-38967D01*
X67176Y-39043D01*
X67167Y-39062D01*
X67159Y-39071D01*
X67141Y-39081D01*
X67107Y-39081D01*
X67090Y-39071D01*
X67081Y-39062D01*
X67073Y-39043D01*
X67073Y-38995D01*
X67081Y-38976D01*
X67090Y-38967D01*
X67107Y-38957D01*
X67141Y-38957D01*
X67159Y-38967D01*
X67167Y-38976D01*
X67176Y-38995D01*
X66429Y-30581D02*
X66489Y-30486D01*
X66532Y-30581D02*
X66532Y-30381D01*
X66464Y-30381D01*
X66446Y-30390D01*
X66438Y-30400D01*
X66429Y-30419D01*
X66429Y-30448D01*
X66438Y-30467D01*
X66446Y-30476D01*
X66464Y-30486D01*
X66532Y-30486D01*
X66258Y-30581D02*
X66361Y-30581D01*
X66309Y-30581D02*
X66309Y-30381D01*
X66326Y-30410D01*
X66344Y-30429D01*
X66361Y-30438D01*
X65429Y-30581D02*
X65489Y-30486D01*
X65532Y-30581D02*
X65532Y-30381D01*
X65464Y-30381D01*
X65446Y-30390D01*
X65438Y-30400D01*
X65429Y-30419D01*
X65429Y-30448D01*
X65438Y-30467D01*
X65446Y-30476D01*
X65464Y-30486D01*
X65532Y-30486D01*
X65361Y-30400D02*
X65352Y-30390D01*
X65335Y-30381D01*
X65292Y-30381D01*
X65275Y-30390D01*
X65266Y-30400D01*
X65258Y-30419D01*
X65258Y-30438D01*
X65266Y-30467D01*
X65369Y-30581D01*
X65258Y-30581D01*
X64329Y-37781D02*
X64389Y-37686D01*
X64432Y-37781D02*
X64432Y-37581D01*
X64364Y-37581D01*
X64346Y-37590D01*
X64338Y-37600D01*
X64329Y-37619D01*
X64329Y-37648D01*
X64338Y-37667D01*
X64346Y-37676D01*
X64364Y-37686D01*
X64432Y-37686D01*
X64269Y-37581D02*
X64149Y-37581D01*
X64226Y-37781D01*
X65015Y-44681D02*
X65075Y-44586D01*
X65118Y-44681D02*
X65118Y-44481D01*
X65050Y-44481D01*
X65032Y-44490D01*
X65024Y-44500D01*
X65015Y-44519D01*
X65015Y-44548D01*
X65024Y-44567D01*
X65032Y-44576D01*
X65050Y-44586D01*
X65118Y-44586D01*
X64844Y-44681D02*
X64947Y-44681D01*
X64895Y-44681D02*
X64895Y-44481D01*
X64912Y-44510D01*
X64930Y-44529D01*
X64947Y-44538D01*
X64673Y-44681D02*
X64776Y-44681D01*
X64724Y-44681D02*
X64724Y-44481D01*
X64741Y-44510D01*
X64759Y-44529D01*
X64776Y-44538D01*
X67415Y-42081D02*
X67475Y-41986D01*
X67518Y-42081D02*
X67518Y-41881D01*
X67450Y-41881D01*
X67432Y-41890D01*
X67424Y-41900D01*
X67415Y-41919D01*
X67415Y-41948D01*
X67424Y-41967D01*
X67432Y-41976D01*
X67450Y-41986D01*
X67518Y-41986D01*
X67244Y-42081D02*
X67347Y-42081D01*
X67295Y-42081D02*
X67295Y-41881D01*
X67312Y-41910D01*
X67330Y-41929D01*
X67347Y-41938D01*
X67081Y-41881D02*
X67167Y-41881D01*
X67176Y-41976D01*
X67167Y-41967D01*
X67150Y-41957D01*
X67107Y-41957D01*
X67090Y-41967D01*
X67081Y-41976D01*
X67073Y-41995D01*
X67073Y-42043D01*
X67081Y-42062D01*
X67090Y-42071D01*
X67107Y-42081D01*
X67150Y-42081D01*
X67167Y-42071D01*
X67176Y-42062D01*
X69581Y-33885D02*
X69486Y-33825D01*
X69581Y-33782D02*
X69381Y-33782D01*
X69381Y-33850D01*
X69390Y-33868D01*
X69400Y-33876D01*
X69419Y-33885D01*
X69448Y-33885D01*
X69467Y-33876D01*
X69476Y-33868D01*
X69486Y-33850D01*
X69486Y-33782D01*
X69581Y-34056D02*
X69581Y-33953D01*
X69581Y-34005D02*
X69381Y-34005D01*
X69410Y-33988D01*
X69429Y-33970D01*
X69438Y-33953D01*
X69381Y-34116D02*
X69381Y-34236D01*
X69581Y-34159D01*
X66029Y-42462D02*
X66038Y-42471D01*
X66064Y-42481D01*
X66081Y-42481D01*
X66106Y-42471D01*
X66124Y-42452D01*
X66132Y-42433D01*
X66141Y-42395D01*
X66141Y-42367D01*
X66132Y-42329D01*
X66124Y-42310D01*
X66106Y-42290D01*
X66081Y-42281D01*
X66064Y-42281D01*
X66038Y-42290D01*
X66029Y-42300D01*
X65926Y-42367D02*
X65944Y-42357D01*
X65952Y-42348D01*
X65961Y-42329D01*
X65961Y-42319D01*
X65952Y-42300D01*
X65944Y-42290D01*
X65926Y-42281D01*
X65892Y-42281D01*
X65875Y-42290D01*
X65866Y-42300D01*
X65858Y-42319D01*
X65858Y-42329D01*
X65866Y-42348D01*
X65875Y-42357D01*
X65892Y-42367D01*
X65926Y-42367D01*
X65944Y-42376D01*
X65952Y-42386D01*
X65961Y-42405D01*
X65961Y-42443D01*
X65952Y-42462D01*
X65944Y-42471D01*
X65926Y-42481D01*
X65892Y-42481D01*
X65875Y-42471D01*
X65866Y-42462D01*
X65858Y-42443D01*
X65858Y-42405D01*
X65866Y-42386D01*
X65875Y-42376D01*
X65892Y-42367D01*
X65662Y-35471D02*
X65671Y-35462D01*
X65681Y-35436D01*
X65681Y-35419D01*
X65671Y-35394D01*
X65652Y-35376D01*
X65633Y-35368D01*
X65595Y-35359D01*
X65567Y-35359D01*
X65529Y-35368D01*
X65510Y-35376D01*
X65490Y-35394D01*
X65481Y-35419D01*
X65481Y-35436D01*
X65490Y-35462D01*
X65500Y-35471D01*
X65481Y-35531D02*
X65481Y-35651D01*
X65681Y-35574D01*
X65662Y-36571D02*
X65671Y-36562D01*
X65681Y-36536D01*
X65681Y-36519D01*
X65671Y-36494D01*
X65652Y-36476D01*
X65633Y-36468D01*
X65595Y-36459D01*
X65567Y-36459D01*
X65529Y-36468D01*
X65510Y-36476D01*
X65490Y-36494D01*
X65481Y-36519D01*
X65481Y-36536D01*
X65490Y-36562D01*
X65500Y-36571D01*
X65548Y-36725D02*
X65681Y-36725D01*
X65471Y-36682D02*
X65614Y-36639D01*
X65614Y-36751D01*
X68615Y-39562D02*
X68624Y-39571D01*
X68650Y-39581D01*
X68667Y-39581D01*
X68692Y-39571D01*
X68710Y-39552D01*
X68718Y-39533D01*
X68727Y-39495D01*
X68727Y-39467D01*
X68718Y-39429D01*
X68710Y-39410D01*
X68692Y-39390D01*
X68667Y-39381D01*
X68650Y-39381D01*
X68624Y-39390D01*
X68615Y-39400D01*
X68444Y-39581D02*
X68547Y-39581D01*
X68495Y-39581D02*
X68495Y-39381D01*
X68512Y-39410D01*
X68530Y-39429D01*
X68547Y-39438D01*
X68333Y-39381D02*
X68316Y-39381D01*
X68299Y-39390D01*
X68290Y-39400D01*
X68281Y-39419D01*
X68273Y-39457D01*
X68273Y-39505D01*
X68281Y-39543D01*
X68290Y-39562D01*
X68299Y-39571D01*
X68316Y-39581D01*
X68333Y-39581D01*
X68350Y-39571D01*
X68359Y-39562D01*
X68367Y-39543D01*
X68376Y-39505D01*
X68376Y-39457D01*
X68367Y-39419D01*
X68359Y-39400D01*
X68350Y-39390D01*
X68333Y-39381D01*
X68529Y-42562D02*
X68538Y-42571D01*
X68564Y-42581D01*
X68581Y-42581D01*
X68606Y-42571D01*
X68624Y-42552D01*
X68632Y-42533D01*
X68641Y-42495D01*
X68641Y-42467D01*
X68632Y-42429D01*
X68624Y-42410D01*
X68606Y-42390D01*
X68581Y-42381D01*
X68564Y-42381D01*
X68538Y-42390D01*
X68529Y-42400D01*
X68444Y-42581D02*
X68409Y-42581D01*
X68392Y-42571D01*
X68384Y-42562D01*
X68366Y-42533D01*
X68358Y-42495D01*
X68358Y-42419D01*
X68366Y-42400D01*
X68375Y-42390D01*
X68392Y-42381D01*
X68426Y-42381D01*
X68444Y-42390D01*
X68452Y-42400D01*
X68461Y-42419D01*
X68461Y-42467D01*
X68452Y-42486D01*
X68444Y-42495D01*
X68426Y-42505D01*
X68392Y-42505D01*
X68375Y-42495D01*
X68366Y-42486D01*
X68358Y-42467D01*
X66279Y-34062D02*
X66288Y-34071D01*
X66314Y-34081D01*
X66331Y-34081D01*
X66356Y-34071D01*
X66374Y-34052D01*
X66382Y-34033D01*
X66391Y-33995D01*
X66391Y-33967D01*
X66382Y-33929D01*
X66374Y-33910D01*
X66356Y-33890D01*
X66331Y-33881D01*
X66314Y-33881D01*
X66288Y-33890D01*
X66279Y-33900D01*
X66125Y-33881D02*
X66159Y-33881D01*
X66176Y-33890D01*
X66185Y-33900D01*
X66202Y-33929D01*
X66211Y-33967D01*
X66211Y-34043D01*
X66202Y-34062D01*
X66194Y-34071D01*
X66176Y-34081D01*
X66142Y-34081D01*
X66125Y-34071D01*
X66116Y-34062D01*
X66108Y-34043D01*
X66108Y-33995D01*
X66116Y-33976D01*
X66125Y-33967D01*
X66142Y-33957D01*
X66176Y-33957D01*
X66194Y-33967D01*
X66202Y-33976D01*
X66211Y-33995D01*
X67929Y-35662D02*
X67938Y-35671D01*
X67964Y-35681D01*
X67981Y-35681D01*
X68006Y-35671D01*
X68024Y-35652D01*
X68032Y-35633D01*
X68041Y-35595D01*
X68041Y-35567D01*
X68032Y-35529D01*
X68024Y-35510D01*
X68006Y-35490D01*
X67981Y-35481D01*
X67964Y-35481D01*
X67938Y-35490D01*
X67929Y-35500D01*
X67766Y-35481D02*
X67852Y-35481D01*
X67861Y-35576D01*
X67852Y-35567D01*
X67835Y-35557D01*
X67792Y-35557D01*
X67775Y-35567D01*
X67766Y-35576D01*
X67758Y-35595D01*
X67758Y-35643D01*
X67766Y-35662D01*
X67775Y-35671D01*
X67792Y-35681D01*
X67835Y-35681D01*
X67852Y-35671D01*
X67861Y-35662D01*
X69029Y-34862D02*
X69038Y-34871D01*
X69064Y-34881D01*
X69081Y-34881D01*
X69106Y-34871D01*
X69124Y-34852D01*
X69132Y-34833D01*
X69141Y-34795D01*
X69141Y-34767D01*
X69132Y-34729D01*
X69124Y-34710D01*
X69106Y-34690D01*
X69081Y-34681D01*
X69064Y-34681D01*
X69038Y-34690D01*
X69029Y-34700D01*
X68969Y-34681D02*
X68858Y-34681D01*
X68918Y-34757D01*
X68892Y-34757D01*
X68875Y-34767D01*
X68866Y-34776D01*
X68858Y-34795D01*
X68858Y-34843D01*
X68866Y-34862D01*
X68875Y-34871D01*
X68892Y-34881D01*
X68944Y-34881D01*
X68961Y-34871D01*
X68969Y-34862D01*
X68029Y-33862D02*
X68038Y-33871D01*
X68064Y-33881D01*
X68081Y-33881D01*
X68106Y-33871D01*
X68124Y-33852D01*
X68132Y-33833D01*
X68141Y-33795D01*
X68141Y-33767D01*
X68132Y-33729D01*
X68124Y-33710D01*
X68106Y-33690D01*
X68081Y-33681D01*
X68064Y-33681D01*
X68038Y-33690D01*
X68029Y-33700D01*
X67961Y-33700D02*
X67952Y-33690D01*
X67935Y-33681D01*
X67892Y-33681D01*
X67875Y-33690D01*
X67866Y-33700D01*
X67858Y-33719D01*
X67858Y-33738D01*
X67866Y-33767D01*
X67969Y-33881D01*
X67858Y-33881D01*
X69029Y-36562D02*
X69038Y-36571D01*
X69064Y-36581D01*
X69081Y-36581D01*
X69106Y-36571D01*
X69124Y-36552D01*
X69132Y-36533D01*
X69141Y-36495D01*
X69141Y-36467D01*
X69132Y-36429D01*
X69124Y-36410D01*
X69106Y-36390D01*
X69081Y-36381D01*
X69064Y-36381D01*
X69038Y-36390D01*
X69029Y-36400D01*
X68858Y-36581D02*
X68961Y-36581D01*
X68909Y-36581D02*
X68909Y-36381D01*
X68926Y-36410D01*
X68944Y-36429D01*
X68961Y-36438D01*
M02*
