  0
SECTION
  2
HEADER
  9
$ANGBASE
  50
0.0
  9
$ANGDIR
  70
  1
  9
$MEASUREMENT
  70
0
  0
ENDSEC
  0
SECTION
  2
TABLES
  0
TABLE
  2
LTYPE
  70
1
  0
LTYPE
  2
CONTINUOUS
  70
0
  3
Solid line
  72
65
  73
0
  40
0.0
  0
ENDTAB
  0
TABLE
  2
STYLE
  70
4
  0
STYLE
  2
KICAD
  70
0
  40
0
  41
1
  42
1
  50
0
  71
0
  3
isocp.shx
  0
STYLE
  2
KICADB
  70
0
  40
0
  41
1
  42
1
  50
0
  71
0
  3
isocp.shx
  0
STYLE
  2
KICADI
  70
0
  40
0
  41
1
  42
1
  50
15
  71
0
  3
isocp.shx
  0
STYLE
  2
KICADBI
  70
0
  40
0
  41
1
  42
1
  50
15
  71
0
  3
isocp.shx
  0
ENDTAB
  0
TABLE
  2
LAYER
  70
30
  0
LAYER
  2
BLACK
  70
0
  62
7
  6
CONTINUOUS
  0
LAYER
  2
GRAY1
  70
0
  62
251
  6
CONTINUOUS
  0
LAYER
  2
GRAY2
  70
0
  62
8
  6
CONTINUOUS
  0
LAYER
  2
GRAY3
  70
0
  62
9
  6
CONTINUOUS
  0
LAYER
  2
WHITE
  70
0
  62
7
  6
CONTINUOUS
  0
LAYER
  2
LYELLOW
  70
0
  62
51
  6
CONTINUOUS
  0
LAYER
  2
BLUE1
  70
0
  62
178
  6
CONTINUOUS
  0
LAYER
  2
GREEN1
  70
0
  62
98
  6
CONTINUOUS
  0
LAYER
  2
CYAN1
  70
0
  62
138
  6
CONTINUOUS
  0
LAYER
  2
RED1
  70
0
  62
18
  6
CONTINUOUS
  0
LAYER
  2
MAGENTA1
  70
0
  62
228
  6
CONTINUOUS
  0
LAYER
  2
BROWN1
  70
0
  62
58
  6
CONTINUOUS
  0
LAYER
  2
BLUE2
  70
0
  62
5
  6
CONTINUOUS
  0
LAYER
  2
GREEN2
  70
0
  62
3
  6
CONTINUOUS
  0
LAYER
  2
CYAN2
  70
0
  62
4
  6
CONTINUOUS
  0
LAYER
  2
RED2
  70
0
  62
1
  6
CONTINUOUS
  0
LAYER
  2
MAGENTA2
  70
0
  62
6
  6
CONTINUOUS
  0
LAYER
  2
BROWN2
  70
0
  62
54
  6
CONTINUOUS
  0
LAYER
  2
BLUE3
  70
0
  62
171
  6
CONTINUOUS
  0
LAYER
  2
GREEN3
  70
0
  62
91
  6
CONTINUOUS
  0
LAYER
  2
CYAN3
  70
0
  62
131
  6
CONTINUOUS
  0
LAYER
  2
RED3
  70
0
  62
11
  6
CONTINUOUS
  0
LAYER
  2
MAGENTA3
  70
0
  62
221
  6
CONTINUOUS
  0
LAYER
  2
YELLOW3
  70
0
  62
2
  6
CONTINUOUS
  0
LAYER
  2
BLUE4
  70
0
  62
5
  6
CONTINUOUS
  0
LAYER
  2
GREEN4
  70
0
  62
3
  6
CONTINUOUS
  0
LAYER
  2
CYAN4
  70
0
  62
4
  6
CONTINUOUS
  0
LAYER
  2
RED4
  70
0
  62
1
  6
CONTINUOUS
  0
LAYER
  2
MAGENTA4
  70
0
  62
6
  6
CONTINUOUS
  0
LAYER
  2
YELLOW4
  70
0
  62
2
  6
CONTINUOUS
  0
ENDTAB
  0
ENDSEC
  0
SECTION
  2
ENTITIES
0
LINE
8
Red 2
10
159.385
20
-171.882
11
159.385
21
-203.886
0
LINE
8
Red 2
10
159.385
20
-203.886
11
267.386
21
-203.886
0
LINE
8
Red 2
10
267.386
20
-203.886
11
267.386
21
-171.882
0
LINE
8
Red 2
10
267.386
20
-171.882
11
159.385
21
-171.882
0
LINE
8
Red 2
10
9.9822
20
-9.9822
11
9.9822
21
-205.892
0
LINE
8
Red 2
10
9.9822
20
-205.892
11
269.392
21
-205.892
0
LINE
8
Red 2
10
269.392
20
-205.892
11
269.392
21
-9.9822
0
LINE
8
Red 2
10
269.392
20
-9.9822
11
9.9822
21
-9.9822
0
LINE
8
Red 2
10
11.9888
20
-11.9888
11
11.9888
21
-203.886
0
LINE
8
Red 2
10
11.9888
20
-203.886
11
267.386
21
-203.886
0
LINE
8
Red 2
10
267.386
20
-203.886
11
267.386
21
-11.9888
0
LINE
8
Red 2
10
267.386
20
-11.9888
11
11.9888
21
-11.9888
0
LINE
8
Red 2
10
59.9948
20
-11.9888
11
59.9948
21
-9.9822
0
LINE
8
Red 2
10
109.982
20
-11.9888
11
109.982
21
-9.9822
0
LINE
8
Red 2
10
159.995
20
-11.9888
11
159.995
21
-9.9822
0
LINE
8
Red 2
10
209.982
20
-11.9888
11
209.982
21
-9.9822
0
LINE
8
Red 2
10
259.994
20
-11.9888
11
259.994
21
-9.9822
  0
TEXT
  7
KICAD
  8
Red 2
  10
34.9758
  11
34.9758
  20
-10.9982
  21
-10.9982
  40
1.2954
  41
1
  50
0
  51
0
  71
0
  72
0
  73
2
  1
1
  0
TEXT
  7
KICAD
  8
Red 2
  10
84.9884
  11
84.9884
  20
-10.9982
  21
-10.9982
  40
1.2954
  41
1
  50
0
  51
0
  71
0
  72
0
  73
2
  1
2
  0
TEXT
  7
KICAD
  8
Red 2
  10
134.976
  11
134.976
  20
-10.9982
  21
-10.9982
  40
1.2954
  41
1
  50
0
  51
0
  71
0
  72
0
  73
2
  1
3
  0
TEXT
  7
KICAD
  8
Red 2
  10
184.988
  11
184.988
  20
-10.9982
  21
-10.9982
  40
1.2954
  41
1
  50
0
  51
0
  71
0
  72
0
  73
2
  1
4
  0
TEXT
  7
KICAD
  8
Red 2
  10
234.975
  11
234.975
  20
-10.9982
  21
-10.9982
  40
1.2954
  41
1
  50
0
  51
0
  71
0
  72
0
  73
2
  1
5
0
LINE
8
Red 2
10
59.9948
20
-203.886
11
59.9948
21
-205.892
0
LINE
8
Red 2
10
109.982
20
-203.886
11
109.982
21
-205.892
0
LINE
8
Red 2
10
159.995
20
-203.886
11
159.995
21
-205.892
0
LINE
8
Red 2
10
209.982
20
-203.886
11
209.982
21
-205.892
0
LINE
8
Red 2
10
259.994
20
-203.886
11
259.994
21
-205.892
  0
TEXT
  7
KICAD
  8
Red 2
  10
34.9758
  11
34.9758
  20
-204.876
  21
-204.876
  40
1.2954
  41
1
  50
0
  51
0
  71
0
  72
0
  73
2
  1
1
  0
TEXT
  7
KICAD
  8
Red 2
  10
84.9884
  11
84.9884
  20
-204.876
  21
-204.876
  40
1.2954
  41
1
  50
0
  51
0
  71
0
  72
0
  73
2
  1
2
  0
TEXT
  7
KICAD
  8
Red 2
  10
134.976
  11
134.976
  20
-204.876
  21
-204.876
  40
1.2954
  41
1
  50
0
  51
0
  71
0
  72
0
  73
2
  1
3
  0
TEXT
  7
KICAD
  8
Red 2
  10
184.988
  11
184.988
  20
-204.876
  21
-204.876
  40
1.2954
  41
1
  50
0
  51
0
  71
0
  72
0
  73
2
  1
4
  0
TEXT
  7
KICAD
  8
Red 2
  10
234.975
  11
234.975
  20
-204.876
  21
-204.876
  40
1.2954
  41
1
  50
0
  51
0
  71
0
  72
0
  73
2
  1
5
0
LINE
8
Red 2
10
9.9822
20
-59.9948
11
11.9888
21
-59.9948
0
LINE
8
Red 2
10
9.9822
20
-109.982
11
11.9888
21
-109.982
0
LINE
8
Red 2
10
9.9822
20
-159.995
11
11.9888
21
-159.995
  0
TEXT
  7
KICAD
  8
Red 2
  10
10.9982
  11
10.9982
  20
-34.9758
  21
-34.9758
  40
1.2954
  41
1
  50
0
  51
0
  71
0
  72
1
  73
2
  1
A
  0
TEXT
  7
KICAD
  8
Red 2
  10
10.9982
  11
10.9982
  20
-84.9884
  21
-84.9884
  40
1.2954
  41
1
  50
0
  51
0
  71
0
  72
1
  73
2
  1
B
  0
TEXT
  7
KICAD
  8
Red 2
  10
10.9982
  11
10.9982
  20
-134.976
  21
-134.976
  40
1.2954
  41
1
  50
0
  51
0
  71
0
  72
1
  73
2
  1
C
  0
TEXT
  7
KICAD
  8
Red 2
  10
10.9982
  11
10.9982
  20
-184.988
  21
-184.988
  40
1.2954
  41
1
  50
0
  51
0
  71
0
  72
1
  73
2
  1
D
0
LINE
8
Red 2
10
269.392
20
-59.9948
11
267.386
21
-59.9948
0
LINE
8
Red 2
10
269.392
20
-109.982
11
267.386
21
-109.982
0
LINE
8
Red 2
10
269.392
20
-159.995
11
267.386
21
-159.995
  0
TEXT
  7
KICAD
  8
Red 2
  10
268.376
  11
268.376
  20
-34.9758
  21
-34.9758
  40
1.2954
  41
1
  50
0
  51
0
  71
0
  72
1
  73
2
  1
A
  0
TEXT
  7
KICAD
  8
Red 2
  10
268.376
  11
268.376
  20
-84.9884
  21
-84.9884
  40
1.2954
  41
1
  50
0
  51
0
  71
0
  72
1
  73
2
  1
B
  0
TEXT
  7
KICAD
  8
Red 2
  10
268.376
  11
268.376
  20
-134.976
  21
-134.976
  40
1.2954
  41
1
  50
0
  51
0
  71
0
  72
1
  73
2
  1
C
  0
TEXT
  7
KICAD
  8
Red 2
  10
268.376
  11
268.376
  20
-184.988
  21
-184.988
  40
1.2954
  41
1
  50
0
  51
0
  71
0
  72
1
  73
2
  1
D
  0
TEXT
  7
KICAD
  8
Red 2
  10
182.397
  11
182.397
  20
-198.984
  21
-198.984
  40
1.4986
  41
1
  50
0
  51
0
  71
0
  72
0
  73
2
  1
Date: Saturday, August 23, 2014
0
LINE
8
Red 2
10
159.385
20
-200.381
11
267.386
21
-200.381
  0
TEXT
  7
KICAD
  8
Red 2
  10
160.376
  11
160.376
  20
-201.778
  21
-201.778
  40
1.4986
  41
1
  50
0
  51
0
  71
0
  72
0
  73
2
  1
KiCad E.D.A.  eeschema (2013-09-13 BZR 4316)-product
0
LINE
8
Red 2
10
159.385
20
-197.383
11
267.386
21
-197.383
  0
TEXT
  7
KICADB
  8
Red 2
  10
245.389
  11
245.389
  20
-198.984
  21
-198.984
  40
1.4986
  41
1
  50
0
  51
0
  71
0
  72
0
  73
2
  1
Rev: 4
  0
TEXT
  7
KICAD
  8
Red 2
  10
160.376
  11
160.376
  20
-198.984
  21
-198.984
  40
1.4986
  41
1
  50
0
  51
0
  71
0
  72
0
  73
2
  1
Size: A
  0
TEXT
  7
KICAD
  8
Red 2
  10
245.389
  11
245.389
  20
-201.778
  21
-201.778
  40
1.4986
  41
1
  50
0
  51
0
  71
0
  72
0
  73
2
  1
Id: 1/1
0
LINE
8
Red 2
10
159.385
20
-193.396
11
267.386
21
-193.396
  0
TEXT
  7
KICADBI
  8
Red 2
  10
160.376
  11
160.376
  20
-195.199
  21
-195.199
  40
2.0066
  41
1
  50
0
  51
15
  71
0
  72
0
  73
2
  1
Title: MSP430AFE253 Demo Board
  0
TEXT
  7
KICAD
  8
Red 2
  10
160.376
  11
160.376
  20
-191.592
  21
-191.592
  40
1.4986
  41
1
  50
0
  51
0
  71
0
  72
0
  73
2
  1
File: MSP430AFE253_Demo_Board.sch
0
LINE
8
Red 2
10
159.385
20
-187.376
11
267.386
21
-187.376
  0
TEXT
  7
KICAD
  8
Red 2
  10
160.376
  11
160.376
  20
-188.9
  21
-188.9
  40
1.4986
  41
1
  50
0
  51
0
  71
0
  72
0
  73
2
  1
Sheet: /
  0
TEXT
  7
KICADB
  8
Red 2
  10
160.376
  11
160.376
  20
-185.877
  21
-185.877
  40
1.4986
  41
1
  50
0
  51
0
  71
0
  72
0
  73
2
  1
Casco Logix
0
LINE
8
Red 2
10
179.375
20
-197.383
11
179.375
21
-200.381
0
LINE
8
Red 2
10
243.383
20
-197.383
11
243.383
21
-203.886
0
LINE
8
Blue 2
10
48.9204
20
-28.6004
11
50.1396
21
-29.8196
0
LINE
8
Blue 2
10
50.1396
20
-28.6004
11
48.9204
21
-29.8196
  0
TEXT
  7
KICAD
  8
Blue 3
  10
173.355
  11
173.355
  20
-104.521
  21
-104.521
  40
1.016
  41
1
  50
0
  51
0
  71
0
  72
0
  73
1
  1
GND
  0
TEXT
  7
KICAD
  8
Blue 3
  10
173.355
  11
173.355
  20
-101.981
  21
-101.981
  40
1.016
  41
1
  50
0
  51
0
  71
0
  72
0
  73
1
  1
SBWTCK
  0
TEXT
  7
KICAD
  8
Blue 3
  10
173.355
  11
173.355
  20
-99.441
  21
-99.441
  40
1.016
  41
1
  50
0
  51
0
  71
0
  72
0
  73
1
  1
SBWTDIO
  0
TEXT
  7
KICAD
  8
Blue 3
  10
173.355
  11
173.355
  20
-96.901
  21
-96.901
  40
1.016
  41
1
  50
0
  51
0
  71
0
  72
0
  73
1
  1
VCC
0
CIRCLE
8
Red 2
10
165.1
20
-90.17
40
0.508
0
LINE
8
Red 2
10
165.1
20
-91.44
11
165.1
21
-90.678
  0
TEXT
  7
KICAD
  8
Cyan 2
  10
165.1
  11
165.1
  20
-88.8238
  21
-88.8238
  40
1.016
  41
1
  50
0
  51
0
  71
0
  72
1
  73
2
  1
VCC
0
LINE
8
Red 2
10
163.83
20
-128.27
11
165.1
21
-129.54
0
LINE
8
Red 2
10
165.1
20
-129.54
11
166.37
21
-128.27
0
LINE
8
Red 2
10
166.37
20
-128.27
11
163.83
21
-128.27
0
LINE
8
Red 2
10
170.18
20
-95.25
11
170.18
21
-105.41
0
LINE
8
Red 2
10
170.18
20
-105.41
11
172.72
21
-105.41
0
LINE
8
Red 2
10
172.72
20
-105.41
11
172.72
21
-95.25
0
LINE
8
Red 2
10
172.72
20
-95.25
11
170.18
21
-95.25
0
LINE
8
Red 2
10
170.18
20
-96.52
11
167.64
21
-96.52
  0
TEXT
  7
KICAD
  8
Red 2
  10
168.91
  11
168.91
  20
-96.266
  21
-96.266
  40
1.016
  41
1
  50
0
  51
0
  71
0
  72
1
  73
1
  1
1
0
LINE
8
Red 2
10
170.18
20
-99.06
11
167.64
21
-99.06
  0
TEXT
  7
KICAD
  8
Red 2
  10
168.91
  11
168.91
  20
-98.806
  21
-98.806
  40
1.016
  41
1
  50
0
  51
0
  71
0
  72
1
  73
1
  1
2
0
LINE
8
Red 2
10
170.18
20
-101.6
11
167.64
21
-101.6
  0
TEXT
  7
KICAD
  8
Red 2
  10
168.91
  11
168.91
  20
-101.346
  21
-101.346
  40
1.016
  41
1
  50
0
  51
0
  71
0
  72
1
  73
1
  1
3
0
LINE
8
Red 2
10
170.18
20
-104.14
11
167.64
21
-104.14
  0
TEXT
  7
KICAD
  8
Red 2
  10
168.91
  11
168.91
  20
-103.886
  21
-103.886
  40
1.016
  41
1
  50
0
  51
0
  71
0
  72
1
  73
1
  1
4
  0
TEXT
  7
KICAD
  8
Cyan 2
  10
171.45
  11
171.45
  20
-93.9038
  21
-93.9038
  40
1.016
  41
1
  50
0
  51
0
  71
0
  72
1
  73
2
  1
P3
  0
TEXT
  7
KICAD
  8
Cyan 2
  10
171.374
  11
171.374
  20
-100.33
  21
-100.33
  40
1.016
  41
1
  50
90
  51
0
  71
0
  72
1
  73
2
  1
HEADER_1X4
0
LINE
8
Red 2
10
78.74
20
-32.258
11
81.28
21
-32.258
0
LINE
8
Red 2
10
78.74
20
-31.242
11
81.28
21
-31.242
0
LINE
8
Red 2
10
80.01
20
-32.258
11
80.01
21
-33.02
0
LINE
8
Red 2
10
80.01
20
-31.242
11
80.01
21
-30.48
0
LINE
8
Red 2
10
80.01
20
-30.48
11
80.01
21
-29.21
  0
TEXT
  7
KICAD
  8
Cyan 2
  10
80.01
  11
80.01
  20
-30.734
  21
-30.734
  40
1.016
  41
1
  50
90
  51
0
  71
0
  72
2
  73
2
  1
%%O
0
LINE
8
Red 2
10
80.01
20
-33.02
11
80.01
21
-34.29
  0
TEXT
  7
KICAD
  8
Cyan 2
  10
80.01
  11
80.01
  20
-32.766
  21
-32.766
  40
1.016
  41
1
  50
90
  51
0
  71
0
  72
0
  73
2
  1
%%O
  0
TEXT
  7
KICAD
  8
Cyan 2
  10
81.5086
  11
81.5086
  20
-29.8958
  21
-29.8958
  40
1.016
  41
1
  50
0
  51
0
  71
0
  72
1
  73
2
  1
C6
  0
TEXT
  7
KICAD
  8
Cyan 2
  10
82.169
  11
82.169
  20
-33.4518
  21
-33.4518
  40
1.016
  41
1
  50
0
  51
0
  71
0
  72
1
  73
2
  1
0.1u
0
LINE
8
Red 2
10
34.29
20
-38.608
11
36.83
21
-38.608
0
LINE
8
Red 2
10
34.29
20
-37.592
11
36.83
21
-37.592
0
LINE
8
Red 2
10
35.56
20
-38.608
11
35.56
21
-39.37
0
LINE
8
Red 2
10
35.56
20
-37.592
11
35.56
21
-36.83
0
LINE
8
Red 2
10
35.56
20
-36.83
11
35.56
21
-35.56
  0
TEXT
  7
KICAD
  8
Cyan 2
  10
35.56
  11
35.56
  20
-37.084
  21
-37.084
  40
1.016
  41
1
  50
90
  51
0
  71
0
  72
2
  73
2
  1
%%O
0
LINE
8
Red 2
10
35.56
20
-39.37
11
35.56
21
-40.64
  0
TEXT
  7
KICAD
  8
Cyan 2
  10
35.56
  11
35.56
  20
-39.116
  21
-39.116
  40
1.016
  41
1
  50
90
  51
0
  71
0
  72
0
  73
2
  1
%%O
  0
TEXT
  7
KICAD
  8
Cyan 2
  10
37.0586
  11
37.0586
  20
-36.2458
  21
-36.2458
  40
1.016
  41
1
  50
0
  51
0
  71
0
  72
1
  73
2
  1
C5
  0
TEXT
  7
KICAD
  8
Cyan 2
  10
37.719
  11
37.719
  20
-39.8018
  21
-39.8018
  40
1.016
  41
1
  50
0
  51
0
  71
0
  72
1
  73
2
  1
0.1u
0
LINE
8
Red 2
10
34.29
20
-43.18
11
35.56
21
-44.45
0
LINE
8
Red 2
10
35.56
20
-44.45
11
36.83
21
-43.18
0
LINE
8
Red 2
10
36.83
20
-43.18
11
34.29
21
-43.18
0
ARC
8
Red 2
10
44.958
20
-23.622
40
0.508
50
-360
51
-270
0
ARC
8
Red 2
10
44.958
20
-22.606
40
0.508
50
-180
51
-90
0
ARC
8
Red 2
10
44.958
20
-22.098
40
0.508
50
-270
51
-180
0
ARC
8
Red 2
10
45.974
20
-23.622
40
0.508
50
-180
51
-90
0
ARC
8
Red 2
10
50.546
20
-23.622
40
0.508
50
-89.8
51
-0.2
0
ARC
8
Red 2
10
51.562
20
-23.622
40
0.508
50
-270
51
-180
0
ARC
8
Red 2
10
51.562
20
-22.606
40
0.508
50
-89.8
51
-0.2
0
ARC
8
Red 2
10
51.562
20
-22.098
40
0.508
50
-270
51
-180
0
LINE
8
Red 2
10
46.228
20
-22.606
11
46.228
21
-23.368
0
LINE
8
Red 2
10
46.228
20
-23.368
11
50.292
21
-23.368
0
LINE
8
Red 2
10
50.292
20
-23.368
11
50.292
21
-22.606
0
LINE
8
Red 2
10
50.292
20
-22.606
11
46.228
21
-22.606
0
LINE
8
Red 2
10
44.45
20
-22.098
11
44.45
21
-22.606
0
LINE
8
Red 2
10
44.958
20
-21.59
11
51.562
21
-21.59
0
LINE
8
Red 2
10
45.974
20
-24.13
11
50.546
21
-24.13
0
LINE
8
Red 2
10
52.07
20
-22.098
11
52.07
21
-22.606
0
LINE
8
Red 2
10
45.72
20
-24.13
11
45.72
21
-29.21
0
LINE
8
Red 2
10
46.99
20
-24.13
11
46.99
21
-29.21
0
LINE
8
Red 2
10
48.26
20
-24.13
11
48.26
21
-29.21
0
LINE
8
Red 2
10
49.53
20
-24.13
11
49.53
21
-29.21
0
LINE
8
Red 2
10
50.8
20
-24.13
11
50.8
21
-29.21
0
LINE
8
Red 2
10
50.8
20
-24.13
11
50.8
21
-29.21
0
LINE
8
Red 2
10
50.8
20
-24.13
11
50.8
21
-29.21
0
LINE
8
Red 2
10
50.8
20
-24.13
11
50.8
21
-29.21
0
LINE
8
Red 2
10
50.8
20
-24.13
11
50.8
21
-29.21
  0
TEXT
  7
KICAD
  8
Cyan 2
  10
46.228
  11
46.228
  20
-20.6248
  21
-20.6248
  40
1.016
  41
1
  50
0
  51
0
  71
0
  72
1
  73
2
  1
J1
0
LINE
8
Red 2
10
238.76
20
-99.06
11
240.03
21
-100.33
0
LINE
8
Red 2
10
240.03
20
-100.33
11
241.3
21
-99.06
0
LINE
8
Red 2
10
241.3
20
-99.06
11
238.76
21
-99.06
  0
TEXT
  7
KICAD
  8
Blue 3
  10
158.75
  11
158.75
  20
-114.046
  21
-114.046
  40
1.016
  41
1
  50
0
  51
0
  71
0
  72
0
  73
1
  1
RESET
0
LINE
8
Red 2
10
190.5
20
-139.7
11
191.77
21
-140.97
0
LINE
8
Red 2
10
191.77
20
-140.97
11
193.04
21
-139.7
0
LINE
8
Red 2
10
193.04
20
-139.7
11
190.5
21
-139.7
  0
TEXT
  7
KICAD
  8
Red 2
  10
186.69
  11
186.69
  20
-116.154
  21
-116.154
  40
1.016
  41
1
  50
90
  51
0
  71
0
  72
0
  73
2
  1
XT2IN
0
LINE
8
Red 2
10
186.69
20
-116.84
11
187.655
21
-116.332
0
LINE
8
Red 2
10
187.655
20
-116.332
11
187.655
21
-111.328
0
LINE
8
Red 2
10
187.655
20
-111.328
11
186.69
21
-111.328
0
LINE
8
Red 2
10
186.69
20
-111.328
11
185.725
21
-111.328
0
LINE
8
Red 2
10
185.725
20
-111.328
11
185.725
21
-116.332
0
LINE
8
Red 2
10
185.725
20
-116.332
11
186.69
21
-116.84
  0
TEXT
  7
KICAD
  8
Red 2
  10
196.85
  11
196.85
  20
-116.154
  21
-116.154
  40
1.016
  41
1
  50
90
  51
0
  71
0
  72
0
  73
2
  1
XT2OUT
0
LINE
8
Red 2
10
196.85
20
-116.84
11
197.815
21
-116.332
0
LINE
8
Red 2
10
197.815
20
-116.332
11
197.815
21
-109.982
0
LINE
8
Red 2
10
197.815
20
-109.982
11
196.85
21
-109.982
0
LINE
8
Red 2
10
196.85
20
-109.982
11
195.885
21
-109.982
0
LINE
8
Red 2
10
195.885
20
-109.982
11
195.885
21
-116.332
0
LINE
8
Red 2
10
195.885
20
-116.332
11
196.85
21
-116.84
0
LINE
8
Red 2
10
190.246
20
-127
11
190.5
21
-126.492
0
LINE
8
Red 2
10
190.5
20
-126.492
11
191.008
21
-127.508
0
LINE
8
Red 2
10
191.008
20
-127.508
11
191.516
21
-126.492
0
LINE
8
Red 2
10
191.516
20
-126.492
11
192.024
21
-127.508
0
LINE
8
Red 2
10
192.024
20
-127.508
11
192.532
21
-126.492
0
LINE
8
Red 2
10
192.532
20
-126.492
11
193.04
21
-127.508
0
LINE
8
Red 2
10
193.04
20
-127.508
11
193.294
21
-127
0
LINE
8
Red 2
10
190.246
20
-127
11
189.23
21
-127
  0
TEXT
  7
KICAD
  8
Cyan 2
  10
189.738
  11
189.738
  20
-126.746
  21
-126.746
  40
1.524
  41
1
  50
0
  51
0
  71
0
  72
1
  73
1
  1
%%O
0
LINE
8
Red 2
10
193.294
20
-127
11
194.31
21
-127
  0
TEXT
  7
KICAD
  8
Cyan 2
  10
193.802
  11
193.802
  20
-126.746
  21
-126.746
  40
1.524
  41
1
  50
0
  51
0
  71
0
  72
1
  73
1
  1
%%O
  0
TEXT
  7
KICAD
  8
Cyan 2
  10
191.77
  11
191.77
  20
-125.654
  21
-125.654
  40
1.016
  41
1
  50
0
  51
0
  71
0
  72
1
  73
2
  1
R13
  0
TEXT
  7
KICAD
  8
Cyan 2
  10
191.77
  11
191.77
  20
-128.194
  21
-128.194
  40
1.016
  41
1
  50
0
  51
0
  71
0
  72
1
  73
2
  1
1M
0
LINE
8
Red 2
10
186.69
20
-123.444
11
186.182
21
-123.19
0
LINE
8
Red 2
10
186.182
20
-123.19
11
187.198
21
-122.682
0
LINE
8
Red 2
10
187.198
20
-122.682
11
186.182
21
-122.174
0
LINE
8
Red 2
10
186.182
20
-122.174
11
187.198
21
-121.666
0
LINE
8
Red 2
10
187.198
20
-121.666
11
186.182
21
-121.158
0
LINE
8
Red 2
10
186.182
20
-121.158
11
187.198
21
-120.65
0
LINE
8
Red 2
10
187.198
20
-120.65
11
186.69
21
-120.396
0
LINE
8
Red 2
10
186.69
20
-123.444
11
186.69
21
-124.46
  0
TEXT
  7
KICAD
  8
Cyan 2
  10
186.436
  11
186.436
  20
-123.952
  21
-123.952
  40
1.524
  41
1
  50
90
  51
0
  71
0
  72
1
  73
1
  1
%%O
0
LINE
8
Red 2
10
186.69
20
-120.396
11
186.69
21
-119.38
  0
TEXT
  7
KICAD
  8
Cyan 2
  10
186.436
  11
186.436
  20
-119.888
  21
-119.888
  40
1.524
  41
1
  50
90
  51
0
  71
0
  72
1
  73
1
  1
%%O
  0
TEXT
  7
KICAD
  8
Cyan 2
  10
185.344
  11
185.344
  20
-121.92
  21
-121.92
  40
1.016
  41
1
  50
90
  51
0
  71
0
  72
1
  73
2
  1
R12
  0
TEXT
  7
KICAD
  8
Cyan 2
  10
187.884
  11
187.884
  20
-121.92
  21
-121.92
  40
1.016
  41
1
  50
90
  51
0
  71
0
  72
1
  73
2
  1
0
0
LINE
8
Red 2
10
196.85
20
-123.444
11
196.342
21
-123.19
0
LINE
8
Red 2
10
196.342
20
-123.19
11
197.358
21
-122.682
0
LINE
8
Red 2
10
197.358
20
-122.682
11
196.342
21
-122.174
0
LINE
8
Red 2
10
196.342
20
-122.174
11
197.358
21
-121.666
0
LINE
8
Red 2
10
197.358
20
-121.666
11
196.342
21
-121.158
0
LINE
8
Red 2
10
196.342
20
-121.158
11
197.358
21
-120.65
0
LINE
8
Red 2
10
197.358
20
-120.65
11
196.85
21
-120.396
0
LINE
8
Red 2
10
196.85
20
-123.444
11
196.85
21
-124.46
  0
TEXT
  7
KICAD
  8
Cyan 2
  10
196.596
  11
196.596
  20
-123.952
  21
-123.952
  40
1.524
  41
1
  50
90
  51
0
  71
0
  72
1
  73
1
  1
%%O
0
LINE
8
Red 2
10
196.85
20
-120.396
11
196.85
21
-119.38
  0
TEXT
  7
KICAD
  8
Cyan 2
  10
196.596
  11
196.596
  20
-119.888
  21
-119.888
  40
1.524
  41
1
  50
90
  51
0
  71
0
  72
1
  73
1
  1
%%O
  0
TEXT
  7
KICAD
  8
Cyan 2
  10
195.504
  11
195.504
  20
-121.92
  21
-121.92
  40
1.016
  41
1
  50
90
  51
0
  71
0
  72
1
  73
2
  1
R14
  0
TEXT
  7
KICAD
  8
Cyan 2
  10
198.044
  11
198.044
  20
-121.92
  21
-121.92
  40
1.016
  41
1
  50
90
  51
0
  71
0
  72
1
  73
2
  1
0
0
CIRCLE
8
Red 2
10
157.48
20
-90.17
40
0.508
0
LINE
8
Red 2
10
157.48
20
-91.44
11
157.48
21
-90.678
  0
TEXT
  7
KICAD
  8
Cyan 2
  10
157.48
  11
157.48
  20
-88.8238
  21
-88.8238
  40
1.016
  41
1
  50
0
  51
0
  71
0
  72
1
  73
2
  1
VCC
0
LINE
8
Red 2
10
157.48
20
-93.726
11
157.988
21
-93.98
0
LINE
8
Red 2
10
157.988
20
-93.98
11
156.972
21
-94.488
0
LINE
8
Red 2
10
156.972
20
-94.488
11
157.988
21
-94.996
0
LINE
8
Red 2
10
157.988
20
-94.996
11
156.972
21
-95.504
0
LINE
8
Red 2
10
156.972
20
-95.504
11
157.988
21
-96.012
0
LINE
8
Red 2
10
157.988
20
-96.012
11
156.972
21
-96.52
0
LINE
8
Red 2
10
156.972
20
-96.52
11
157.48
21
-96.774
0
LINE
8
Red 2
10
157.48
20
-93.726
11
157.48
21
-92.71
  0
TEXT
  7
KICAD
  8
Cyan 2
  10
157.226
  11
157.226
  20
-93.218
  21
-93.218
  40
1.524
  41
1
  50
90
  51
0
  71
0
  72
1
  73
1
  1
%%O
0
LINE
8
Red 2
10
157.48
20
-96.774
11
157.48
21
-97.79
  0
TEXT
  7
KICAD
  8
Cyan 2
  10
157.226
  11
157.226
  20
-97.282
  21
-97.282
  40
1.524
  41
1
  50
90
  51
0
  71
0
  72
1
  73
1
  1
%%O
  0
TEXT
  7
KICAD
  8
Cyan 2
  10
158.826
  11
158.826
  20
-95.25
  21
-95.25
  40
1.016
  41
1
  50
90
  51
0
  71
0
  72
1
  73
2
  1
R11
  0
TEXT
  7
KICAD
  8
Cyan 2
  10
156.286
  11
156.286
  20
-95.25
  21
-95.25
  40
1.016
  41
1
  50
90
  51
0
  71
0
  72
1
  73
2
  1
47k
0
LINE
8
Red 2
10
83.82
20
-19.05
11
83.82
21
-24.13
0
LINE
8
Red 2
10
83.82
20
-24.13
11
81.28
21
-24.13
0
LINE
8
Red 2
10
81.28
20
-24.13
11
81.28
21
-19.05
0
LINE
8
Red 2
10
81.28
20
-19.05
11
83.82
21
-19.05
0
LINE
8
Red 2
10
83.82
20
-20.32
11
86.36
21
-20.32
  0
TEXT
  7
KICAD
  8
Red 2
  10
85.09
  11
85.09
  20
-20.066
  21
-20.066
  40
1.016
  41
1
  50
0
  51
0
  71
0
  72
1
  73
1
  1
1
0
LINE
8
Red 2
10
83.82
20
-22.86
11
86.36
21
-22.86
  0
TEXT
  7
KICAD
  8
Red 2
  10
85.09
  11
85.09
  20
-22.606
  21
-22.606
  40
1.016
  41
1
  50
0
  51
0
  71
0
  72
1
  73
1
  1
2
  0
TEXT
  7
KICAD
  8
Cyan 2
  10
82.55
  11
82.55
  20
-17.7038
  21
-17.7038
  40
1.016
  41
1
  50
0
  51
0
  71
0
  72
1
  73
2
  1
P2
  0
TEXT
  7
KICAD
  8
Cyan 2
  10
78.7146
  11
78.7146
  20
-21.5138
  21
-21.5138
  40
1.016
  41
1
  50
0
  51
0
  71
0
  72
1
  73
2
  1
3.3V
0
LINE
8
Red 2
10
110.49
20
-90.424
11
109.982
21
-90.17
0
LINE
8
Red 2
10
109.982
20
-90.17
11
110.998
21
-89.662
0
LINE
8
Red 2
10
110.998
20
-89.662
11
109.982
21
-89.154
0
LINE
8
Red 2
10
109.982
20
-89.154
11
110.998
21
-88.646
0
LINE
8
Red 2
10
110.998
20
-88.646
11
109.982
21
-88.138
0
LINE
8
Red 2
10
109.982
20
-88.138
11
110.998
21
-87.63
0
LINE
8
Red 2
10
110.998
20
-87.63
11
110.49
21
-87.376
0
LINE
8
Red 2
10
110.49
20
-90.424
11
110.49
21
-91.44
  0
TEXT
  7
KICAD
  8
Cyan 2
  10
110.236
  11
110.236
  20
-90.932
  21
-90.932
  40
1.524
  41
1
  50
90
  51
0
  71
0
  72
1
  73
1
  1
%%O
0
LINE
8
Red 2
10
110.49
20
-87.376
11
110.49
21
-86.36
  0
TEXT
  7
KICAD
  8
Cyan 2
  10
110.236
  11
110.236
  20
-86.868
  21
-86.868
  40
1.524
  41
1
  50
90
  51
0
  71
0
  72
1
  73
1
  1
%%O
  0
TEXT
  7
KICAD
  8
Cyan 2
  10
109.144
  11
109.144
  20
-88.9
  21
-88.9
  40
1.016
  41
1
  50
90
  51
0
  71
0
  72
1
  73
2
  1
R2
  0
TEXT
  7
KICAD
  8
Cyan 2
  10
111.684
  11
111.684
  20
-88.9
  21
-88.9
  40
1.016
  41
1
  50
90
  51
0
  71
0
  72
1
  73
2
  1
270
0
LINE
8
Red 2
10
100.33
20
-90.424
11
99.822
21
-90.17
0
LINE
8
Red 2
10
99.822
20
-90.17
11
100.838
21
-89.662
0
LINE
8
Red 2
10
100.838
20
-89.662
11
99.822
21
-89.154
0
LINE
8
Red 2
10
99.822
20
-89.154
11
100.838
21
-88.646
0
LINE
8
Red 2
10
100.838
20
-88.646
11
99.822
21
-88.138
0
LINE
8
Red 2
10
99.822
20
-88.138
11
100.838
21
-87.63
0
LINE
8
Red 2
10
100.838
20
-87.63
11
100.33
21
-87.376
0
LINE
8
Red 2
10
100.33
20
-90.424
11
100.33
21
-91.44
  0
TEXT
  7
KICAD
  8
Cyan 2
  10
100.076
  11
100.076
  20
-90.932
  21
-90.932
  40
1.524
  41
1
  50
90
  51
0
  71
0
  72
1
  73
1
  1
%%O
0
LINE
8
Red 2
10
100.33
20
-87.376
11
100.33
21
-86.36
  0
TEXT
  7
KICAD
  8
Cyan 2
  10
100.076
  11
100.076
  20
-86.868
  21
-86.868
  40
1.524
  41
1
  50
90
  51
0
  71
0
  72
1
  73
1
  1
%%O
  0
TEXT
  7
KICAD
  8
Cyan 2
  10
98.9838
  11
98.9838
  20
-88.9
  21
-88.9
  40
1.016
  41
1
  50
90
  51
0
  71
0
  72
1
  73
2
  1
R1
  0
TEXT
  7
KICAD
  8
Cyan 2
  10
101.524
  11
101.524
  20
-88.9
  21
-88.9
  40
1.016
  41
1
  50
90
  51
0
  71
0
  72
1
  73
2
  1
270
0
LINE
8
Red 2
10
257.81
20
-87.376
11
258.318
21
-87.63
0
LINE
8
Red 2
10
258.318
20
-87.63
11
257.302
21
-88.138
0
LINE
8
Red 2
10
257.302
20
-88.138
11
258.318
21
-88.646
0
LINE
8
Red 2
10
258.318
20
-88.646
11
257.302
21
-89.154
0
LINE
8
Red 2
10
257.302
20
-89.154
11
258.318
21
-89.662
0
LINE
8
Red 2
10
258.318
20
-89.662
11
257.302
21
-90.17
0
LINE
8
Red 2
10
257.302
20
-90.17
11
257.81
21
-90.424
0
LINE
8
Red 2
10
257.81
20
-87.376
11
257.81
21
-86.36
  0
TEXT
  7
KICAD
  8
Cyan 2
  10
257.556
  11
257.556
  20
-86.868
  21
-86.868
  40
1.524
  41
1
  50
90
  51
0
  71
0
  72
1
  73
1
  1
%%O
0
LINE
8
Red 2
10
257.81
20
-90.424
11
257.81
21
-91.44
  0
TEXT
  7
KICAD
  8
Cyan 2
  10
257.556
  11
257.556
  20
-90.932
  21
-90.932
  40
1.524
  41
1
  50
90
  51
0
  71
0
  72
1
  73
1
  1
%%O
  0
TEXT
  7
KICAD
  8
Cyan 2
  10
260.35
  11
260.35
  20
-87.5538
  21
-87.5538
  40
1.016
  41
1
  50
0
  51
0
  71
0
  72
1
  73
2
  1
R17
  0
TEXT
  7
KICAD
  8
Cyan 2
  10
260.35
  11
260.35
  20
-90.0938
  21
-90.0938
  40
1.016
  41
1
  50
0
  51
0
  71
0
  72
1
  73
2
  1
750
0
LINE
8
Red 2
10
44.45
20
-46.736
11
44.958
21
-46.99
0
LINE
8
Red 2
10
44.958
20
-46.99
11
43.942
21
-47.498
0
LINE
8
Red 2
10
43.942
20
-47.498
11
44.958
21
-48.006
0
LINE
8
Red 2
10
44.958
20
-48.006
11
43.942
21
-48.514
0
LINE
8
Red 2
10
43.942
20
-48.514
11
44.958
21
-49.022
0
LINE
8
Red 2
10
44.958
20
-49.022
11
43.942
21
-49.53
0
LINE
8
Red 2
10
43.942
20
-49.53
11
44.45
21
-49.784
0
LINE
8
Red 2
10
44.45
20
-46.736
11
44.45
21
-45.72
  0
TEXT
  7
KICAD
  8
Cyan 2
  10
44.196
  11
44.196
  20
-46.228
  21
-46.228
  40
1.524
  41
1
  50
90
  51
0
  71
0
  72
1
  73
1
  1
%%O
0
LINE
8
Red 2
10
44.45
20
-49.784
11
44.45
21
-50.8
  0
TEXT
  7
KICAD
  8
Cyan 2
  10
44.196
  11
44.196
  20
-50.292
  21
-50.292
  40
1.524
  41
1
  50
90
  51
0
  71
0
  72
1
  73
1
  1
%%O
  0
TEXT
  7
KICAD
  8
Cyan 2
  10
45.7962
  11
45.7962
  20
-48.26
  21
-48.26
  40
1.016
  41
1
  50
90
  51
0
  71
0
  72
1
  73
2
  1
R10
  0
TEXT
  7
KICAD
  8
Cyan 2
  10
43.2562
  11
43.2562
  20
-48.26
  21
-48.26
  40
1.016
  41
1
  50
90
  51
0
  71
0
  72
1
  73
2
  1
33
0
LINE
8
Red 2
10
48.26
20
-46.736
11
48.768
21
-46.99
0
LINE
8
Red 2
10
48.768
20
-46.99
11
47.752
21
-47.498
0
LINE
8
Red 2
10
47.752
20
-47.498
11
48.768
21
-48.006
0
LINE
8
Red 2
10
48.768
20
-48.006
11
47.752
21
-48.514
0
LINE
8
Red 2
10
47.752
20
-48.514
11
48.768
21
-49.022
0
LINE
8
Red 2
10
48.768
20
-49.022
11
47.752
21
-49.53
0
LINE
8
Red 2
10
47.752
20
-49.53
11
48.26
21
-49.784
0
LINE
8
Red 2
10
48.26
20
-46.736
11
48.26
21
-45.72
  0
TEXT
  7
KICAD
  8
Cyan 2
  10
48.006
  11
48.006
  20
-46.228
  21
-46.228
  40
1.524
  41
1
  50
90
  51
0
  71
0
  72
1
  73
1
  1
%%O
0
LINE
8
Red 2
10
48.26
20
-49.784
11
48.26
21
-50.8
  0
TEXT
  7
KICAD
  8
Cyan 2
  10
48.006
  11
48.006
  20
-50.292
  21
-50.292
  40
1.524
  41
1
  50
90
  51
0
  71
0
  72
1
  73
1
  1
%%O
  0
TEXT
  7
KICAD
  8
Cyan 2
  10
49.6062
  11
49.6062
  20
-48.26
  21
-48.26
  40
1.016
  41
1
  50
90
  51
0
  71
0
  72
1
  73
2
  1
R9
  0
TEXT
  7
KICAD
  8
Cyan 2
  10
47.0662
  11
47.0662
  20
-48.26
  21
-48.26
  40
1.016
  41
1
  50
90
  51
0
  71
0
  72
1
  73
2
  1
33
0
LINE
8
Red 2
10
224.79
20
-134.62
11
226.06
21
-135.89
0
LINE
8
Red 2
10
226.06
20
-135.89
11
227.33
21
-134.62
0
LINE
8
Red 2
10
227.33
20
-134.62
11
224.79
21
-134.62
  0
TEXT
  7
KICAD
  8
Black
  10
227.33
  11
227.33
  20
-78.486
  21
-78.486
  40
1.016
  41
1
  50
0
  51
0
  71
0
  72
2
  73
1
  1
P2.7
  0
TEXT
  7
KICAD
  8
Black
  10
224.79
  11
224.79
  20
-75.946
  21
-75.946
  40
1.016
  41
1
  50
0
  51
0
  71
0
  72
2
  73
1
  1
P2.6
0
LINE
8
Green 2
10
218.44
20
-81.28
11
220.98
21
-78.74
0
LINE
8
Green 2
10
218.44
20
-78.74
11
220.98
21
-76.2
  0
TEXT
  7
KICAD
  8
Black
  10
228.6
  11
228.6
  20
-112.776
  21
-112.776
  40
1.524
  41
1
  50
0
  51
0
  71
0
  72
2
  73
1
  1
P1.1
  0
TEXT
  7
KICAD
  8
Black
  10
228.6
  11
228.6
  20
-115.316
  21
-115.316
  40
1.524
  41
1
  50
0
  51
0
  71
0
  72
2
  73
1
  1
P1.5
  0
TEXT
  7
KICAD
  8
Black
  10
228.6
  11
228.6
  20
-117.856
  21
-117.856
  40
1.524
  41
1
  50
0
  51
0
  71
0
  72
2
  73
1
  1
P1.6
  0
TEXT
  7
KICAD
  8
Black
  10
228.6
  11
228.6
  20
-120.396
  21
-120.396
  40
1.524
  41
1
  50
0
  51
0
  71
0
  72
2
  73
1
  1
P2.0
  0
TEXT
  7
KICAD
  8
Black
  10
228.6
  11
228.6
  20
-122.936
  21
-122.936
  40
1.524
  41
1
  50
0
  51
0
  71
0
  72
2
  73
1
  1
P2.6
  0
TEXT
  7
KICAD
  8
Black
  10
228.6
  11
228.6
  20
-125.476
  21
-125.476
  40
1.524
  41
1
  50
0
  51
0
  71
0
  72
2
  73
1
  1
P2.7
0
LINE
8
Green 2
10
218.44
20
-123.19
11
220.98
21
-125.73
0
LINE
8
Green 2
10
218.44
20
-120.65
11
220.98
21
-123.19
0
LINE
8
Green 2
10
218.44
20
-118.11
11
220.98
21
-120.65
0
LINE
8
Green 2
10
218.44
20
-115.57
11
220.98
21
-118.11
0
LINE
8
Green 2
10
218.44
20
-113.03
11
220.98
21
-115.57
0
LINE
8
Green 2
10
218.44
20
-110.49
11
220.98
21
-113.03
0
LINE
8
Green 2
10
215.9
20
-78.74
11
218.44
21
-81.28
0
LINE
8
Green 2
10
215.9
20
-76.2
11
218.44
21
-78.74
  0
TEXT
  7
KICAD
  8
Black
  10
215.9
  11
215.9
  20
-78.486
  21
-78.486
  40
1.524
  41
1
  50
0
  51
0
  71
0
  72
2
  73
1
  1
P2.7
  0
TEXT
  7
KICAD
  8
Black
  10
215.9
  11
215.9
  20
-75.946
  21
-75.946
  40
1.524
  41
1
  50
0
  51
0
  71
0
  72
2
  73
1
  1
P2.6
0
LINE
8
Green 2
10
215.9
20
-73.66
11
218.44
21
-76.2
0
LINE
8
Green 2
10
215.9
20
-71.12
11
218.44
21
-73.66
0
LINE
8
Green 2
10
215.9
20
-68.58
11
218.44
21
-71.12
0
LINE
8
Green 2
10
215.9
20
-66.04
11
218.44
21
-68.58
  0
TEXT
  7
KICAD
  8
Black
  10
215.9
  11
215.9
  20
-73.406
  21
-73.406
  40
1.524
  41
1
  50
0
  51
0
  71
0
  72
2
  73
1
  1
P2.0
  0
TEXT
  7
KICAD
  8
Black
  10
215.9
  11
215.9
  20
-70.866
  21
-70.866
  40
1.524
  41
1
  50
0
  51
0
  71
0
  72
2
  73
1
  1
P1.6
  0
TEXT
  7
KICAD
  8
Black
  10
215.9
  11
215.9
  20
-68.326
  21
-68.326
  40
1.524
  41
1
  50
0
  51
0
  71
0
  72
2
  73
1
  1
P1.5
  0
TEXT
  7
KICAD
  8
Black
  10
215.9
  11
215.9
  20
-65.786
  21
-65.786
  40
1.524
  41
1
  50
0
  51
0
  71
0
  72
2
  73
1
  1
P1.1
  0
TEXT
  7
KICAD
  8
Red 2
  10
226.06
  11
226.06
  20
-72.9742
  21
-72.9742
  40
1.016
  41
1
  50
90
  51
0
  71
0
  72
0
  73
2
  1
XT2IN
0
LINE
8
Red 2
10
226.06
20
-73.66
11
227.025
21
-73.152
0
LINE
8
Red 2
10
227.025
20
-73.152
11
227.025
21
-68.1482
0
LINE
8
Red 2
10
227.025
20
-68.1482
11
226.06
21
-68.1482
0
LINE
8
Red 2
10
226.06
20
-68.1482
11
225.095
21
-68.1482
0
LINE
8
Red 2
10
225.095
20
-68.1482
11
225.095
21
-73.152
0
LINE
8
Red 2
10
225.095
20
-73.152
11
226.06
21
-73.66
  0
TEXT
  7
KICAD
  8
Red 2
  10
228.6
  11
228.6
  20
-72.9742
  21
-72.9742
  40
1.016
  41
1
  50
90
  51
0
  71
0
  72
0
  73
2
  1
XT2OUT
0
LINE
8
Red 2
10
228.6
20
-73.66
11
229.565
21
-73.152
0
LINE
8
Red 2
10
229.565
20
-73.152
11
229.565
21
-66.802
0
LINE
8
Red 2
10
229.565
20
-66.802
11
228.6
21
-66.802
0
LINE
8
Red 2
10
228.6
20
-66.802
11
227.635
21
-66.802
0
LINE
8
Red 2
10
227.635
20
-66.802
11
227.635
21
-73.152
0
LINE
8
Red 2
10
227.635
20
-73.152
11
228.6
21
-73.66
0
LINE
8
Red 2
10
68.58
20
-77.47
11
69.85
21
-78.74
0
LINE
8
Red 2
10
69.85
20
-78.74
11
71.12
21
-77.47
0
LINE
8
Red 2
10
71.12
20
-77.47
11
68.58
21
-77.47
0
LINE
8
Red 2
10
85.09
20
-36.83
11
86.36
21
-38.1
0
LINE
8
Red 2
10
86.36
20
-38.1
11
87.63
21
-36.83
0
LINE
8
Red 2
10
87.63
20
-36.83
11
85.09
21
-36.83
0
LINE
8
Red 2
10
142.24
20
-146.05
11
143.51
21
-147.32
0
LINE
8
Red 2
10
143.51
20
-147.32
11
144.78
21
-146.05
0
LINE
8
Red 2
10
144.78
20
-146.05
11
142.24
21
-146.05
0
LINE
8
Red 2
10
135.89
20
-62.23
11
137.16
21
-63.5
0
LINE
8
Red 2
10
137.16
20
-63.5
11
138.43
21
-62.23
0
LINE
8
Red 2
10
138.43
20
-62.23
11
135.89
21
-62.23
  0
TEXT
  7
KICAD
  8
Blue 3
  10
269.494
  11
269.494
  20
-194.31
  21
-194.31
  40
1.524
  41
1
  50
0
  51
0
  71
0
  72
0
  73
1
  1
1
0
LINE
8
Red 2
10
231.14
20
-111.76
11
231.14
21
-132.08
0
LINE
8
Red 2
10
231.14
20
-132.08
11
233.68
21
-132.08
0
LINE
8
Red 2
10
233.68
20
-132.08
11
233.68
21
-111.76
0
LINE
8
Red 2
10
233.68
20
-111.76
11
231.14
21
-111.76
0
LINE
8
Red 2
10
231.14
20
-113.03
11
228.6
21
-113.03
  0
TEXT
  7
KICAD
  8
Red 2
  10
229.87
  11
229.87
  20
-112.776
  21
-112.776
  40
1.016
  41
1
  50
0
  51
0
  71
0
  72
1
  73
1
  1
1
0
LINE
8
Red 2
10
231.14
20
-115.57
11
228.6
21
-115.57
  0
TEXT
  7
KICAD
  8
Red 2
  10
229.87
  11
229.87
  20
-115.316
  21
-115.316
  40
1.016
  41
1
  50
0
  51
0
  71
0
  72
1
  73
1
  1
2
0
LINE
8
Red 2
10
231.14
20
-118.11
11
228.6
21
-118.11
  0
TEXT
  7
KICAD
  8
Red 2
  10
229.87
  11
229.87
  20
-117.856
  21
-117.856
  40
1.016
  41
1
  50
0
  51
0
  71
0
  72
1
  73
1
  1
3
0
LINE
8
Red 2
10
231.14
20
-120.65
11
228.6
21
-120.65
  0
TEXT
  7
KICAD
  8
Red 2
  10
229.87
  11
229.87
  20
-120.396
  21
-120.396
  40
1.016
  41
1
  50
0
  51
0
  71
0
  72
1
  73
1
  1
4
0
LINE
8
Red 2
10
231.14
20
-123.19
11
228.6
21
-123.19
  0
TEXT
  7
KICAD
  8
Red 2
  10
229.87
  11
229.87
  20
-122.936
  21
-122.936
  40
1.016
  41
1
  50
0
  51
0
  71
0
  72
1
  73
1
  1
5
0
LINE
8
Red 2
10
231.14
20
-125.73
11
228.6
21
-125.73
  0
TEXT
  7
KICAD
  8
Red 2
  10
229.87
  11
229.87
  20
-125.476
  21
-125.476
  40
1.016
  41
1
  50
0
  51
0
  71
0
  72
1
  73
1
  1
6
0
LINE
8
Red 2
10
231.14
20
-128.27
11
228.6
21
-128.27
  0
TEXT
  7
KICAD
  8
Red 2
  10
229.87
  11
229.87
  20
-128.016
  21
-128.016
  40
1.016
  41
1
  50
0
  51
0
  71
0
  72
1
  73
1
  1
7
0
LINE
8
Red 2
10
231.14
20
-130.81
11
228.6
21
-130.81
  0
TEXT
  7
KICAD
  8
Red 2
  10
229.87
  11
229.87
  20
-130.556
  21
-130.556
  40
1.016
  41
1
  50
0
  51
0
  71
0
  72
1
  73
1
  1
8
  0
TEXT
  7
KICAD
  8
Cyan 2
  10
232.41
  11
232.41
  20
-110.414
  21
-110.414
  40
1.016
  41
1
  50
0
  51
0
  71
0
  72
1
  73
2
  1
P6
  0
TEXT
  7
KICAD
  8
Cyan 2
  10
232.334
  11
232.334
  20
-121.92
  21
-121.92
  40
1.016
  41
1
  50
90
  51
0
  71
0
  72
1
  73
2
  1
DEBUG
0
LINE
8
Red 2
10
200.66
20
-24.13
11
200.66
21
-21.59
0
LINE
8
Red 2
10
200.66
20
-21.59
11
205.74
21
-21.59
0
LINE
8
Red 2
10
205.74
20
-21.59
11
205.74
21
-24.13
0
LINE
8
Red 2
10
205.74
20
-24.13
11
200.66
21
-24.13
0
LINE
8
Red 2
10
201.93
20
-24.13
11
201.93
21
-26.67
  0
TEXT
  7
KICAD
  8
Red 2
  10
201.676
  11
201.676
  20
-25.4
  21
-25.4
  40
1.016
  41
1
  50
90
  51
0
  71
0
  72
1
  73
1
  1
1
0
LINE
8
Red 2
10
204.47
20
-24.13
11
204.47
21
-26.67
  0
TEXT
  7
KICAD
  8
Red 2
  10
204.216
  11
204.216
  20
-25.4
  21
-25.4
  40
1.016
  41
1
  50
90
  51
0
  71
0
  72
1
  73
1
  1
2
  0
TEXT
  7
KICAD
  8
Cyan 2
  10
199.39
  11
199.39
  20
-22.9362
  21
-22.9362
  40
1.016
  41
1
  50
0
  51
0
  71
0
  72
1
  73
2
  1
P5
  0
TEXT
  7
KICAD
  8
Cyan 2
  10
203.2
  11
203.2
  20
-20.3962
  21
-20.3962
  40
1.016
  41
1
  50
0
  51
0
  71
0
  72
1
  73
2
  1
RX
0
LINE
8
Red 2
10
190.5
20
-24.13
11
190.5
21
-21.59
0
LINE
8
Red 2
10
190.5
20
-21.59
11
195.58
21
-21.59
0
LINE
8
Red 2
10
195.58
20
-21.59
11
195.58
21
-24.13
0
LINE
8
Red 2
10
195.58
20
-24.13
11
190.5
21
-24.13
0
LINE
8
Red 2
10
191.77
20
-24.13
11
191.77
21
-26.67
  0
TEXT
  7
KICAD
  8
Red 2
  10
191.516
  11
191.516
  20
-25.4
  21
-25.4
  40
1.016
  41
1
  50
90
  51
0
  71
0
  72
1
  73
1
  1
1
0
LINE
8
Red 2
10
194.31
20
-24.13
11
194.31
21
-26.67
  0
TEXT
  7
KICAD
  8
Red 2
  10
194.056
  11
194.056
  20
-25.4
  21
-25.4
  40
1.016
  41
1
  50
90
  51
0
  71
0
  72
1
  73
1
  1
2
  0
TEXT
  7
KICAD
  8
Cyan 2
  10
189.23
  11
189.23
  20
-22.9362
  21
-22.9362
  40
1.016
  41
1
  50
0
  51
0
  71
0
  72
1
  73
2
  1
P4
  0
TEXT
  7
KICAD
  8
Cyan 2
  10
193.04
  11
193.04
  20
-20.3962
  21
-20.3962
  40
1.016
  41
1
  50
0
  51
0
  71
0
  72
1
  73
2
  1
TX
0
LINE
8
Red 2
10
259.08
20
-80.01
11
256.54
21
-80.01
0
LINE
8
Red 2
10
259.08
20
-77.47
11
257.81
21
-80.01
0
LINE
8
Red 2
10
257.81
20
-80.01
11
256.54
21
-77.47
0
LINE
8
Red 2
10
256.54
20
-77.47
11
259.08
21
-77.47
0
LINE
8
Red 2
10
256.794
20
-80.391
11
255.778
21
-81.534
0
LINE
8
Red 2
10
255.778
20
-81.534
11
256.413
21
-81.407
0
LINE
8
Red 2
10
257.175
20
-80.772
11
256.159
21
-81.915
0
LINE
8
Red 2
10
256.159
20
-81.915
11
256.794
21
-81.788
0
LINE
8
Red 2
10
257.81
20
-77.47
11
257.81
21
-73.66
  0
TEXT
  7
KICAD
  8
Red 2
  10
257.556
  11
257.556
  20
-75.565
  21
-75.565
  40
1.016
  41
1
  50
90
  51
0
  71
0
  72
1
  73
1
  1
1
0
LINE
8
Red 2
10
257.81
20
-80.01
11
257.81
21
-83.82
  0
TEXT
  7
KICAD
  8
Red 2
  10
257.556
  11
257.556
  20
-81.915
  21
-81.915
  40
1.016
  41
1
  50
90
  51
0
  71
0
  72
1
  73
1
  1
2
  0
TEXT
  7
KICAD
  8
Cyan 2
  10
260.35
  11
260.35
  20
-78.6638
  21
-78.6638
  40
1.016
  41
1
  50
0
  51
0
  71
0
  72
1
  73
2
  1
D3
  0
TEXT
  7
KICAD
  8
Cyan 2
  10
260.35
  11
260.35
  20
-81.2038
  21
-81.2038
  40
1.016
  41
1
  50
0
  51
0
  71
0
  72
1
  73
2
  1
BLUE
0
LINE
8
Red 2
10
256.54
20
-99.06
11
257.81
21
-100.33
0
LINE
8
Red 2
10
257.81
20
-100.33
11
259.08
21
-99.06
0
LINE
8
Red 2
10
259.08
20
-99.06
11
256.54
21
-99.06
0
LINE
8
Red 2
10
247.65
20
-99.06
11
248.92
21
-100.33
0
LINE
8
Red 2
10
248.92
20
-100.33
11
250.19
21
-99.06
0
LINE
8
Red 2
10
250.19
20
-99.06
11
247.65
21
-99.06
0
LINE
8
Red 2
10
156.21
20
-128.27
11
157.48
21
-129.54
0
LINE
8
Red 2
10
157.48
20
-129.54
11
158.75
21
-128.27
0
LINE
8
Red 2
10
158.75
20
-128.27
11
156.21
21
-128.27
0
LINE
8
Red 2
10
109.22
20
-93.98
11
110.49
21
-95.25
0
LINE
8
Red 2
10
110.49
20
-95.25
11
111.76
21
-93.98
0
LINE
8
Red 2
10
111.76
20
-93.98
11
109.22
21
-93.98
0
LINE
8
Red 2
10
99.06
20
-93.98
11
100.33
21
-95.25
0
LINE
8
Red 2
10
100.33
20
-95.25
11
101.6
21
-93.98
0
LINE
8
Red 2
10
101.6
20
-93.98
11
99.06
21
-93.98
0
LINE
8
Red 2
10
101.6
20
-81.28
11
99.06
21
-81.28
0
LINE
8
Red 2
10
101.6
20
-78.74
11
100.33
21
-81.28
0
LINE
8
Red 2
10
100.33
20
-81.28
11
99.06
21
-78.74
0
LINE
8
Red 2
10
99.06
20
-78.74
11
101.6
21
-78.74
0
LINE
8
Red 2
10
99.314
20
-81.661
11
98.298
21
-82.804
0
LINE
8
Red 2
10
98.298
20
-82.804
11
98.933
21
-82.677
0
LINE
8
Red 2
10
99.695
20
-82.042
11
98.679
21
-83.185
0
LINE
8
Red 2
10
98.679
20
-83.185
11
99.314
21
-83.058
0
LINE
8
Red 2
10
100.33
20
-78.74
11
100.33
21
-74.93
  0
TEXT
  7
KICAD
  8
Red 2
  10
100.076
  11
100.076
  20
-76.835
  21
-76.835
  40
1.016
  41
1
  50
90
  51
0
  71
0
  72
1
  73
1
  1
1
0
LINE
8
Red 2
10
100.33
20
-81.28
11
100.33
21
-85.09
  0
TEXT
  7
KICAD
  8
Red 2
  10
100.076
  11
100.076
  20
-83.185
  21
-83.185
  40
1.016
  41
1
  50
90
  51
0
  71
0
  72
1
  73
1
  1
2
  0
TEXT
  7
KICAD
  8
Cyan 2
  10
101.6
  11
101.6
  20
-77.3938
  21
-77.3938
  40
1.016
  41
1
  50
0
  51
0
  71
0
  72
1
  73
2
  1
D1
  0
TEXT
  7
KICAD
  8
Cyan 2
  10
102.87
  11
102.87
  20
-82.4738
  21
-82.4738
  40
1.016
  41
1
  50
0
  51
0
  71
0
  72
1
  73
2
  1
GREEN
  0
TEXT
  7
KICAD
  8
Black
  10
134.62
  11
134.62
  20
-125.476
  21
-125.476
  40
1.016
  41
1
  50
0
  51
0
  71
0
  72
0
  73
1
  1
A0P
  0
TEXT
  7
KICAD
  8
Black
  10
134.62
  11
134.62
  20
-128.016
  21
-128.016
  40
1.016
  41
1
  50
0
  51
0
  71
0
  72
0
  73
1
  1
A0N
  0
TEXT
  7
KICAD
  8
Black
  10
134.62
  11
134.62
  20
-130.556
  21
-130.556
  40
1.016
  41
1
  50
0
  51
0
  71
0
  72
0
  73
1
  1
A1P
  0
TEXT
  7
KICAD
  8
Black
  10
134.62
  11
134.62
  20
-133.096
  21
-133.096
  40
1.016
  41
1
  50
0
  51
0
  71
0
  72
0
  73
1
  1
A1N
  0
TEXT
  7
KICAD
  8
Black
  10
134.62
  11
134.62
  20
-135.636
  21
-135.636
  40
1.016
  41
1
  50
0
  51
0
  71
0
  72
0
  73
1
  1
A2P
  0
TEXT
  7
KICAD
  8
Black
  10
134.62
  11
134.62
  20
-138.176
  21
-138.176
  40
1.016
  41
1
  50
0
  51
0
  71
0
  72
0
  73
1
  1
A2N
  0
TEXT
  7
KICAD
  8
Black
  10
144.78
  11
144.78
  20
-70.866
  21
-70.866
  40
1.016
  41
1
  50
0
  51
0
  71
0
  72
0
  73
1
  1
A2N
  0
TEXT
  7
KICAD
  8
Black
  10
144.78
  11
144.78
  20
-68.326
  21
-68.326
  40
1.016
  41
1
  50
0
  51
0
  71
0
  72
0
  73
1
  1
A2P
  0
TEXT
  7
KICAD
  8
Black
  10
144.78
  11
144.78
  20
-65.786
  21
-65.786
  40
1.016
  41
1
  50
0
  51
0
  71
0
  72
0
  73
1
  1
A1N
  0
TEXT
  7
KICAD
  8
Black
  10
144.78
  11
144.78
  20
-63.246
  21
-63.246
  40
1.016
  41
1
  50
0
  51
0
  71
0
  72
0
  73
1
  1
A1P
  0
TEXT
  7
KICAD
  8
Black
  10
144.78
  11
144.78
  20
-60.706
  21
-60.706
  40
1.016
  41
1
  50
0
  51
0
  71
0
  72
0
  73
1
  1
A0N
  0
TEXT
  7
KICAD
  8
Black
  10
144.78
  11
144.78
  20
-58.166
  21
-58.166
  40
1.016
  41
1
  50
0
  51
0
  71
0
  72
0
  73
1
  1
A0P
0
LINE
8
Green 2
10
138.43
20
-138.43
11
140.97
21
-135.89
0
LINE
8
Green 2
10
138.43
20
-135.89
11
140.97
21
-133.35
0
LINE
8
Green 2
10
138.43
20
-133.35
11
140.97
21
-130.81
0
LINE
8
Green 2
10
138.43
20
-130.81
11
140.97
21
-128.27
0
LINE
8
Green 2
10
138.43
20
-128.27
11
140.97
21
-125.73
0
LINE
8
Green 2
10
138.43
20
-125.73
11
140.97
21
-123.19
0
LINE
8
Green 2
10
140.97
20
-73.66
11
143.51
21
-71.12
0
LINE
8
Green 2
10
140.97
20
-71.12
11
143.51
21
-68.58
0
LINE
8
Green 2
10
140.97
20
-68.58
11
143.51
21
-66.04
0
LINE
8
Green 2
10
140.97
20
-66.04
11
143.51
21
-63.5
0
LINE
8
Green 2
10
140.97
20
-63.5
11
143.51
21
-60.96
0
LINE
8
Green 2
10
140.97
20
-60.96
11
143.51
21
-58.42
0
CIRCLE
8
Red 2
10
128.27
20
-143.51
40
0.635
0
CIRCLE
8
Red 2
10
128.27
20
-140.97
40
0.635
0
CIRCLE
8
Red 2
10
128.27
20
-138.43
40
0.635
0
CIRCLE
8
Red 2
10
128.27
20
-135.89
40
0.635
0
CIRCLE
8
Red 2
10
128.27
20
-133.35
40
0.635
0
CIRCLE
8
Red 2
10
128.27
20
-130.81
40
0.635
0
CIRCLE
8
Red 2
10
128.27
20
-128.27
40
0.635
0
CIRCLE
8
Red 2
10
128.27
20
-125.73
40
0.635
0
LINE
8
Red 2
10
129.54
20
-124.46
11
129.54
21
-144.78
0
LINE
8
Red 2
10
129.54
20
-144.78
11
126.365
21
-144.78
0
LINE
8
Red 2
10
126.365
20
-144.78
11
126.365
21
-124.46
0
LINE
8
Red 2
10
126.365
20
-124.46
11
129.54
21
-124.46
0
LINE
8
Red 2
10
127
20
-124.46
11
127
21
-144.78
0
LINE
8
Red 2
10
129.54
20
-125.73
11
133.35
21
-125.73
  0
TEXT
  7
KICAD
  8
Red 2
  10
131.445
  11
131.445
  20
-125.476
  21
-125.476
  40
1.016
  41
1
  50
0
  51
0
  71
0
  72
1
  73
1
  1
1
0
LINE
8
Red 2
10
129.54
20
-128.27
11
133.35
21
-128.27
  0
TEXT
  7
KICAD
  8
Red 2
  10
131.445
  11
131.445
  20
-128.016
  21
-128.016
  40
1.016
  41
1
  50
0
  51
0
  71
0
  72
1
  73
1
  1
2
0
LINE
8
Red 2
10
129.54
20
-130.81
11
133.35
21
-130.81
  0
TEXT
  7
KICAD
  8
Red 2
  10
131.445
  11
131.445
  20
-130.556
  21
-130.556
  40
1.016
  41
1
  50
0
  51
0
  71
0
  72
1
  73
1
  1
3
0
LINE
8
Red 2
10
129.54
20
-133.35
11
133.35
21
-133.35
  0
TEXT
  7
KICAD
  8
Red 2
  10
131.445
  11
131.445
  20
-133.096
  21
-133.096
  40
1.016
  41
1
  50
0
  51
0
  71
0
  72
1
  73
1
  1
4
0
LINE
8
Red 2
10
129.54
20
-135.89
11
133.35
21
-135.89
  0
TEXT
  7
KICAD
  8
Red 2
  10
131.445
  11
131.445
  20
-135.636
  21
-135.636
  40
1.016
  41
1
  50
0
  51
0
  71
0
  72
1
  73
1
  1
5
0
LINE
8
Red 2
10
129.54
20
-138.43
11
133.35
21
-138.43
  0
TEXT
  7
KICAD
  8
Red 2
  10
131.445
  11
131.445
  20
-138.176
  21
-138.176
  40
1.016
  41
1
  50
0
  51
0
  71
0
  72
1
  73
1
  1
6
0
LINE
8
Red 2
10
129.54
20
-140.97
11
133.35
21
-140.97
  0
TEXT
  7
KICAD
  8
Red 2
  10
131.445
  11
131.445
  20
-140.716
  21
-140.716
  40
1.016
  41
1
  50
0
  51
0
  71
0
  72
1
  73
1
  1
7
0
LINE
8
Red 2
10
129.54
20
-143.51
11
133.35
21
-143.51
  0
TEXT
  7
KICAD
  8
Red 2
  10
131.445
  11
131.445
  20
-143.256
  21
-143.256
  40
1.016
  41
1
  50
0
  51
0
  71
0
  72
1
  73
1
  1
8
  0
TEXT
  7
KICAD
  8
Cyan 2
  10
128.27
  11
128.27
  20
-123.114
  21
-123.114
  40
1.016
  41
1
  50
0
  51
0
  71
0
  72
1
  73
2
  1
TB1
  0
TEXT
  7
KICAD
  8
Cyan 2
  10
125.171
  11
125.171
  20
-134.62
  21
-134.62
  40
1.016
  41
1
  50
90
  51
0
  71
0
  72
1
  73
2
  1
ANALOG
0
LINE
8
Red 2
10
78.74
20
-36.83
11
80.01
21
-38.1
0
LINE
8
Red 2
10
80.01
20
-38.1
11
81.28
21
-36.83
0
LINE
8
Red 2
10
81.28
20
-36.83
11
78.74
21
-36.83
0
LINE
8
Red 2
10
49.53
20
-34.29
11
50.8
21
-35.56
0
LINE
8
Red 2
10
50.8
20
-35.56
11
52.07
21
-34.29
0
LINE
8
Red 2
10
52.07
20
-34.29
11
49.53
21
-34.29
0
CIRCLE
8
Red 2
10
29.21
20
-26.67
40
0.508
0
LINE
8
Red 2
10
29.21
20
-27.94
11
29.21
21
-27.178
  0
TEXT
  7
KICAD
  8
Cyan 2
  10
29.21
  11
29.21
  20
-25.3238
  21
-25.3238
  40
1.016
  41
1
  50
0
  51
0
  71
0
  72
1
  73
2
  1
VBUS
0
LINE
8
Red 2
10
27.94
20
-43.18
11
29.21
21
-44.45
0
LINE
8
Red 2
10
29.21
20
-44.45
11
30.48
21
-43.18
0
LINE
8
Red 2
10
30.48
20
-43.18
11
27.94
21
-43.18
0
LINE
8
Red 2
10
29.21
20
-121.92
11
30.48
21
-123.19
0
LINE
8
Red 2
10
30.48
20
-123.19
11
31.75
21
-121.92
0
LINE
8
Red 2
10
31.75
20
-121.92
11
29.21
21
-121.92
0
CIRCLE
8
Red 2
10
30.48
20
-100.33
40
0.508
0
LINE
8
Red 2
10
30.48
20
-101.6
11
30.48
21
-100.838
  0
TEXT
  7
KICAD
  8
Cyan 2
  10
30.48
  11
30.48
  20
-98.9838
  21
-98.9838
  40
1.016
  41
1
  50
0
  51
0
  71
0
  72
1
  73
2
  1
VCC
0
CIRCLE
8
Red 2
10
214.63
20
-124.46
40
0.508
0
LINE
8
Red 2
10
214.63
20
-125.73
11
214.63
21
-124.968
  0
TEXT
  7
KICAD
  8
Cyan 2
  10
214.63
  11
214.63
  20
-123.114
  21
-123.114
  40
1.016
  41
1
  50
0
  51
0
  71
0
  72
1
  73
2
  1
VCC
0
CIRCLE
8
Red 2
10
146.05
20
-24.13
40
0.508
0
LINE
8
Red 2
10
146.05
20
-25.4
11
146.05
21
-24.638
  0
TEXT
  7
KICAD
  8
Cyan 2
  10
146.05
  11
146.05
  20
-22.7838
  21
-22.7838
  40
1.016
  41
1
  50
0
  51
0
  71
0
  72
1
  73
2
  1
VCC
0
CIRCLE
8
Red 2
10
91.44
20
-16.51
40
0.508
0
LINE
8
Red 2
10
91.44
20
-17.78
11
91.44
21
-17.018
  0
TEXT
  7
KICAD
  8
Cyan 2
  10
91.44
  11
91.44
  20
-15.1638
  21
-15.1638
  40
1.016
  41
1
  50
0
  51
0
  71
0
  72
1
  73
2
  1
VCC
0
LINE
8
Red 2
10
125.73
20
-62.23
11
127
21
-63.5
0
LINE
8
Red 2
10
127
20
-63.5
11
128.27
21
-62.23
0
LINE
8
Red 2
10
128.27
20
-62.23
11
125.73
21
-62.23
0
LINE
8
Red 2
10
111.76
20
-81.28
11
109.22
21
-81.28
0
LINE
8
Red 2
10
111.76
20
-78.74
11
110.49
21
-81.28
0
LINE
8
Red 2
10
110.49
20
-81.28
11
109.22
21
-78.74
0
LINE
8
Red 2
10
109.22
20
-78.74
11
111.76
21
-78.74
0
LINE
8
Red 2
10
109.474
20
-81.661
11
108.458
21
-82.804
0
LINE
8
Red 2
10
108.458
20
-82.804
11
109.093
21
-82.677
0
LINE
8
Red 2
10
109.855
20
-82.042
11
108.839
21
-83.185
0
LINE
8
Red 2
10
108.839
20
-83.185
11
109.474
21
-83.058
0
LINE
8
Red 2
10
110.49
20
-78.74
11
110.49
21
-74.93
  0
TEXT
  7
KICAD
  8
Red 2
  10
110.236
  11
110.236
  20
-76.835
  21
-76.835
  40
1.016
  41
1
  50
90
  51
0
  71
0
  72
1
  73
1
  1
1
0
LINE
8
Red 2
10
110.49
20
-81.28
11
110.49
21
-85.09
  0
TEXT
  7
KICAD
  8
Red 2
  10
110.236
  11
110.236
  20
-83.185
  21
-83.185
  40
1.016
  41
1
  50
90
  51
0
  71
0
  72
1
  73
1
  1
2
  0
TEXT
  7
KICAD
  8
Cyan 2
  10
111.76
  11
111.76
  20
-77.3938
  21
-77.3938
  40
1.016
  41
1
  50
0
  51
0
  71
0
  72
1
  73
2
  1
D2
  0
TEXT
  7
KICAD
  8
Cyan 2
  10
112.395
  11
112.395
  20
-82.4738
  21
-82.4738
  40
1.016
  41
1
  50
0
  51
0
  71
0
  72
1
  73
2
  1
RED
0
LINE
8
Red 2
10
25.4
20
-105.41
11
25.4
21
-113.03
0
LINE
8
Red 2
10
25.4
20
-113.03
11
22.86
21
-113.03
0
LINE
8
Red 2
10
22.86
20
-113.03
11
22.86
21
-105.41
0
LINE
8
Red 2
10
22.86
20
-105.41
11
25.4
21
-105.41
0
LINE
8
Red 2
10
25.4
20
-106.68
11
27.94
21
-106.68
  0
TEXT
  7
KICAD
  8
Red 2
  10
26.67
  11
26.67
  20
-106.426
  21
-106.426
  40
1.016
  41
1
  50
0
  51
0
  71
0
  72
1
  73
1
  1
1
0
LINE
8
Red 2
10
25.4
20
-109.22
11
27.94
21
-109.22
  0
TEXT
  7
KICAD
  8
Red 2
  10
26.67
  11
26.67
  20
-108.966
  21
-108.966
  40
1.016
  41
1
  50
0
  51
0
  71
0
  72
1
  73
1
  1
2
0
LINE
8
Red 2
10
25.4
20
-111.76
11
27.94
21
-111.76
  0
TEXT
  7
KICAD
  8
Red 2
  10
26.67
  11
26.67
  20
-111.506
  21
-111.506
  40
1.016
  41
1
  50
0
  51
0
  71
0
  72
1
  73
1
  1
3
  0
TEXT
  7
KICAD
  8
Cyan 2
  10
24.13
  11
24.13
  20
-104.064
  21
-104.064
  40
1.016
  41
1
  50
0
  51
0
  71
0
  72
1
  73
2
  1
P1
  0
TEXT
  7
KICAD
  8
Cyan 2
  10
21.6662
  11
21.6662
  20
-109.22
  21
-109.22
  40
1.016
  41
1
  50
90
  51
0
  71
0
  72
1
  73
2
  1
POWER
  0
TEXT
  7
KICAD
  8
Red 2
  10
157.226
  11
157.226
  20
-78.74
  21
-78.74
  40
1.016
  41
1
  50
0
  51
0
  71
0
  72
1
  73
2
  1
/NMI/SBWTDIO
  0
TEXT
  7
KICAD
  8
Red 2
  10
157.988
  11
157.988
  20
-76.2
  21
-76.2
  40
1.016
  41
1
  50
0
  51
0
  71
0
  72
1
  73
2
  1
/SBWTCK
  0
TEXT
  7
KICAD
  8
Red 2
  10
194.818
  11
194.818
  20
-55.88
  21
-55.88
  40
1.016
  41
1
  50
0
  51
0
  71
0
  72
1
  73
2
  1
SIMO0/SVSOUT/TMS/
  0
TEXT
  7
KICAD
  8
Red 2
  10
194.818
  11
194.818
  20
-58.42
  21
-58.42
  40
1.016
  41
1
  50
0
  51
0
  71
0
  72
1
  73
2
  1
SOMI0/TA2/TCK/
  0
TEXT
  7
KICAD
  8
Red 2
  10
194.818
  11
194.818
  20
-73.66
  21
-73.66
  40
1.016
  41
1
  50
0
  51
0
  71
0
  72
1
  73
2
  1
STE0/TA0/TDI/TCLK/
  0
TEXT
  7
KICAD
  8
Red 2
  10
194.818
  11
194.818
  20
-43.18
  21
-43.18
  40
1.016
  41
1
  50
0
  51
0
  71
0
  72
1
  73
2
  1
SVSIN/TACLK/SMCLK/TA2/
  0
TEXT
  7
KICAD
  8
Red 2
  10
194.818
  11
194.818
  20
-48.26
  21
-48.26
  40
1.016
  41
1
  50
0
  51
0
  71
0
  72
1
  73
2
  1
TA0/SD0DO/
  0
TEXT
  7
KICAD
  8
Red 2
  10
194.818
  11
194.818
  20
-45.72
  21
-45.72
  40
1.016
  41
1
  50
0
  51
0
  71
0
  72
1
  73
2
  1
TA1/SDCLK/
  0
TEXT
  7
KICAD
  8
Red 2
  10
194.818
  11
194.818
  20
-60.96
  21
-60.96
  40
1.016
  41
1
  50
0
  51
0
  71
0
  72
1
  73
2
  1
UCLK0/TA1/TDO/TDI/
  0
TEXT
  7
KICAD
  8
Red 2
  10
194.818
  11
194.818
  20
-53.34
  21
-53.34
  40
1.016
  41
1
  50
0
  51
0
  71
0
  72
1
  73
2
  1
URXD0/SD2DO/
  0
TEXT
  7
KICAD
  8
Red 2
  10
194.818
  11
194.818
  20
-50.8
  21
-50.8
  40
1.016
  41
1
  50
0
  51
0
  71
0
  72
1
  73
2
  1
UTXD0/SD1DO/
  0
TEXT
  7
KICAD
  8
Red 2
  10
194.818
  11
194.818
  20
-76.2
  21
-76.2
  40
1.016
  41
1
  50
0
  51
0
  71
0
  72
1
  73
2
  1
XT2IN/
  0
TEXT
  7
KICAD
  8
Red 2
  10
194.818
  11
194.818
  20
-78.74
  21
-78.74
  40
1.016
  41
1
  50
0
  51
0
  71
0
  72
1
  73
2
  1
XT2OUT/
0
LINE
8
L.Yellow
10
199.39
20
-81.28
11
199.39
21
-40.64
0
LINE
8
L.Yellow
10
199.39
20
-40.64
11
153.67
21
-40.64
0
LINE
8
L.Yellow
10
153.67
20
-40.64
11
153.67
21
-81.28
0
LINE
8
L.Yellow
10
153.67
20
-81.28
11
199.39
21
-81.28
0
LINE
8
Red 2
10
199.39
20
-81.28
11
199.39
21
-40.64
0
LINE
8
Red 2
10
199.39
20
-40.64
11
153.67
21
-40.64
0
LINE
8
Red 2
10
153.67
20
-40.64
11
153.67
21
-81.28
0
LINE
8
Red 2
10
153.67
20
-81.28
11
199.39
21
-81.28
0
LINE
8
Red 2
10
153.67
20
-58.42
11
148.59
21
-58.42
  0
TEXT
  7
KICAD
  8
Cyan 2
  10
154.686
  11
154.686
  20
-58.42
  21
-58.42
  40
1.016
  41
1
  50
0
  51
0
  71
0
  72
0
  73
2
  1
A0.0+
  0
TEXT
  7
KICAD
  8
Red 2
  10
151.13
  11
151.13
  20
-58.166
  21
-58.166
  40
1.016
  41
1
  50
0
  51
0
  71
0
  72
1
  73
1
  1
1
0
LINE
8
Red 2
10
153.67
20
-60.96
11
148.59
21
-60.96
  0
TEXT
  7
KICAD
  8
Cyan 2
  10
154.686
  11
154.686
  20
-60.96
  21
-60.96
  40
1.016
  41
1
  50
0
  51
0
  71
0
  72
0
  73
2
  1
A0.0-
  0
TEXT
  7
KICAD
  8
Red 2
  10
151.13
  11
151.13
  20
-60.706
  21
-60.706
  40
1.016
  41
1
  50
0
  51
0
  71
0
  72
1
  73
1
  1
2
0
LINE
8
Red 2
10
153.67
20
-63.5
11
148.59
21
-63.5
  0
TEXT
  7
KICAD
  8
Cyan 2
  10
154.686
  11
154.686
  20
-63.5
  21
-63.5
  40
1.016
  41
1
  50
0
  51
0
  71
0
  72
0
  73
2
  1
A1.0+
  0
TEXT
  7
KICAD
  8
Red 2
  10
151.13
  11
151.13
  20
-63.246
  21
-63.246
  40
1.016
  41
1
  50
0
  51
0
  71
0
  72
1
  73
1
  1
3
0
LINE
8
Red 2
10
153.67
20
-66.04
11
148.59
21
-66.04
  0
TEXT
  7
KICAD
  8
Cyan 2
  10
154.686
  11
154.686
  20
-66.04
  21
-66.04
  40
1.016
  41
1
  50
0
  51
0
  71
0
  72
0
  73
2
  1
A1.0-
  0
TEXT
  7
KICAD
  8
Red 2
  10
151.13
  11
151.13
  20
-65.786
  21
-65.786
  40
1.016
  41
1
  50
0
  51
0
  71
0
  72
1
  73
1
  1
4
0
LINE
8
Red 2
10
153.67
20
-43.18
11
148.59
21
-43.18
  0
TEXT
  7
KICAD
  8
Cyan 2
  10
154.686
  11
154.686
  20
-43.18
  21
-43.18
  40
1.016
  41
1
  50
0
  51
0
  71
0
  72
0
  73
2
  1
AVCC
  0
TEXT
  7
KICAD
  8
Red 2
  10
151.13
  11
151.13
  20
-42.926
  21
-42.926
  40
1.016
  41
1
  50
0
  51
0
  71
0
  72
1
  73
1
  1
5
0
LINE
8
Red 2
10
153.67
20
-45.72
11
148.59
21
-45.72
  0
TEXT
  7
KICAD
  8
Cyan 2
  10
154.686
  11
154.686
  20
-45.72
  21
-45.72
  40
1.016
  41
1
  50
0
  51
0
  71
0
  72
0
  73
2
  1
AVSS
  0
TEXT
  7
KICAD
  8
Red 2
  10
151.13
  11
151.13
  20
-45.466
  21
-45.466
  40
1.016
  41
1
  50
0
  51
0
  71
0
  72
1
  73
1
  1
6
0
LINE
8
Red 2
10
153.67
20
-48.26
11
148.59
21
-48.26
  0
TEXT
  7
KICAD
  8
Cyan 2
  10
154.686
  11
154.686
  20
-48.26
  21
-48.26
  40
1.016
  41
1
  50
0
  51
0
  71
0
  72
0
  73
2
  1
VREF
  0
TEXT
  7
KICAD
  8
Red 2
  10
151.13
  11
151.13
  20
-48.006
  21
-48.006
  40
1.016
  41
1
  50
0
  51
0
  71
0
  72
1
  73
1
  1
7
0
LINE
8
Red 2
10
153.67
20
-68.58
11
148.59
21
-68.58
  0
TEXT
  7
KICAD
  8
Cyan 2
  10
154.686
  11
154.686
  20
-68.58
  21
-68.58
  40
1.016
  41
1
  50
0
  51
0
  71
0
  72
0
  73
2
  1
A2.0+
  0
TEXT
  7
KICAD
  8
Red 2
  10
151.13
  11
151.13
  20
-68.326
  21
-68.326
  40
1.016
  41
1
  50
0
  51
0
  71
0
  72
1
  73
1
  1
8
0
LINE
8
Red 2
10
153.67
20
-71.12
11
148.59
21
-71.12
  0
TEXT
  7
KICAD
  8
Cyan 2
  10
154.686
  11
154.686
  20
-71.12
  21
-71.12
  40
1.016
  41
1
  50
0
  51
0
  71
0
  72
0
  73
2
  1
A2.0-
  0
TEXT
  7
KICAD
  8
Red 2
  10
151.13
  11
151.13
  20
-70.866
  21
-70.866
  40
1.016
  41
1
  50
0
  51
0
  71
0
  72
1
  73
1
  1
9
0
LINE
8
Red 2
10
153.67
20
-76.2
11
148.59
21
-76.2
  0
TEXT
  7
KICAD
  8
Cyan 2
  10
154.686
  11
154.686
  20
-76.2
  21
-76.2
  40
1.016
  41
1
  50
0
  51
0
  71
0
  72
0
  73
2
  1
TEST
  0
TEXT
  7
KICAD
  8
Red 2
  10
151.13
  11
151.13
  20
-75.946
  21
-75.946
  40
1.016
  41
1
  50
0
  51
0
  71
0
  72
1
  73
1
  1
10
0
LINE
8
Red 2
10
199.39
20
-53.34
11
204.47
21
-53.34
  0
TEXT
  7
KICAD
  8
Cyan 2
  10
198.374
  11
198.374
  20
-53.34
  21
-53.34
  40
1.016
  41
1
  50
0
  51
0
  71
0
  72
2
  73
2
  1
P1.4
  0
TEXT
  7
KICAD
  8
Red 2
  10
201.93
  11
201.93
  20
-53.086
  21
-53.086
  40
1.016
  41
1
  50
0
  51
0
  71
0
  72
1
  73
1
  1
20
0
LINE
8
Red 2
10
153.67
20
-78.74
11
148.59
21
-78.74
  0
TEXT
  7
KICAD
  8
Cyan 2
  10
154.686
  11
154.686
  20
-78.74
  21
-78.74
  40
1.016
  41
1
  50
0
  51
0
  71
0
  72
0
  73
2
  1
%%ORST
  0
TEXT
  7
KICAD
  8
Red 2
  10
151.13
  11
151.13
  20
-78.486
  21
-78.486
  40
1.016
  41
1
  50
0
  51
0
  71
0
  72
1
  73
1
  1
11
0
LINE
8
Red 2
10
199.39
20
-55.88
11
204.47
21
-55.88
  0
TEXT
  7
KICAD
  8
Cyan 2
  10
198.374
  11
198.374
  20
-55.88
  21
-55.88
  40
1.016
  41
1
  50
0
  51
0
  71
0
  72
2
  73
2
  1
P1.5
  0
TEXT
  7
KICAD
  8
Red 2
  10
201.93
  11
201.93
  20
-55.626
  21
-55.626
  40
1.016
  41
1
  50
0
  51
0
  71
0
  72
1
  73
1
  1
21
0
LINE
8
Red 2
10
199.39
20
-43.18
11
204.47
21
-43.18
  0
TEXT
  7
KICAD
  8
Cyan 2
  10
198.374
  11
198.374
  20
-43.18
  21
-43.18
  40
1.016
  41
1
  50
0
  51
0
  71
0
  72
2
  73
2
  1
P1.0
  0
TEXT
  7
KICAD
  8
Red 2
  10
201.93
  11
201.93
  20
-42.926
  21
-42.926
  40
1.016
  41
1
  50
0
  51
0
  71
0
  72
1
  73
1
  1
12
0
LINE
8
Red 2
10
199.39
20
-58.42
11
204.47
21
-58.42
  0
TEXT
  7
KICAD
  8
Cyan 2
  10
198.374
  11
198.374
  20
-58.42
  21
-58.42
  40
1.016
  41
1
  50
0
  51
0
  71
0
  72
2
  73
2
  1
P1.6
  0
TEXT
  7
KICAD
  8
Red 2
  10
201.93
  11
201.93
  20
-58.166
  21
-58.166
  40
1.016
  41
1
  50
0
  51
0
  71
0
  72
1
  73
1
  1
22
0
LINE
8
Red 2
10
153.67
20
-50.8
11
148.59
21
-50.8
  0
TEXT
  7
KICAD
  8
Cyan 2
  10
154.686
  11
154.686
  20
-50.8
  21
-50.8
  40
1.016
  41
1
  50
0
  51
0
  71
0
  72
0
  73
2
  1
DVSS
  0
TEXT
  7
KICAD
  8
Red 2
  10
151.13
  11
151.13
  20
-50.546
  21
-50.546
  40
1.016
  41
1
  50
0
  51
0
  71
0
  72
1
  73
1
  1
13
0
LINE
8
Red 2
10
199.39
20
-60.96
11
204.47
21
-60.96
  0
TEXT
  7
KICAD
  8
Cyan 2
  10
198.374
  11
198.374
  20
-60.96
  21
-60.96
  40
1.016
  41
1
  50
0
  51
0
  71
0
  72
2
  73
2
  1
P1.7
  0
TEXT
  7
KICAD
  8
Red 2
  10
201.93
  11
201.93
  20
-60.706
  21
-60.706
  40
1.016
  41
1
  50
0
  51
0
  71
0
  72
1
  73
1
  1
23
0
LINE
8
Red 2
10
199.39
20
-76.2
11
204.47
21
-76.2
  0
TEXT
  7
KICAD
  8
Cyan 2
  10
198.374
  11
198.374
  20
-76.2
  21
-76.2
  40
1.016
  41
1
  50
0
  51
0
  71
0
  72
2
  73
2
  1
P2.6
  0
TEXT
  7
KICAD
  8
Red 2
  10
201.93
  11
201.93
  20
-75.946
  21
-75.946
  40
1.016
  41
1
  50
0
  51
0
  71
0
  72
1
  73
1
  1
14
0
LINE
8
Red 2
10
199.39
20
-73.66
11
204.47
21
-73.66
  0
TEXT
  7
KICAD
  8
Cyan 2
  10
198.374
  11
198.374
  20
-73.66
  21
-73.66
  40
1.016
  41
1
  50
0
  51
0
  71
0
  72
2
  73
2
  1
P2.0
  0
TEXT
  7
KICAD
  8
Red 2
  10
201.93
  11
201.93
  20
-73.406
  21
-73.406
  40
1.016
  41
1
  50
0
  51
0
  71
0
  72
1
  73
1
  1
24
0
LINE
8
Red 2
10
199.39
20
-78.74
11
204.47
21
-78.74
  0
TEXT
  7
KICAD
  8
Cyan 2
  10
198.374
  11
198.374
  20
-78.74
  21
-78.74
  40
1.016
  41
1
  50
0
  51
0
  71
0
  72
2
  73
2
  1
P2.7
  0
TEXT
  7
KICAD
  8
Red 2
  10
201.93
  11
201.93
  20
-78.486
  21
-78.486
  40
1.016
  41
1
  50
0
  51
0
  71
0
  72
1
  73
1
  1
15
0
LINE
8
Red 2
10
153.67
20
-53.34
11
148.59
21
-53.34
  0
TEXT
  7
KICAD
  8
Cyan 2
  10
154.686
  11
154.686
  20
-53.34
  21
-53.34
  40
1.016
  41
1
  50
0
  51
0
  71
0
  72
0
  73
2
  1
DVCC
  0
TEXT
  7
KICAD
  8
Red 2
  10
151.13
  11
151.13
  20
-53.086
  21
-53.086
  40
1.016
  41
1
  50
0
  51
0
  71
0
  72
1
  73
1
  1
16
0
LINE
8
Red 2
10
199.39
20
-45.72
11
204.47
21
-45.72
  0
TEXT
  7
KICAD
  8
Cyan 2
  10
198.374
  11
198.374
  20
-45.72
  21
-45.72
  40
1.016
  41
1
  50
0
  51
0
  71
0
  72
2
  73
2
  1
P1.1
  0
TEXT
  7
KICAD
  8
Red 2
  10
201.93
  11
201.93
  20
-45.466
  21
-45.466
  40
1.016
  41
1
  50
0
  51
0
  71
0
  72
1
  73
1
  1
17
0
LINE
8
Red 2
10
199.39
20
-48.26
11
204.47
21
-48.26
  0
TEXT
  7
KICAD
  8
Cyan 2
  10
198.374
  11
198.374
  20
-48.26
  21
-48.26
  40
1.016
  41
1
  50
0
  51
0
  71
0
  72
2
  73
2
  1
P1.2
  0
TEXT
  7
KICAD
  8
Red 2
  10
201.93
  11
201.93
  20
-48.006
  21
-48.006
  40
1.016
  41
1
  50
0
  51
0
  71
0
  72
1
  73
1
  1
18
0
LINE
8
Red 2
10
199.39
20
-50.8
11
204.47
21
-50.8
  0
TEXT
  7
KICAD
  8
Cyan 2
  10
198.374
  11
198.374
  20
-50.8
  21
-50.8
  40
1.016
  41
1
  50
0
  51
0
  71
0
  72
2
  73
2
  1
P1.3
  0
TEXT
  7
KICAD
  8
Red 2
  10
201.93
  11
201.93
  20
-50.546
  21
-50.546
  40
1.016
  41
1
  50
0
  51
0
  71
0
  72
1
  73
1
  1
19
  0
TEXT
  7
KICAD
  8
Cyan 2
  10
155.956
  11
155.956
  20
-39.2938
  21
-39.2938
  40
1.016
  41
1
  50
0
  51
0
  71
0
  72
1
  73
2
  1
U2
  0
TEXT
  7
KICAD
  8
Cyan 2
  10
160.731
  11
160.731
  20
-82.4738
  21
-82.4738
  40
1.016
  41
1
  50
0
  51
0
  71
0
  72
1
  73
2
  1
MSP430AFE253
0
LINE
8
Red 2
10
53.34
20
-71.628
11
55.88
21
-71.628
0
LINE
8
Red 2
10
53.34
20
-70.612
11
55.88
21
-70.612
0
LINE
8
Red 2
10
54.61
20
-71.628
11
54.61
21
-72.39
0
LINE
8
Red 2
10
54.61
20
-70.612
11
54.61
21
-69.85
0
LINE
8
Red 2
10
54.61
20
-69.85
11
54.61
21
-68.58
  0
TEXT
  7
KICAD
  8
Cyan 2
  10
54.61
  11
54.61
  20
-70.104
  21
-70.104
  40
1.016
  41
1
  50
90
  51
0
  71
0
  72
2
  73
2
  1
%%O
0
LINE
8
Red 2
10
54.61
20
-72.39
11
54.61
21
-73.66
  0
TEXT
  7
KICAD
  8
Cyan 2
  10
54.61
  11
54.61
  20
-72.136
  21
-72.136
  40
1.016
  41
1
  50
90
  51
0
  71
0
  72
0
  73
2
  1
%%O
  0
TEXT
  7
KICAD
  8
Cyan 2
  10
56.1086
  11
56.1086
  20
-69.2658
  21
-69.2658
  40
1.016
  41
1
  50
0
  51
0
  71
0
  72
1
  73
2
  1
C1
  0
TEXT
  7
KICAD
  8
Cyan 2
  10
56.769
  11
56.769
  20
-72.8218
  21
-72.8218
  40
1.016
  41
1
  50
0
  51
0
  71
0
  72
1
  73
2
  1
0.1u
0
LINE
8
Red 2
10
53.34
20
-76.2
11
54.61
21
-77.47
0
LINE
8
Red 2
10
54.61
20
-77.47
11
55.88
21
-76.2
0
LINE
8
Red 2
10
55.88
20
-76.2
11
53.34
21
-76.2
0
LINE
8
Red 2
10
54.61
20
-50.546
11
55.118
21
-50.8
0
LINE
8
Red 2
10
55.118
20
-50.8
11
54.102
21
-51.308
0
LINE
8
Red 2
10
54.102
20
-51.308
11
55.118
21
-51.816
0
LINE
8
Red 2
10
55.118
20
-51.816
11
54.102
21
-52.324
0
LINE
8
Red 2
10
54.102
20
-52.324
11
55.118
21
-52.832
0
LINE
8
Red 2
10
55.118
20
-52.832
11
54.102
21
-53.34
0
LINE
8
Red 2
10
54.102
20
-53.34
11
54.61
21
-53.594
0
LINE
8
Red 2
10
54.61
20
-50.546
11
54.61
21
-49.53
  0
TEXT
  7
KICAD
  8
Cyan 2
  10
54.356
  11
54.356
  20
-50.038
  21
-50.038
  40
1.524
  41
1
  50
90
  51
0
  71
0
  72
1
  73
1
  1
%%O
0
LINE
8
Red 2
10
54.61
20
-53.594
11
54.61
21
-54.61
  0
TEXT
  7
KICAD
  8
Cyan 2
  10
54.356
  11
54.356
  20
-54.102
  21
-54.102
  40
1.524
  41
1
  50
90
  51
0
  71
0
  72
1
  73
1
  1
%%O
  0
TEXT
  7
KICAD
  8
Cyan 2
  10
55.9562
  11
55.9562
  20
-52.07
  21
-52.07
  40
1.016
  41
1
  50
90
  51
0
  71
0
  72
1
  73
2
  1
R3
  0
TEXT
  7
KICAD
  8
Cyan 2
  10
53.4162
  11
53.4162
  20
-52.07
  21
-52.07
  40
1.016
  41
1
  50
90
  51
0
  71
0
  72
1
  73
2
  1
47k
0
CIRCLE
8
Red 2
10
157.48
20
-115.57
40
0.508
0
CIRCLE
8
Red 2
10
157.48
20
-120.65
40
0.508
0
LINE
8
Red 2
10
157.734
20
-116.078
11
159.766
21
-120.396
  0
TEXT
  7
KICAD
  8
Cyan 2
  10
160.096
  11
160.096
  20
-118.11
  21
-118.11
  40
1.016
  41
1
  50
90
  51
0
  71
0
  72
1
  73
2
  1
SW3
  0
TEXT
  7
KICAD
  8
Cyan 2
  10
156.286
  11
156.286
  20
-118.11
  21
-118.11
  40
1.016
  41
1
  50
90
  51
0
  71
0
  72
1
  73
2
  1
FSMSM
0
CIRCLE
8
Red 2
10
240.03
20
-86.36
40
0.508
0
CIRCLE
8
Red 2
10
240.03
20
-91.44
40
0.508
0
LINE
8
Red 2
10
239.776
20
-86.868
11
237.744
21
-91.186
  0
TEXT
  7
KICAD
  8
Cyan 2
  10
242.57
  11
242.57
  20
-91.3638
  21
-91.3638
  40
1.016
  41
1
  50
0
  51
0
  71
0
  72
1
  73
2
  1
SW1
  0
TEXT
  7
KICAD
  8
Cyan 2
  10
242.57
  11
242.57
  20
-88.8238
  21
-88.8238
  40
1.016
  41
1
  50
0
  51
0
  71
0
  72
1
  73
2
  1
FSMSM
0
CIRCLE
8
Red 2
10
248.92
20
-86.36
40
0.508
0
CIRCLE
8
Red 2
10
248.92
20
-91.44
40
0.508
0
LINE
8
Red 2
10
248.666
20
-86.868
11
246.634
21
-91.186
  0
TEXT
  7
KICAD
  8
Cyan 2
  10
251.46
  11
251.46
  20
-91.3638
  21
-91.3638
  40
1.016
  41
1
  50
0
  51
0
  71
0
  72
1
  73
2
  1
SW2
  0
TEXT
  7
KICAD
  8
Cyan 2
  10
251.46
  11
251.46
  20
-88.8238
  21
-88.8238
  40
1.016
  41
1
  50
0
  51
0
  71
0
  72
1
  73
2
  1
FSMSM
0
LINE
8
Red 2
10
130.81
20
-57.658
11
133.35
21
-57.658
0
LINE
8
Red 2
10
130.81
20
-56.642
11
133.35
21
-56.642
0
LINE
8
Red 2
10
132.08
20
-57.658
11
132.08
21
-58.42
0
LINE
8
Red 2
10
132.08
20
-56.642
11
132.08
21
-55.88
0
LINE
8
Red 2
10
132.08
20
-55.88
11
132.08
21
-54.61
  0
TEXT
  7
KICAD
  8
Cyan 2
  10
132.08
  11
132.08
  20
-56.134
  21
-56.134
  40
1.016
  41
1
  50
90
  51
0
  71
0
  72
2
  73
2
  1
%%O
0
LINE
8
Red 2
10
132.08
20
-58.42
11
132.08
21
-59.69
  0
TEXT
  7
KICAD
  8
Cyan 2
  10
132.08
  11
132.08
  20
-58.166
  21
-58.166
  40
1.016
  41
1
  50
90
  51
0
  71
0
  72
0
  73
2
  1
%%O
  0
TEXT
  7
KICAD
  8
Cyan 2
  10
134.061
  11
134.061
  20
-55.2958
  21
-55.2958
  40
1.016
  41
1
  50
0
  51
0
  71
0
  72
1
  73
2
  1
C13
  0
TEXT
  7
KICAD
  8
Cyan 2
  10
134.239
  11
134.239
  20
-58.8518
  21
-58.8518
  40
1.016
  41
1
  50
0
  51
0
  71
0
  72
1
  73
2
  1
0.1u
0
LINE
8
Red 2
10
130.81
20
-62.23
11
132.08
21
-63.5
0
LINE
8
Red 2
10
132.08
20
-63.5
11
133.35
21
-62.23
0
LINE
8
Red 2
10
133.35
20
-62.23
11
130.81
21
-62.23
0
LINE
8
Red 2
10
113.03
20
-53.848
11
115.57
21
-53.848
0
LINE
8
Red 2
10
113.03
20
-52.832
11
115.57
21
-52.832
0
LINE
8
Red 2
10
114.3
20
-53.848
11
114.3
21
-54.61
0
LINE
8
Red 2
10
114.3
20
-52.832
11
114.3
21
-52.07
0
LINE
8
Red 2
10
114.3
20
-52.07
11
114.3
21
-50.8
  0
TEXT
  7
KICAD
  8
Cyan 2
  10
114.3
  11
114.3
  20
-52.324
  21
-52.324
  40
1.016
  41
1
  50
90
  51
0
  71
0
  72
2
  73
2
  1
%%O
0
LINE
8
Red 2
10
114.3
20
-54.61
11
114.3
21
-55.88
  0
TEXT
  7
KICAD
  8
Cyan 2
  10
114.3
  11
114.3
  20
-54.356
  21
-54.356
  40
1.016
  41
1
  50
90
  51
0
  71
0
  72
0
  73
2
  1
%%O
  0
TEXT
  7
KICAD
  8
Cyan 2
  10
116.281
  11
116.281
  20
-51.4858
  21
-51.4858
  40
1.016
  41
1
  50
0
  51
0
  71
0
  72
1
  73
2
  1
C11
  0
TEXT
  7
KICAD
  8
Cyan 2
  10
116.459
  11
116.459
  20
-55.0418
  21
-55.0418
  40
1.016
  41
1
  50
0
  51
0
  71
0
  72
1
  73
2
  1
0.1u
0
LINE
8
Red 2
10
59.69
20
-43.18
11
59.69
21
-71.12
0
LINE
8
Red 2
10
59.69
20
-71.12
11
85.09
21
-71.12
0
LINE
8
Red 2
10
85.09
20
-71.12
11
85.09
21
-43.18
0
LINE
8
Red 2
10
85.09
20
-43.18
11
59.69
21
-43.18
0
LINE
8
Red 2
10
74.93
20
-43.18
11
74.93
21
-40.64
  0
TEXT
  7
KICAD
  8
Cyan 2
  10
74.93
  11
74.93
  20
-44.196
  21
-44.196
  40
1.016
  41
1
  50
90
  51
0
  71
0
  72
2
  73
2
  1
VCCIO
  0
TEXT
  7
KICAD
  8
Red 2
  10
74.676
  11
74.676
  20
-41.91
  21
-41.91
  40
1.016
  41
1
  50
90
  51
0
  71
0
  72
1
  73
1
  1
1
0
LINE
8
Red 2
10
85.09
20
-48.26
11
87.63
21
-48.26
  0
TEXT
  7
KICAD
  8
Cyan 2
  10
84.074
  11
84.074
  20
-48.26
  21
-48.26
  40
1.016
  41
1
  50
0
  51
0
  71
0
  72
2
  73
2
  1
RXD
  0
TEXT
  7
KICAD
  8
Red 2
  10
86.36
  11
86.36
  20
-48.006
  21
-48.006
  40
1.016
  41
1
  50
0
  51
0
  71
0
  72
1
  73
1
  1
2
0
LINE
8
Red 2
10
69.85
20
-71.12
11
69.85
21
-73.66
  0
TEXT
  7
KICAD
  8
Cyan 2
  10
69.85
  11
69.85
  20
-70.104
  21
-70.104
  40
1.016
  41
1
  50
90
  51
0
  71
0
  72
0
  73
2
  1
GND
  0
TEXT
  7
KICAD
  8
Red 2
  10
69.596
  11
69.596
  20
-72.39
  21
-72.39
  40
1.016
  41
1
  50
90
  51
0
  71
0
  72
1
  73
1
  1
3
0
LINE
8
Red 2
10
85.09
20
-53.34
11
87.63
21
-53.34
  0
TEXT
  7
KICAD
  8
Cyan 2
  10
84.074
  11
84.074
  20
-53.34
  21
-53.34
  40
1.016
  41
1
  50
0
  51
0
  71
0
  72
2
  73
2
  1
%%OCTS
  0
TEXT
  7
KICAD
  8
Red 2
  10
86.36
  11
86.36
  20
-53.086
  21
-53.086
  40
1.016
  41
1
  50
0
  51
0
  71
0
  72
1
  73
1
  1
4
0
LINE
8
Red 2
10
85.09
20
-66.04
11
87.63
21
-66.04
  0
TEXT
  7
KICAD
  8
Cyan 2
  10
84.074
  11
84.074
  20
-66.04
  21
-66.04
  40
1.016
  41
1
  50
0
  51
0
  71
0
  72
2
  73
2
  1
CBUS2
  0
TEXT
  7
KICAD
  8
Red 2
  10
86.36
  11
86.36
  20
-65.786
  21
-65.786
  40
1.016
  41
1
  50
0
  51
0
  71
0
  72
1
  73
1
  1
5
0
LINE
8
Red 2
10
59.69
20
-58.42
11
57.15
21
-58.42
  0
TEXT
  7
KICAD
  8
Cyan 2
  10
60.706
  11
60.706
  20
-58.42
  21
-58.42
  40
1.016
  41
1
  50
0
  51
0
  71
0
  72
0
  73
2
  1
USBDP
  0
TEXT
  7
KICAD
  8
Red 2
  10
58.42
  11
58.42
  20
-58.166
  21
-58.166
  40
1.016
  41
1
  50
0
  51
0
  71
0
  72
1
  73
1
  1
6
0
LINE
8
Red 2
10
59.69
20
-55.88
11
57.15
21
-55.88
  0
TEXT
  7
KICAD
  8
Cyan 2
  10
60.706
  11
60.706
  20
-55.88
  21
-55.88
  40
1.016
  41
1
  50
0
  51
0
  71
0
  72
0
  73
2
  1
USBDM
  0
TEXT
  7
KICAD
  8
Red 2
  10
58.42
  11
58.42
  20
-55.626
  21
-55.626
  40
1.016
  41
1
  50
0
  51
0
  71
0
  72
1
  73
1
  1
7
0
LINE
8
Red 2
10
59.69
20
-45.72
11
57.15
21
-45.72
  0
TEXT
  7
KICAD
  8
Cyan 2
  10
60.706
  11
60.706
  20
-45.72
  21
-45.72
  40
1.016
  41
1
  50
0
  51
0
  71
0
  72
0
  73
2
  1
3V3OUT
  0
TEXT
  7
KICAD
  8
Red 2
  10
58.42
  11
58.42
  20
-45.466
  21
-45.466
  40
1.016
  41
1
  50
0
  51
0
  71
0
  72
1
  73
1
  1
8
0
LINE
8
Red 2
10
59.69
20
-66.04
11
57.15
21
-66.04
  0
TEXT
  7
KICAD
  8
Cyan 2
  10
60.706
  11
60.706
  20
-66.04
  21
-66.04
  40
1.016
  41
1
  50
0
  51
0
  71
0
  72
0
  73
2
  1
%%ORESET
  0
TEXT
  7
KICAD
  8
Red 2
  10
58.42
  11
58.42
  20
-65.786
  21
-65.786
  40
1.016
  41
1
  50
0
  51
0
  71
0
  72
1
  73
1
  1
9
0
LINE
8
Red 2
10
69.85
20
-43.18
11
69.85
21
-40.64
  0
TEXT
  7
KICAD
  8
Cyan 2
  10
69.85
  11
69.85
  20
-44.196
  21
-44.196
  40
1.016
  41
1
  50
90
  51
0
  71
0
  72
2
  73
2
  1
VCC
  0
TEXT
  7
KICAD
  8
Red 2
  10
69.596
  11
69.596
  20
-41.91
  21
-41.91
  40
1.016
  41
1
  50
90
  51
0
  71
0
  72
1
  73
1
  1
10
0
LINE
8
Red 2
10
85.09
20
-63.5
11
87.63
21
-63.5
  0
TEXT
  7
KICAD
  8
Cyan 2
  10
84.074
  11
84.074
  20
-63.5
  21
-63.5
  40
1.016
  41
1
  50
0
  51
0
  71
0
  72
2
  73
2
  1
CBUS1
  0
TEXT
  7
KICAD
  8
Red 2
  10
86.36
  11
86.36
  20
-63.246
  21
-63.246
  40
1.016
  41
1
  50
0
  51
0
  71
0
  72
1
  73
1
  1
11
0
LINE
8
Red 2
10
85.09
20
-60.96
11
87.63
21
-60.96
  0
TEXT
  7
KICAD
  8
Cyan 2
  10
84.074
  11
84.074
  20
-60.96
  21
-60.96
  40
1.016
  41
1
  50
0
  51
0
  71
0
  72
2
  73
2
  1
CBUS0
  0
TEXT
  7
KICAD
  8
Red 2
  10
86.36
  11
86.36
  20
-60.706
  21
-60.706
  40
1.016
  41
1
  50
0
  51
0
  71
0
  72
1
  73
1
  1
12
0
LINE
8
Red 2
10
72.39
20
-71.12
11
72.39
21
-73.66
  0
TEXT
  7
KICAD
  8
Cyan 2
  10
72.39
  11
72.39
  20
-70.104
  21
-70.104
  40
1.016
  41
1
  50
90
  51
0
  71
0
  72
0
  73
2
  1
GND
  0
TEXT
  7
KICAD
  8
Red 2
  10
72.136
  11
72.136
  20
-72.39
  21
-72.39
  40
1.016
  41
1
  50
90
  51
0
  71
0
  72
1
  73
1
  1
13
0
LINE
8
Red 2
10
85.09
20
-68.58
11
87.63
21
-68.58
  0
TEXT
  7
KICAD
  8
Cyan 2
  10
84.074
  11
84.074
  20
-68.58
  21
-68.58
  40
1.016
  41
1
  50
0
  51
0
  71
0
  72
2
  73
2
  1
CBUS3
  0
TEXT
  7
KICAD
  8
Red 2
  10
86.36
  11
86.36
  20
-68.326
  21
-68.326
  40
1.016
  41
1
  50
0
  51
0
  71
0
  72
1
  73
1
  1
14
0
LINE
8
Red 2
10
85.09
20
-45.72
11
87.63
21
-45.72
  0
TEXT
  7
KICAD
  8
Cyan 2
  10
84.074
  11
84.074
  20
-45.72
  21
-45.72
  40
1.016
  41
1
  50
0
  51
0
  71
0
  72
2
  73
2
  1
TXD
  0
TEXT
  7
KICAD
  8
Red 2
  10
86.36
  11
86.36
  20
-45.466
  21
-45.466
  40
1.016
  41
1
  50
0
  51
0
  71
0
  72
1
  73
1
  1
15
0
LINE
8
Red 2
10
85.09
20
-50.8
11
87.63
21
-50.8
  0
TEXT
  7
KICAD
  8
Cyan 2
  10
84.074
  11
84.074
  20
-50.8
  21
-50.8
  40
1.016
  41
1
  50
0
  51
0
  71
0
  72
2
  73
2
  1
%%ORTS
  0
TEXT
  7
KICAD
  8
Red 2
  10
86.36
  11
86.36
  20
-50.546
  21
-50.546
  40
1.016
  41
1
  50
0
  51
0
  71
0
  72
1
  73
1
  1
16
0
LINE
8
Red 2
10
74.93
20
-71.12
11
74.93
21
-73.66
  0
TEXT
  7
KICAD
  8
Cyan 2
  10
74.93
  11
74.93
  20
-70.104
  21
-70.104
  40
1.016
  41
1
  50
90
  51
0
  71
0
  72
0
  73
2
  1
GND
  0
TEXT
  7
KICAD
  8
Red 2
  10
74.676
  11
74.676
  20
-72.39
  21
-72.39
  40
1.016
  41
1
  50
90
  51
0
  71
0
  72
1
  73
1
  1
17
  0
TEXT
  7
KICAD
  8
Cyan 2
  10
60.96
  11
60.96
  20
-41.8338
  21
-41.8338
  40
1.016
  41
1
  50
0
  51
0
  71
0
  72
1
  73
2
  1
U1
  0
TEXT
  7
KICAD
  8
Cyan 2
  10
63.5
  11
63.5
  20
-72.3138
  21
-72.3138
  40
1.016
  41
1
  50
0
  51
0
  71
0
  72
1
  73
2
  1
FT230XQ
0
LINE
8
Red 2
10
118.11
20
-58.42
11
119.38
21
-59.69
0
LINE
8
Red 2
10
119.38
20
-59.69
11
120.65
21
-58.42
0
LINE
8
Red 2
10
120.65
20
-58.42
11
118.11
21
-58.42
0
LINE
8
Red 2
10
113.03
20
-58.42
11
114.3
21
-59.69
0
LINE
8
Red 2
10
114.3
20
-59.69
11
115.57
21
-58.42
0
LINE
8
Red 2
10
115.57
20
-58.42
11
113.03
21
-58.42
0
LINE
8
Red 2
10
130.81
20
-38.608
11
133.35
21
-38.608
0
LINE
8
Red 2
10
130.81
20
-37.592
11
133.35
21
-37.592
0
LINE
8
Red 2
10
132.08
20
-38.608
11
132.08
21
-39.37
0
LINE
8
Red 2
10
132.08
20
-37.592
11
132.08
21
-36.83
0
LINE
8
Red 2
10
132.08
20
-36.83
11
132.08
21
-35.56
  0
TEXT
  7
KICAD
  8
Cyan 2
  10
132.08
  11
132.08
  20
-37.084
  21
-37.084
  40
1.016
  41
1
  50
90
  51
0
  71
0
  72
2
  73
2
  1
%%O
0
LINE
8
Red 2
10
132.08
20
-39.37
11
132.08
21
-40.64
  0
TEXT
  7
KICAD
  8
Cyan 2
  10
132.08
  11
132.08
  20
-39.116
  21
-39.116
  40
1.016
  41
1
  50
90
  51
0
  71
0
  72
0
  73
2
  1
%%O
  0
TEXT
  7
KICAD
  8
Cyan 2
  10
133.579
  11
133.579
  20
-36.2458
  21
-36.2458
  40
1.016
  41
1
  50
0
  51
0
  71
0
  72
1
  73
2
  1
C2
  0
TEXT
  7
KICAD
  8
Cyan 2
  10
134.239
  11
134.239
  20
-39.8018
  21
-39.8018
  40
1.016
  41
1
  50
0
  51
0
  71
0
  72
1
  73
2
  1
0.1u
0
LINE
8
Red 2
10
135.89
20
-43.18
11
137.16
21
-44.45
0
LINE
8
Red 2
10
137.16
20
-44.45
11
138.43
21
-43.18
0
LINE
8
Red 2
10
138.43
20
-43.18
11
135.89
21
-43.18
0
LINE
8
Red 2
10
130.81
20
-43.18
11
132.08
21
-44.45
0
LINE
8
Red 2
10
132.08
20
-44.45
11
133.35
21
-43.18
0
LINE
8
Red 2
10
133.35
20
-43.18
11
130.81
21
-43.18
0
LINE
8
Red 2
10
118.11
20
-53.848
11
120.65
21
-53.848
0
LINE
8
Red 2
10
118.11
20
-52.832
11
120.65
21
-52.832
0
LINE
8
Red 2
10
119.38
20
-53.848
11
119.38
21
-54.61
0
LINE
8
Red 2
10
119.38
20
-52.832
11
119.38
21
-52.07
0
LINE
8
Red 2
10
119.38
20
-52.07
11
119.38
21
-50.8
  0
TEXT
  7
KICAD
  8
Cyan 2
  10
119.38
  11
119.38
  20
-52.324
  21
-52.324
  40
1.016
  41
1
  50
90
  51
0
  71
0
  72
2
  73
2
  1
%%O
0
LINE
8
Red 2
10
119.38
20
-54.61
11
119.38
21
-55.88
  0
TEXT
  7
KICAD
  8
Cyan 2
  10
119.38
  11
119.38
  20
-54.356
  21
-54.356
  40
1.016
  41
1
  50
90
  51
0
  71
0
  72
0
  73
2
  1
%%O
  0
TEXT
  7
KICAD
  8
Cyan 2
  10
121.361
  11
121.361
  20
-51.4858
  21
-51.4858
  40
1.016
  41
1
  50
0
  51
0
  71
0
  72
1
  73
2
  1
C12
  0
TEXT
  7
KICAD
  8
Cyan 2
  10
121.539
  11
121.539
  20
-55.0418
  21
-55.0418
  40
1.016
  41
1
  50
0
  51
0
  71
0
  72
1
  73
2
  1
4.7u
0
LINE
8
Red 2
10
135.89
20
-57.658
11
138.43
21
-57.658
0
LINE
8
Red 2
10
135.89
20
-56.642
11
138.43
21
-56.642
0
LINE
8
Red 2
10
137.16
20
-57.658
11
137.16
21
-58.42
0
LINE
8
Red 2
10
137.16
20
-56.642
11
137.16
21
-55.88
0
LINE
8
Red 2
10
137.16
20
-55.88
11
137.16
21
-54.61
  0
TEXT
  7
KICAD
  8
Cyan 2
  10
137.16
  11
137.16
  20
-56.134
  21
-56.134
  40
1.016
  41
1
  50
90
  51
0
  71
0
  72
2
  73
2
  1
%%O
0
LINE
8
Red 2
10
137.16
20
-58.42
11
137.16
21
-59.69
  0
TEXT
  7
KICAD
  8
Cyan 2
  10
137.16
  11
137.16
  20
-58.166
  21
-58.166
  40
1.016
  41
1
  50
90
  51
0
  71
0
  72
0
  73
2
  1
%%O
  0
TEXT
  7
KICAD
  8
Cyan 2
  10
138.659
  11
138.659
  20
-55.2958
  21
-55.2958
  40
1.016
  41
1
  50
0
  51
0
  71
0
  72
1
  73
2
  1
C8
  0
TEXT
  7
KICAD
  8
Cyan 2
  10
139.319
  11
139.319
  20
-58.8518
  21
-58.8518
  40
1.016
  41
1
  50
0
  51
0
  71
0
  72
1
  73
2
  1
4.7u
0
LINE
8
Red 2
10
135.89
20
-38.608
11
138.43
21
-38.608
0
LINE
8
Red 2
10
135.89
20
-37.592
11
138.43
21
-37.592
0
LINE
8
Red 2
10
137.16
20
-38.608
11
137.16
21
-39.37
0
LINE
8
Red 2
10
137.16
20
-37.592
11
137.16
21
-36.83
0
LINE
8
Red 2
10
137.16
20
-36.83
11
137.16
21
-35.56
  0
TEXT
  7
KICAD
  8
Cyan 2
  10
137.16
  11
137.16
  20
-37.084
  21
-37.084
  40
1.016
  41
1
  50
90
  51
0
  71
0
  72
2
  73
2
  1
%%O
0
LINE
8
Red 2
10
137.16
20
-39.37
11
137.16
21
-40.64
  0
TEXT
  7
KICAD
  8
Cyan 2
  10
137.16
  11
137.16
  20
-39.116
  21
-39.116
  40
1.016
  41
1
  50
90
  51
0
  71
0
  72
0
  73
2
  1
%%O
  0
TEXT
  7
KICAD
  8
Cyan 2
  10
138.659
  11
138.659
  20
-36.2458
  21
-36.2458
  40
1.016
  41
1
  50
0
  51
0
  71
0
  72
1
  73
2
  1
C3
  0
TEXT
  7
KICAD
  8
Cyan 2
  10
139.319
  11
139.319
  20
-39.8018
  21
-39.8018
  40
1.016
  41
1
  50
0
  51
0
  71
0
  72
1
  73
2
  1
4.7u
0
LINE
8
Red 2
10
85.09
20
-32.258
11
87.63
21
-32.258
0
LINE
8
Red 2
10
85.09
20
-31.242
11
87.63
21
-31.242
0
LINE
8
Red 2
10
86.36
20
-32.258
11
86.36
21
-33.02
0
LINE
8
Red 2
10
86.36
20
-31.242
11
86.36
21
-30.48
0
LINE
8
Red 2
10
86.36
20
-30.48
11
86.36
21
-29.21
  0
TEXT
  7
KICAD
  8
Cyan 2
  10
86.36
  11
86.36
  20
-30.734
  21
-30.734
  40
1.016
  41
1
  50
90
  51
0
  71
0
  72
2
  73
2
  1
%%O
0
LINE
8
Red 2
10
86.36
20
-33.02
11
86.36
21
-34.29
  0
TEXT
  7
KICAD
  8
Cyan 2
  10
86.36
  11
86.36
  20
-32.766
  21
-32.766
  40
1.016
  41
1
  50
90
  51
0
  71
0
  72
0
  73
2
  1
%%O
  0
TEXT
  7
KICAD
  8
Cyan 2
  10
87.8586
  11
87.8586
  20
-29.8958
  21
-29.8958
  40
1.016
  41
1
  50
0
  51
0
  71
0
  72
1
  73
2
  1
C7
  0
TEXT
  7
KICAD
  8
Cyan 2
  10
88.519
  11
88.519
  20
-33.4518
  21
-33.4518
  40
1.016
  41
1
  50
0
  51
0
  71
0
  72
1
  73
2
  1
4.7u
0
LINE
8
Red 2
10
27.94
20
-38.608
11
30.48
21
-38.608
0
LINE
8
Red 2
10
27.94
20
-37.592
11
30.48
21
-37.592
0
LINE
8
Red 2
10
29.21
20
-38.608
11
29.21
21
-39.37
0
LINE
8
Red 2
10
29.21
20
-37.592
11
29.21
21
-36.83
0
LINE
8
Red 2
10
29.21
20
-36.83
11
29.21
21
-35.56
  0
TEXT
  7
KICAD
  8
Cyan 2
  10
29.21
  11
29.21
  20
-37.084
  21
-37.084
  40
1.016
  41
1
  50
90
  51
0
  71
0
  72
2
  73
2
  1
%%O
0
LINE
8
Red 2
10
29.21
20
-39.37
11
29.21
21
-40.64
  0
TEXT
  7
KICAD
  8
Cyan 2
  10
29.21
  11
29.21
  20
-39.116
  21
-39.116
  40
1.016
  41
1
  50
90
  51
0
  71
0
  72
0
  73
2
  1
%%O
  0
TEXT
  7
KICAD
  8
Cyan 2
  10
30.7086
  11
30.7086
  20
-36.2458
  21
-36.2458
  40
1.016
  41
1
  50
0
  51
0
  71
0
  72
1
  73
2
  1
C4
  0
TEXT
  7
KICAD
  8
Cyan 2
  10
31.369
  11
31.369
  20
-39.8018
  21
-39.8018
  40
1.016
  41
1
  50
0
  51
0
  71
0
  72
1
  73
2
  1
4.7u
0
LINE
8
Red 2
10
190.5
20
-132.334
11
190.5
21
-134.366
0
LINE
8
Red 2
10
193.04
20
-132.334
11
193.04
21
-134.366
0
LINE
8
L.Yellow
10
191.008
20
-133.35
11
191.008
21
-131.826
0
LINE
8
L.Yellow
10
191.008
20
-131.826
11
192.532
21
-131.826
0
LINE
8
L.Yellow
10
192.532
20
-131.826
11
192.532
21
-134.874
0
LINE
8
L.Yellow
10
192.532
20
-134.874
11
191.008
21
-134.874
0
LINE
8
L.Yellow
10
191.008
20
-134.874
11
191.008
21
-133.35
0
LINE
8
Red 2
10
191.008
20
-133.35
11
191.008
21
-131.826
0
LINE
8
Red 2
10
191.008
20
-131.826
11
192.532
21
-131.826
0
LINE
8
Red 2
10
192.532
20
-131.826
11
192.532
21
-134.874
0
LINE
8
Red 2
10
192.532
20
-134.874
11
191.008
21
-134.874
0
LINE
8
Red 2
10
191.008
20
-134.874
11
191.008
21
-133.35
0
LINE
8
Red 2
10
190.5
20
-133.35
11
187.96
21
-133.35
0
LINE
8
Red 2
10
191.77
20
-134.874
11
191.77
21
-137.16
0
LINE
8
Red 2
10
193.04
20
-133.35
11
195.58
21
-133.35
  0
TEXT
  7
KICAD
  8
Cyan 2
  10
191.77
  11
191.77
  20
-130.734
  21
-130.734
  40
1.016
  41
1
  50
0
  51
0
  71
0
  72
1
  73
2
  1
X2
  0
TEXT
  7
KICAD
  8
Cyan 2
  10
194.31
  11
194.31
  20
-135.814
  21
-135.814
  40
1.016
  41
1
  50
0
  51
0
  71
0
  72
1
  73
2
  1
8MHz
0
LINE
8
Green 2
10
101.6
20
-30.48
11
201.93
21
-30.48
0
LINE
8
Green 2
10
99.06
20
-27.94
11
191.77
21
-27.94
0
LINE
8
Green 2
10
215.9
20
-30.48
11
215.9
21
-53.34
0
LINE
8
Green 2
10
213.36
20
-27.94
11
213.36
21
-50.8
0
LINE
8
Green 2
10
248.92
20
-43.18
11
248.92
21
-86.36
0
LINE
8
Green 2
10
100.33
20
-66.04
11
100.33
21
-74.93
0
LINE
8
Green 2
10
87.63
20
-66.04
11
100.33
21
-66.04
0
POLYLINE
8
Green 2
66
1
70
1
40
0.508
41
0.508
0
VERTEX
8
Green 2
10
145.796
 20
-43.18
42
1.0
0
VERTEX
8
Green 2
10
146.304
 20
-43.18
42
1.0
0
SEQEND
0
POLYLINE
8
Green 2
66
1
70
1
40
0.508
41
0.508
0
VERTEX
8
Green 2
10
145.796
 20
-53.34
42
1.0
0
VERTEX
8
Green 2
10
146.304
 20
-53.34
42
1.0
0
SEQEND
0
LINE
8
Green 2
10
91.44
20
-20.32
11
86.36
21
-20.32
0
LINE
8
Green 2
10
91.44
20
-17.78
11
91.44
21
-20.32
0
LINE
8
Green 2
10
74.93
20
-27.94
11
74.93
21
-40.64
0
POLYLINE
8
Green 2
66
1
70
1
40
0.508
41
0.508
0
VERTEX
8
Green 2
10
136.906
 20
-33.02
42
1.0
0
VERTEX
8
Green 2
10
137.414
 20
-33.02
42
1.0
0
SEQEND
0
POLYLINE
8
Green 2
66
1
70
1
40
0.508
41
0.508
0
VERTEX
8
Green 2
10
145.796
 20
-33.02
42
1.0
0
VERTEX
8
Green 2
10
146.304
 20
-33.02
42
1.0
0
SEQEND
0
LINE
8
Green 2
10
132.08
20
-33.02
11
146.05
21
-33.02
0
LINE
8
Green 2
10
146.05
20
-53.34
11
146.05
21
-25.4
0
LINE
8
Green 2
10
137.16
20
-35.56
11
137.16
21
-33.02
0
LINE
8
Green 2
10
132.08
20
-35.56
11
132.08
21
-33.02
0
LINE
8
Green 2
10
137.16
20
-43.18
11
137.16
21
-40.64
0
LINE
8
Green 2
10
132.08
20
-40.64
11
132.08
21
-43.18
0
POLYLINE
8
Green 2
66
1
70
1
40
0.508
41
0.508
0
VERTEX
8
Green 2
10
119.126
 20
-48.26
42
1.0
0
VERTEX
8
Green 2
10
119.634
 20
-48.26
42
1.0
0
SEQEND
0
LINE
8
Green 2
10
119.38
20
-50.8
11
119.38
21
-48.26
0
POLYLINE
8
Green 2
66
1
70
1
40
0.508
41
0.508
0
VERTEX
8
Green 2
10
124.206
 20
-48.26
42
1.0
0
VERTEX
8
Green 2
10
124.714
 20
-48.26
42
1.0
0
SEQEND
0
LINE
8
Green 2
10
114.3
20
-50.8
11
114.3
21
-48.26
0
LINE
8
Green 2
10
119.38
20
-58.42
11
119.38
21
-55.88
0
LINE
8
Green 2
10
114.3
20
-55.88
11
114.3
21
-58.42
0
LINE
8
Green 2
10
167.64
20
-96.52
11
165.1
21
-96.52
0
LINE
8
Green 2
10
165.1
20
-96.52
11
165.1
21
-91.44
0
LINE
8
Green 2
10
167.64
20
-101.6
11
143.51
21
-101.6
0
LINE
8
Green 2
10
143.51
20
-101.6
11
143.51
21
-76.2
0
LINE
8
Green 2
10
143.51
20
-76.2
11
148.59
21
-76.2
0
LINE
8
Green 2
10
35.56
20
-40.64
11
35.56
21
-43.18
0
LINE
8
Green 2
10
240.03
20
-91.44
11
240.03
21
-99.06
0
LINE
8
Green 2
10
191.77
20
-137.16
11
191.77
21
-139.7
0
LINE
8
Green 2
10
196.85
20
-133.35
11
195.58
21
-133.35
0
LINE
8
Green 2
10
189.23
20
-127
11
186.69
21
-127
0
LINE
8
Green 2
10
157.48
20
-91.44
11
157.48
21
-92.71
0
LINE
8
Green 2
10
110.49
20
-85.09
11
110.49
21
-86.36
0
LINE
8
Green 2
10
228.6
20
-128.27
11
214.63
21
-128.27
0
LINE
8
Green 2
10
214.63
20
-128.27
11
214.63
21
-125.73
0
LINE
8
Green 2
10
226.06
20
-73.66
11
226.06
21
-76.2
0
LINE
8
Green 2
10
226.06
20
-76.2
11
220.98
21
-76.2
0
LINE
8
Green 2
10
204.47
20
-76.2
11
215.9
21
-76.2
0
LINE
8
Green 2
10
48.26
20
-29.21
11
48.26
21
-45.72
0
LINE
8
Green 2
10
143.51
20
-146.05
11
143.51
21
-143.51
0
LINE
8
Green 2
10
143.51
20
-143.51
11
133.35
21
-143.51
0
LINE
8
Green 2
10
114.3
20
-48.26
11
148.59
21
-48.26
0
LINE
8
Green 2
10
137.16
20
-62.23
11
137.16
21
-59.69
0
LINE
8
Green 2
10
215.9
20
-30.48
11
204.47
21
-30.48
0
LINE
8
Green 2
10
194.31
20
-26.67
11
194.31
21
-27.94
0
LINE
8
Green 2
10
194.31
20
-27.94
11
213.36
21
-27.94
0
LINE
8
Green 2
10
201.93
20
-30.48
11
201.93
21
-26.67
0
LINE
8
Green 2
10
204.47
20
-45.72
11
209.55
21
-45.72
0
LINE
8
Green 2
10
209.55
20
-45.72
11
209.55
21
-66.04
0
LINE
8
Green 2
10
209.55
20
-66.04
11
215.9
21
-66.04
0
LINE
8
Green 2
10
204.47
20
-58.42
11
207.01
21
-58.42
0
LINE
8
Green 2
10
207.01
20
-58.42
11
207.01
21
-71.12
0
LINE
8
Green 2
10
207.01
20
-71.12
11
215.9
21
-71.12
0
LINE
8
Green 2
10
213.36
20
-50.8
11
204.47
21
-50.8
0
LINE
8
Green 2
10
204.47
20
-48.26
11
240.03
21
-48.26
0
LINE
8
Green 2
10
257.81
20
-73.66
11
257.81
21
-60.96
0
LINE
8
Green 2
10
257.81
20
-60.96
11
204.47
21
-60.96
0
LINE
8
Green 2
10
257.81
20
-83.82
11
257.81
21
-86.36
0
LINE
8
Green 2
10
257.81
20
-99.06
11
257.81
21
-91.44
0
LINE
8
Green 2
10
50.8
20
-34.29
11
50.8
21
-29.21
0
LINE
8
Green 2
10
110.49
20
-91.44
11
110.49
21
-93.98
0
LINE
8
Green 2
10
100.33
20
-93.98
11
100.33
21
-91.44
0
LINE
8
Green 2
10
138.43
20
-138.43
11
133.35
21
-138.43
0
LINE
8
Green 2
10
138.43
20
-133.35
11
133.35
21
-133.35
0
LINE
8
Green 2
10
138.43
20
-128.27
11
133.35
21
-128.27
0
LINE
8
Green 2
10
133.35
20
-125.73
11
138.43
21
-125.73
0
LINE
8
Green 2
10
133.35
20
-130.81
11
138.43
21
-130.81
0
LINE
8
Green 2
10
133.35
20
-135.89
11
138.43
21
-135.89
0
LINE
8
Green 2
10
143.51
20
-68.58
11
148.59
21
-68.58
0
LINE
8
Green 2
10
143.51
20
-63.5
11
148.59
21
-63.5
0
LINE
8
Green 2
10
143.51
20
-58.42
11
148.59
21
-58.42
0
LINE
8
Green 2
10
27.94
20
-106.68
11
30.48
21
-106.68
0
LINE
8
Green 2
10
30.48
20
-121.92
11
30.48
21
-111.76
0
LINE
8
Green 2
10
30.48
20
-111.76
11
27.94
21
-111.76
0
POLYLINE
8
Green 2
66
1
70
1
40
0.508
41
0.508
0
VERTEX
8
Green 2
10
30.226
 20
-106.68
42
1.0
0
VERTEX
8
Green 2
10
30.734
 20
-106.68
42
1.0
0
SEQEND
0
LINE
8
Green 2
10
127
20
-45.72
11
148.59
21
-45.72
0
LINE
8
Green 2
10
127
20
-50.8
11
148.59
21
-50.8
0
LINE
8
Green 2
10
148.59
20
-78.74
11
146.05
21
-78.74
0
LINE
8
Green 2
10
146.05
20
-78.74
11
146.05
21
-99.06
0
LINE
8
Green 2
10
146.05
20
-43.18
11
148.59
21
-43.18
0
LINE
8
Green 2
10
30.48
20
-101.6
11
30.48
21
-109.22
0
LINE
8
Green 2
10
29.21
20
-40.64
11
29.21
21
-43.18
0
LINE
8
Green 2
10
80.01
20
-34.29
11
80.01
21
-36.83
0
LINE
8
Green 2
10
30.48
20
-109.22
11
27.94
21
-109.22
0
LINE
8
Green 2
10
148.59
20
-60.96
11
143.51
21
-60.96
0
LINE
8
Green 2
10
148.59
20
-66.04
11
143.51
21
-66.04
0
LINE
8
Green 2
10
148.59
20
-71.12
11
143.51
21
-71.12
0
LINE
8
Blue 2
10
140.97
20
-60.96
11
140.97
21
-135.89
0
LINE
8
Green 2
10
46.99
20
-29.21
11
46.99
21
-40.64
0
LINE
8
Green 2
10
204.47
20
-43.18
11
248.92
21
-43.18
0
LINE
8
Green 2
10
215.9
20
-53.34
11
204.47
21
-53.34
0
LINE
8
Green 2
10
204.47
20
-73.66
11
215.9
21
-73.66
0
LINE
8
Green 2
10
204.47
20
-55.88
11
208.28
21
-55.88
0
LINE
8
Green 2
10
208.28
20
-55.88
11
208.28
21
-68.58
0
LINE
8
Green 2
10
208.28
20
-68.58
11
215.9
21
-68.58
0
LINE
8
Green 2
10
204.47
20
-30.48
11
204.47
21
-26.67
0
LINE
8
Green 2
10
191.77
20
-27.94
11
191.77
21
-26.67
0
LINE
8
Green 2
10
132.08
20
-53.34
11
148.59
21
-53.34
0
LINE
8
Green 2
10
137.16
20
-53.34
11
137.16
21
-54.61
0
LINE
8
Green 2
10
124.46
20
-48.26
11
124.46
21
-116.84
0
LINE
8
Green 2
10
124.46
20
-116.84
11
143.51
21
-116.84
0
LINE
8
Green 2
10
143.51
20
-116.84
11
143.51
21
-140.97
0
LINE
8
Green 2
10
143.51
20
-140.97
11
133.35
21
-140.97
0
LINE
8
Green 2
10
86.36
20
-34.29
11
86.36
21
-36.83
0
LINE
8
Green 2
10
44.45
20
-40.64
11
44.45
21
-45.72
0
LINE
8
Green 2
10
69.85
20
-73.66
11
69.85
21
-77.47
0
LINE
8
Green 2
10
215.9
20
-78.74
11
204.47
21
-78.74
0
LINE
8
Blue 2
10
218.44
20
-68.58
11
218.44
21
-123.19
0
LINE
8
Green 2
10
228.6
20
-125.73
11
220.98
21
-125.73
0
LINE
8
Green 2
10
228.6
20
-115.57
11
220.98
21
-115.57
0
LINE
8
Green 2
10
220.98
20
-120.65
11
228.6
21
-120.65
0
LINE
8
Green 2
10
228.6
20
-118.11
11
220.98
21
-118.11
0
LINE
8
Green 2
10
228.6
20
-113.03
11
220.98
21
-113.03
0
LINE
8
Green 2
10
220.98
20
-123.19
11
228.6
21
-123.19
0
LINE
8
Green 2
10
228.6
20
-73.66
11
228.6
21
-78.74
0
LINE
8
Green 2
10
228.6
20
-78.74
11
220.98
21
-78.74
0
LINE
8
Green 2
10
228.6
20
-130.81
11
226.06
21
-130.81
0
LINE
8
Green 2
10
226.06
20
-130.81
11
226.06
21
-134.62
0
LINE
8
Green 2
10
100.33
20
-85.09
11
100.33
21
-86.36
0
LINE
8
Green 2
10
248.92
20
-91.44
11
248.92
21
-99.06
0
LINE
8
Green 2
10
157.48
20
-120.65
11
157.48
21
-128.27
0
POLYLINE
8
Green 2
66
1
70
1
40
0.508
41
0.508
0
VERTEX
8
Green 2
10
157.226
 20
-99.06
42
1.0
0
VERTEX
8
Green 2
10
157.734
 20
-99.06
42
1.0
0
SEQEND
0
LINE
8
Green 2
10
157.48
20
-97.79
11
157.48
21
-115.57
0
LINE
8
Green 2
10
186.69
20
-119.38
11
186.69
21
-116.84
0
LINE
8
Green 2
10
196.85
20
-124.46
11
196.85
21
-133.35
0
POLYLINE
8
Green 2
66
1
70
1
40
0.508
41
0.508
0
VERTEX
8
Green 2
10
186.436
 20
-127
42
1.0
0
VERTEX
8
Green 2
10
186.944
 20
-127
42
1.0
0
SEQEND
0
POLYLINE
8
Green 2
66
1
70
1
40
0.508
41
0.508
0
VERTEX
8
Green 2
10
196.596
 20
-127
42
1.0
0
VERTEX
8
Green 2
10
197.104
 20
-127
42
1.0
0
SEQEND
0
LINE
8
Green 2
10
196.85
20
-116.84
11
196.85
21
-119.38
0
LINE
8
Green 2
10
186.69
20
-124.46
11
186.69
21
-133.35
0
LINE
8
Green 2
10
194.31
20
-127
11
196.85
21
-127
0
LINE
8
Green 2
10
186.69
20
-133.35
11
187.96
21
-133.35
0
LINE
8
Green 2
10
146.05
20
-99.06
11
167.64
21
-99.06
0
LINE
8
Green 2
10
167.64
20
-104.14
11
165.1
21
-104.14
0
LINE
8
Green 2
10
165.1
20
-104.14
11
165.1
21
-128.27
0
LINE
8
Green 2
10
29.21
20
-27.94
11
29.21
21
-35.56
0
LINE
8
Green 2
10
48.26
20
-50.8
11
48.26
21
-58.42
0
LINE
8
Green 2
10
44.45
20
-55.88
11
44.45
21
-50.8
0
LINE
8
Green 2
10
48.26
20
-58.42
11
57.15
21
-58.42
0
LINE
8
Green 2
10
57.15
20
-55.88
11
44.45
21
-55.88
0
LINE
8
Green 2
10
45.72
20
-31.75
11
45.72
21
-29.21
0
LINE
8
Green 2
10
29.21
20
-31.75
11
69.85
21
-31.75
0
POLYLINE
8
Green 2
66
1
70
1
40
0.508
41
0.508
0
VERTEX
8
Green 2
10
28.956
 20
-31.75
42
1.0
0
VERTEX
8
Green 2
10
29.464
 20
-31.75
42
1.0
0
SEQEND
0
LINE
8
Green 2
10
69.85
20
-31.75
11
69.85
21
-40.64
0
POLYLINE
8
Green 2
66
1
70
1
40
0.508
41
0.508
0
VERTEX
8
Green 2
10
45.466
 20
-31.75
42
1.0
0
VERTEX
8
Green 2
10
45.974
 20
-31.75
42
1.0
0
SEQEND
0
LINE
8
Green 2
10
46.99
20
-40.64
11
44.45
21
-40.64
0
LINE
8
Green 2
10
54.61
20
-45.72
11
57.15
21
-45.72
0
LINE
8
Green 2
10
55.88
20
-45.72
11
55.88
21
-27.94
0
LINE
8
Green 2
10
55.88
20
-27.94
11
86.36
21
-27.94
0
LINE
8
Green 2
10
80.01
20
-27.94
11
80.01
21
-29.21
0
LINE
8
Green 2
10
86.36
20
-22.86
11
86.36
21
-29.21
0
POLYLINE
8
Green 2
66
1
70
1
40
0.508
41
0.508
0
VERTEX
8
Green 2
10
79.756
 20
-27.94
42
1.0
0
VERTEX
8
Green 2
10
80.264
 20
-27.94
42
1.0
0
SEQEND
0
POLYLINE
8
Green 2
66
1
70
1
40
0.508
41
0.508
0
VERTEX
8
Green 2
10
86.106
 20
-27.94
42
1.0
0
VERTEX
8
Green 2
10
86.614
 20
-27.94
42
1.0
0
SEQEND
0
LINE
8
Green 2
10
72.39
20
-73.66
11
72.39
21
-74.93
0
LINE
8
Green 2
10
69.85
20
-74.93
11
74.93
21
-74.93
0
POLYLINE
8
Green 2
66
1
70
1
40
0.508
41
0.508
0
VERTEX
8
Green 2
10
69.596
 20
-74.93
42
1.0
0
VERTEX
8
Green 2
10
70.104
 20
-74.93
42
1.0
0
SEQEND
0
LINE
8
Green 2
10
74.93
20
-74.93
11
74.93
21
-73.66
0
POLYLINE
8
Green 2
66
1
70
1
40
0.508
41
0.508
0
VERTEX
8
Green 2
10
72.136
 20
-74.93
42
1.0
0
VERTEX
8
Green 2
10
72.644
 20
-74.93
42
1.0
0
SEQEND
0
LINE
8
Green 2
10
87.63
20
-63.5
11
110.49
21
-63.5
0
LINE
8
Green 2
10
110.49
20
-63.5
11
110.49
21
-74.93
0
LINE
8
Green 2
10
99.06
20
-27.94
11
99.06
21
-48.26
0
LINE
8
Green 2
10
99.06
20
-48.26
11
87.63
21
-48.26
0
LINE
8
Green 2
10
87.63
20
-45.72
11
101.6
21
-45.72
0
LINE
8
Green 2
10
101.6
20
-45.72
11
101.6
21
-30.48
0
LINE
8
Green 2
10
35.56
20
-31.75
11
35.56
21
-35.56
0
POLYLINE
8
Green 2
66
1
70
1
40
0.508
41
0.508
0
VERTEX
8
Green 2
10
35.306
 20
-31.75
42
1.0
0
VERTEX
8
Green 2
10
35.814
 20
-31.75
42
1.0
0
SEQEND
0
LINE
8
Green 2
10
54.61
20
-73.66
11
54.61
21
-76.2
0
POLYLINE
8
Green 2
66
1
70
1
40
0.508
41
0.508
0
VERTEX
8
Green 2
10
54.356
 20
-66.04
42
1.0
0
VERTEX
8
Green 2
10
54.864
 20
-66.04
42
1.0
0
SEQEND
0
POLYLINE
8
Green 2
66
1
70
1
40
0.508
41
0.508
0
VERTEX
8
Green 2
10
74.676
 20
-27.94
42
1.0
0
VERTEX
8
Green 2
10
75.184
 20
-27.94
42
1.0
0
SEQEND
0
POLYLINE
8
Green 2
66
1
70
1
40
0.508
41
0.508
0
VERTEX
8
Green 2
10
55.626
 20
-45.72
42
1.0
0
VERTEX
8
Green 2
10
56.134
 20
-45.72
42
1.0
0
SEQEND
0
LINE
8
Green 2
10
54.61
20
-45.72
11
54.61
21
-49.53
0
LINE
8
Green 2
10
54.61
20
-54.61
11
54.61
21
-68.58
0
LINE
8
Green 2
10
57.15
20
-66.04
11
54.61
21
-66.04
0
LINE
8
Green 2
10
127
20
-45.72
11
127
21
-62.23
0
POLYLINE
8
Green 2
66
1
70
1
40
0.508
41
0.508
0
VERTEX
8
Green 2
10
126.746
 20
-50.8
42
1.0
0
VERTEX
8
Green 2
10
127.254
 20
-50.8
42
1.0
0
SEQEND
0
LINE
8
Green 2
10
132.08
20
-53.34
11
132.08
21
-54.61
0
POLYLINE
8
Green 2
66
1
70
1
40
0.508
41
0.508
0
VERTEX
8
Green 2
10
136.906
 20
-53.34
42
1.0
0
VERTEX
8
Green 2
10
137.414
 20
-53.34
42
1.0
0
SEQEND
0
LINE
8
Green 2
10
132.08
20
-59.69
11
132.08
21
-62.23
0
LINE
8
Green 2
10
240.03
20
-48.26
11
240.03
21
-86.36
0
LINE
8
Green 2
10
87.63
20
-50.8
11
90.17
21
-50.8
0
LINE
8
Green 2
10
87.63
20
-53.34
11
90.17
21
-53.34
0
LINE
8
Green 2
10
87.63
20
-60.96
11
90.17
21
-60.96
0
LINE
8
Green 2
10
87.63
20
-68.58
11
90.17
21
-68.58
0
CIRCLE
8
Red 2
10
92.71
20
-50.8
40
0.508
0
LINE
8
Red 2
10
92.202
20
-50.8
11
90.17
21
-50.8
  0
TEXT
  7
KICAD
  8
Cyan 2
  10
95.25
  11
95.25
  20
-50.7238
  21
-50.7238
  40
1.016
  41
1
  50
0
  51
0
  71
0
  72
1
  73
2
  1
TP1
0
CIRCLE
8
Red 2
10
92.71
20
-53.34
40
0.508
0
LINE
8
Red 2
10
92.202
20
-53.34
11
90.17
21
-53.34
  0
TEXT
  7
KICAD
  8
Cyan 2
  10
95.25
  11
95.25
  20
-53.2638
  21
-53.2638
  40
1.016
  41
1
  50
0
  51
0
  71
0
  72
1
  73
2
  1
TP2
0
CIRCLE
8
Red 2
10
92.71
20
-60.96
40
0.508
0
LINE
8
Red 2
10
92.202
20
-60.96
11
90.17
21
-60.96
  0
TEXT
  7
KICAD
  8
Cyan 2
  10
95.25
  11
95.25
  20
-60.8838
  21
-60.8838
  40
1.016
  41
1
  50
0
  51
0
  71
0
  72
1
  73
2
  1
TP3
0
CIRCLE
8
Red 2
10
92.71
20
-68.58
40
0.508
0
LINE
8
Red 2
10
92.202
20
-68.58
11
90.17
21
-68.58
  0
TEXT
  7
KICAD
  8
Cyan 2
  10
95.25
  11
95.25
  20
-68.5038
  21
-68.5038
  40
1.016
  41
1
  50
0
  51
0
  71
0
  72
1
  73
2
  1
TP4
  0
ENDSEC
  0
EOF
