M48
INCH,TZ
T1C0.015
T2C0.040
T3C0.045
%
G90
G05
T1
X062000Y-031000
X062500Y-030500
X062500Y-031500
X063000Y-031000
X063080Y-047250
X063200Y-037000
X064100Y-039900
X064300Y-036100
X064300Y-037900
X064414Y-035425
X064500Y-032000
X064600Y-044600
X064702Y-034819
X065000Y-041000
X065020Y-047520
X065200Y-045950
X065370Y-042591
X065400Y-030500
X065600Y-043600
X065726Y-034095
X065900Y-039900
X065900Y-042612
X065911Y-031852
X066108Y-043690
X066224Y-032041
X066286Y-044687
X066400Y-030500
X066600Y-042100
X066835Y-033631
X066983Y-033290
X067967Y-033764
X068347Y-035255
X068379Y-035679
X068430Y-034897
X069400Y-034500
T2
X060615Y-034720
X060615Y-037280
X060800Y-039700
X060800Y-040700
X060800Y-042200
X060800Y-043200
X060800Y-044200
X060800Y-045200
X062000Y-046500
X062200Y-039700
X062200Y-040700
X062385Y-034720
X062385Y-037280
X063000Y-046500
X064000Y-046500
X065000Y-046500
X066000Y-046500
X067000Y-046500
X067615Y-037220
X067615Y-039780
X067615Y-041220
X067615Y-043780
X067900Y-031000
X067900Y-032000
X068000Y-046500
X069000Y-031000
X069000Y-032000
X069000Y-033000
X069000Y-046500
X069385Y-037220
X069385Y-039780
X069385Y-041220
X069385Y-043780
T3
X062000Y-048500
X063000Y-048500
X064000Y-048500
X065000Y-048500
X066000Y-048500
X067000Y-048500
X068000Y-048500
X069000Y-048500
T0
M30
