G04 (created by PCBNEW-RS274X (2012-01-19 BZR 3256)-stable) date 9/30/2012 4:07:16 PM*
G01*
G70*
G90*
%MOIN*%
G04 Gerber Fmt 3.4, Leading zero omitted, Abs format*
%FSLAX34Y34*%
G04 APERTURE LIST*
%ADD10C,0.006000*%
%ADD11C,0.012000*%
%ADD12C,0.004000*%
%ADD13C,0.015000*%
%ADD14C,0.003900*%
%ADD15C,0.005000*%
%ADD16C,0.002600*%
%ADD17C,0.010000*%
G04 APERTURE END LIST*
G54D10*
G54D11*
X71114Y-32286D02*
X71200Y-32324D01*
X71343Y-32324D01*
X71400Y-32286D01*
X71429Y-32248D01*
X71457Y-32171D01*
X71457Y-32095D01*
X71429Y-32019D01*
X71400Y-31981D01*
X71343Y-31943D01*
X71229Y-31905D01*
X71171Y-31867D01*
X71143Y-31829D01*
X71114Y-31752D01*
X71114Y-31676D01*
X71143Y-31600D01*
X71171Y-31562D01*
X71229Y-31524D01*
X71371Y-31524D01*
X71457Y-31562D01*
X71714Y-32324D02*
X71714Y-31524D01*
X72286Y-32324D02*
X72000Y-32324D01*
X72000Y-31524D01*
X72486Y-32324D02*
X72486Y-31524D01*
X72829Y-32324D02*
X72572Y-31867D01*
X72829Y-31524D02*
X72486Y-31981D01*
X73457Y-31524D02*
X73800Y-31524D01*
X73629Y-32324D02*
X73629Y-31524D01*
X74114Y-31524D02*
X74228Y-31524D01*
X74286Y-31562D01*
X74343Y-31638D01*
X74371Y-31790D01*
X74371Y-32057D01*
X74343Y-32210D01*
X74286Y-32286D01*
X74228Y-32324D01*
X74114Y-32324D01*
X74057Y-32286D01*
X74000Y-32210D01*
X73971Y-32057D01*
X73971Y-31790D01*
X74000Y-31638D01*
X74057Y-31562D01*
X74114Y-31524D01*
X74629Y-32324D02*
X74629Y-31524D01*
X74857Y-31524D01*
X74915Y-31562D01*
X74943Y-31600D01*
X74972Y-31676D01*
X74972Y-31790D01*
X74943Y-31867D01*
X74915Y-31905D01*
X74857Y-31943D01*
X74629Y-31943D01*
G54D12*
X61563Y-45090D02*
X61546Y-45081D01*
X61520Y-45081D01*
X61495Y-45090D01*
X61477Y-45110D01*
X61469Y-45129D01*
X61460Y-45167D01*
X61460Y-45195D01*
X61469Y-45233D01*
X61477Y-45252D01*
X61495Y-45271D01*
X61520Y-45281D01*
X61537Y-45281D01*
X61563Y-45271D01*
X61572Y-45262D01*
X61572Y-45195D01*
X61537Y-45195D01*
X61649Y-45281D02*
X61649Y-45081D01*
X61752Y-45281D01*
X61752Y-45081D01*
X61838Y-45281D02*
X61838Y-45081D01*
X61881Y-45081D01*
X61906Y-45090D01*
X61924Y-45110D01*
X61932Y-45129D01*
X61941Y-45167D01*
X61941Y-45195D01*
X61932Y-45233D01*
X61924Y-45252D01*
X61906Y-45271D01*
X61881Y-45281D01*
X61838Y-45281D01*
X61507Y-44371D02*
X61533Y-44381D01*
X61576Y-44381D01*
X61593Y-44371D01*
X61602Y-44362D01*
X61610Y-44343D01*
X61610Y-44324D01*
X61602Y-44305D01*
X61593Y-44295D01*
X61576Y-44286D01*
X61542Y-44276D01*
X61524Y-44267D01*
X61516Y-44257D01*
X61507Y-44238D01*
X61507Y-44219D01*
X61516Y-44200D01*
X61524Y-44190D01*
X61542Y-44181D01*
X61584Y-44181D01*
X61610Y-44190D01*
X61747Y-44276D02*
X61773Y-44286D01*
X61781Y-44295D01*
X61790Y-44314D01*
X61790Y-44343D01*
X61781Y-44362D01*
X61773Y-44371D01*
X61755Y-44381D01*
X61687Y-44381D01*
X61687Y-44181D01*
X61747Y-44181D01*
X61764Y-44190D01*
X61773Y-44200D01*
X61781Y-44219D01*
X61781Y-44238D01*
X61773Y-44257D01*
X61764Y-44267D01*
X61747Y-44276D01*
X61687Y-44276D01*
X61850Y-44181D02*
X61893Y-44381D01*
X61927Y-44238D01*
X61961Y-44381D01*
X62004Y-44181D01*
X62047Y-44181D02*
X62150Y-44181D01*
X62099Y-44381D02*
X62099Y-44181D01*
X62313Y-44362D02*
X62304Y-44371D01*
X62278Y-44381D01*
X62261Y-44381D01*
X62236Y-44371D01*
X62218Y-44352D01*
X62210Y-44333D01*
X62201Y-44295D01*
X62201Y-44267D01*
X62210Y-44229D01*
X62218Y-44210D01*
X62236Y-44190D01*
X62261Y-44181D01*
X62278Y-44181D01*
X62304Y-44190D01*
X62313Y-44200D01*
X62390Y-44381D02*
X62390Y-44181D01*
X62493Y-44381D02*
X62416Y-44267D01*
X62493Y-44181D02*
X62390Y-44295D01*
X61460Y-43271D02*
X61486Y-43281D01*
X61529Y-43281D01*
X61546Y-43271D01*
X61555Y-43262D01*
X61563Y-43243D01*
X61563Y-43224D01*
X61555Y-43205D01*
X61546Y-43195D01*
X61529Y-43186D01*
X61495Y-43176D01*
X61477Y-43167D01*
X61469Y-43157D01*
X61460Y-43138D01*
X61460Y-43119D01*
X61469Y-43100D01*
X61477Y-43090D01*
X61495Y-43081D01*
X61537Y-43081D01*
X61563Y-43090D01*
X61700Y-43176D02*
X61726Y-43186D01*
X61734Y-43195D01*
X61743Y-43214D01*
X61743Y-43243D01*
X61734Y-43262D01*
X61726Y-43271D01*
X61708Y-43281D01*
X61640Y-43281D01*
X61640Y-43081D01*
X61700Y-43081D01*
X61717Y-43090D01*
X61726Y-43100D01*
X61734Y-43119D01*
X61734Y-43138D01*
X61726Y-43157D01*
X61717Y-43167D01*
X61700Y-43176D01*
X61640Y-43176D01*
X61803Y-43081D02*
X61846Y-43281D01*
X61880Y-43138D01*
X61914Y-43281D01*
X61957Y-43081D01*
X62000Y-43081D02*
X62103Y-43081D01*
X62052Y-43281D02*
X62052Y-43081D01*
X62163Y-43281D02*
X62163Y-43081D01*
X62206Y-43081D01*
X62231Y-43090D01*
X62249Y-43110D01*
X62257Y-43129D01*
X62266Y-43167D01*
X62266Y-43195D01*
X62257Y-43233D01*
X62249Y-43252D01*
X62231Y-43271D01*
X62206Y-43281D01*
X62163Y-43281D01*
X62343Y-43281D02*
X62343Y-43081D01*
X62463Y-43081D02*
X62497Y-43081D01*
X62515Y-43090D01*
X62532Y-43110D01*
X62540Y-43148D01*
X62540Y-43214D01*
X62532Y-43252D01*
X62515Y-43271D01*
X62497Y-43281D01*
X62463Y-43281D01*
X62446Y-43271D01*
X62429Y-43252D01*
X62420Y-43214D01*
X62420Y-43148D01*
X62429Y-43110D01*
X62446Y-43090D01*
X62463Y-43081D01*
X61460Y-42081D02*
X61520Y-42281D01*
X61580Y-42081D01*
X61743Y-42262D02*
X61734Y-42271D01*
X61708Y-42281D01*
X61691Y-42281D01*
X61666Y-42271D01*
X61648Y-42252D01*
X61640Y-42233D01*
X61631Y-42195D01*
X61631Y-42167D01*
X61640Y-42129D01*
X61648Y-42110D01*
X61666Y-42090D01*
X61691Y-42081D01*
X61708Y-42081D01*
X61734Y-42090D01*
X61743Y-42100D01*
X61923Y-42262D02*
X61914Y-42271D01*
X61888Y-42281D01*
X61871Y-42281D01*
X61846Y-42271D01*
X61828Y-42252D01*
X61820Y-42233D01*
X61811Y-42195D01*
X61811Y-42167D01*
X61820Y-42129D01*
X61828Y-42110D01*
X61846Y-42090D01*
X61871Y-42081D01*
X61888Y-42081D01*
X61914Y-42090D01*
X61923Y-42100D01*
G54D13*
X60000Y-50000D02*
X70000Y-50000D01*
X60000Y-30000D02*
X60000Y-50000D01*
X70000Y-30000D02*
X60000Y-30000D01*
X70000Y-30000D02*
X70000Y-50000D01*
G54D14*
X67946Y-35906D02*
X67945Y-35913D01*
X67942Y-35921D01*
X67939Y-35928D01*
X67934Y-35934D01*
X67928Y-35939D01*
X67921Y-35942D01*
X67914Y-35945D01*
X67906Y-35945D01*
X67899Y-35945D01*
X67892Y-35943D01*
X67885Y-35939D01*
X67879Y-35934D01*
X67873Y-35928D01*
X67870Y-35921D01*
X67867Y-35914D01*
X67867Y-35906D01*
X67867Y-35899D01*
X67869Y-35892D01*
X67873Y-35885D01*
X67878Y-35879D01*
X67884Y-35874D01*
X67890Y-35870D01*
X67898Y-35867D01*
X67906Y-35867D01*
X67912Y-35867D01*
X67920Y-35869D01*
X67927Y-35873D01*
X67933Y-35878D01*
X67938Y-35883D01*
X67942Y-35890D01*
X67945Y-35898D01*
X67945Y-35905D01*
X67946Y-35906D01*
X67827Y-35984D02*
X67984Y-35984D01*
X67984Y-35984D02*
X67984Y-35827D01*
X67984Y-34173D02*
X67984Y-34016D01*
X67984Y-34016D02*
X67827Y-34016D01*
X66173Y-34016D02*
X66016Y-34016D01*
X66016Y-34173D02*
X66016Y-34016D01*
X66016Y-35984D02*
X66016Y-35827D01*
X66016Y-35984D02*
X66173Y-35984D01*
G54D13*
X61420Y-33680D02*
X61700Y-33680D01*
X64110Y-30140D02*
X64110Y-30350D01*
X61090Y-30140D02*
X61090Y-30350D01*
X64120Y-31680D02*
X64120Y-32500D01*
X61080Y-31680D02*
X61080Y-32520D01*
X63500Y-33680D02*
X63760Y-33680D01*
X61090Y-30140D02*
X64110Y-30140D01*
X69200Y-38500D02*
X69186Y-38635D01*
X69147Y-38766D01*
X69083Y-38887D01*
X68996Y-38993D01*
X68891Y-39080D01*
X68771Y-39145D01*
X68640Y-39185D01*
X68504Y-39199D01*
X68369Y-39187D01*
X68238Y-39149D01*
X68117Y-39085D01*
X68011Y-39000D01*
X67923Y-38895D01*
X67857Y-38775D01*
X67816Y-38645D01*
X67801Y-38509D01*
X67812Y-38374D01*
X67850Y-38243D01*
X67912Y-38121D01*
X67997Y-38014D01*
X68101Y-37926D01*
X68220Y-37859D01*
X68350Y-37817D01*
X68486Y-37801D01*
X68621Y-37811D01*
X68753Y-37848D01*
X68875Y-37909D01*
X68982Y-37994D01*
X69072Y-38097D01*
X69139Y-38216D01*
X69182Y-38345D01*
X69199Y-38481D01*
X69200Y-38500D01*
X68900Y-39700D02*
X68100Y-39700D01*
X69700Y-37600D02*
X69700Y-39400D01*
X68100Y-37300D02*
X68900Y-37300D01*
X67300Y-39400D02*
X67300Y-37600D01*
X62200Y-36000D02*
X62186Y-36135D01*
X62147Y-36266D01*
X62083Y-36387D01*
X61996Y-36493D01*
X61891Y-36580D01*
X61771Y-36645D01*
X61640Y-36685D01*
X61504Y-36699D01*
X61369Y-36687D01*
X61238Y-36649D01*
X61117Y-36585D01*
X61011Y-36500D01*
X60923Y-36395D01*
X60857Y-36275D01*
X60816Y-36145D01*
X60801Y-36009D01*
X60812Y-35874D01*
X60850Y-35743D01*
X60912Y-35621D01*
X60997Y-35514D01*
X61101Y-35426D01*
X61220Y-35359D01*
X61350Y-35317D01*
X61486Y-35301D01*
X61621Y-35311D01*
X61753Y-35348D01*
X61875Y-35409D01*
X61982Y-35494D01*
X62072Y-35597D01*
X62139Y-35716D01*
X62182Y-35845D01*
X62199Y-35981D01*
X62200Y-36000D01*
X61100Y-34800D02*
X61900Y-34800D01*
X60300Y-36900D02*
X60300Y-35100D01*
X61900Y-37200D02*
X61100Y-37200D01*
X62700Y-35100D02*
X62700Y-36900D01*
X69200Y-42500D02*
X69186Y-42635D01*
X69147Y-42766D01*
X69083Y-42887D01*
X68996Y-42993D01*
X68891Y-43080D01*
X68771Y-43145D01*
X68640Y-43185D01*
X68504Y-43199D01*
X68369Y-43187D01*
X68238Y-43149D01*
X68117Y-43085D01*
X68011Y-43000D01*
X67923Y-42895D01*
X67857Y-42775D01*
X67816Y-42645D01*
X67801Y-42509D01*
X67812Y-42374D01*
X67850Y-42243D01*
X67912Y-42121D01*
X67997Y-42014D01*
X68101Y-41926D01*
X68220Y-41859D01*
X68350Y-41817D01*
X68486Y-41801D01*
X68621Y-41811D01*
X68753Y-41848D01*
X68875Y-41909D01*
X68982Y-41994D01*
X69072Y-42097D01*
X69139Y-42216D01*
X69182Y-42345D01*
X69199Y-42481D01*
X69200Y-42500D01*
X68900Y-43700D02*
X68100Y-43700D01*
X69700Y-41600D02*
X69700Y-43400D01*
X68100Y-41300D02*
X68900Y-41300D01*
X67300Y-43400D02*
X67300Y-41600D01*
G54D10*
X63250Y-43400D02*
X66750Y-43400D01*
X66750Y-43400D02*
X66750Y-44800D01*
X66750Y-44800D02*
X63250Y-44800D01*
X63250Y-44800D02*
X63250Y-43400D01*
G54D15*
X63591Y-44600D02*
X63588Y-44627D01*
X63580Y-44653D01*
X63567Y-44678D01*
X63550Y-44699D01*
X63528Y-44716D01*
X63504Y-44729D01*
X63478Y-44738D01*
X63450Y-44740D01*
X63424Y-44738D01*
X63398Y-44730D01*
X63373Y-44717D01*
X63352Y-44700D01*
X63334Y-44679D01*
X63321Y-44655D01*
X63313Y-44629D01*
X63310Y-44601D01*
X63312Y-44575D01*
X63319Y-44549D01*
X63332Y-44524D01*
X63349Y-44503D01*
X63370Y-44485D01*
X63394Y-44471D01*
X63420Y-44463D01*
X63448Y-44460D01*
X63474Y-44462D01*
X63500Y-44469D01*
X63525Y-44481D01*
X63547Y-44498D01*
X63565Y-44519D01*
X63578Y-44543D01*
X63587Y-44569D01*
X63590Y-44597D01*
X63591Y-44600D01*
X63250Y-43850D02*
X63550Y-43850D01*
X63550Y-43850D02*
X63550Y-44350D01*
X63550Y-44350D02*
X63250Y-44350D01*
X67850Y-33550D02*
X67850Y-32650D01*
X67850Y-32650D02*
X68350Y-32650D01*
X68350Y-32650D02*
X68350Y-33550D01*
X68350Y-33550D02*
X67850Y-33550D01*
X67150Y-33550D02*
X67150Y-32650D01*
X67150Y-32650D02*
X67650Y-32650D01*
X67650Y-32650D02*
X67650Y-33550D01*
X67650Y-33550D02*
X67150Y-33550D01*
X65000Y-35200D02*
X65000Y-34300D01*
X65000Y-34300D02*
X65500Y-34300D01*
X65500Y-34300D02*
X65500Y-35200D01*
X65500Y-35200D02*
X65000Y-35200D01*
X65550Y-37350D02*
X66450Y-37350D01*
X66450Y-37350D02*
X66450Y-37850D01*
X66450Y-37850D02*
X65550Y-37850D01*
X65550Y-37850D02*
X65550Y-37350D01*
X65550Y-38150D02*
X66450Y-38150D01*
X66450Y-38150D02*
X66450Y-38650D01*
X66450Y-38650D02*
X65550Y-38650D01*
X65550Y-38650D02*
X65550Y-38150D01*
X63550Y-34750D02*
X64450Y-34750D01*
X64450Y-34750D02*
X64450Y-35250D01*
X64450Y-35250D02*
X63550Y-35250D01*
X63550Y-35250D02*
X63550Y-34750D01*
X63550Y-34050D02*
X64450Y-34050D01*
X64450Y-34050D02*
X64450Y-34550D01*
X64450Y-34550D02*
X63550Y-34550D01*
X63550Y-34550D02*
X63550Y-34050D01*
X64250Y-41250D02*
X64250Y-42150D01*
X64250Y-42150D02*
X63750Y-42150D01*
X63750Y-42150D02*
X63750Y-41250D01*
X63750Y-41250D02*
X64250Y-41250D01*
X66250Y-41250D02*
X66250Y-42150D01*
X66250Y-42150D02*
X65750Y-42150D01*
X65750Y-42150D02*
X65750Y-41250D01*
X65750Y-41250D02*
X66250Y-41250D01*
G54D16*
X68823Y-34823D02*
X69177Y-34823D01*
X69177Y-34823D02*
X69177Y-34666D01*
X68823Y-34666D02*
X69177Y-34666D01*
X68823Y-34823D02*
X68823Y-34666D01*
X68823Y-35334D02*
X69177Y-35334D01*
X69177Y-35334D02*
X69177Y-35177D01*
X68823Y-35177D02*
X69177Y-35177D01*
X68823Y-35334D02*
X68823Y-35177D01*
X68823Y-35000D02*
X68882Y-35000D01*
X68882Y-35000D02*
X68882Y-34882D01*
X68823Y-34882D02*
X68882Y-34882D01*
X68823Y-35000D02*
X68823Y-34882D01*
X69118Y-35000D02*
X69177Y-35000D01*
X69177Y-35000D02*
X69177Y-34882D01*
X69118Y-34882D02*
X69177Y-34882D01*
X69118Y-35000D02*
X69118Y-34882D01*
X68941Y-35000D02*
X69059Y-35000D01*
X69059Y-35000D02*
X69059Y-34882D01*
X68941Y-34882D02*
X69059Y-34882D01*
X68941Y-35000D02*
X68941Y-34882D01*
G54D12*
X68843Y-34823D02*
X68843Y-35177D01*
X69157Y-34823D02*
X69157Y-35177D01*
G54D16*
X65223Y-31023D02*
X65577Y-31023D01*
X65577Y-31023D02*
X65577Y-30866D01*
X65223Y-30866D02*
X65577Y-30866D01*
X65223Y-31023D02*
X65223Y-30866D01*
X65223Y-31534D02*
X65577Y-31534D01*
X65577Y-31534D02*
X65577Y-31377D01*
X65223Y-31377D02*
X65577Y-31377D01*
X65223Y-31534D02*
X65223Y-31377D01*
X65223Y-31200D02*
X65282Y-31200D01*
X65282Y-31200D02*
X65282Y-31082D01*
X65223Y-31082D02*
X65282Y-31082D01*
X65223Y-31200D02*
X65223Y-31082D01*
X65518Y-31200D02*
X65577Y-31200D01*
X65577Y-31200D02*
X65577Y-31082D01*
X65518Y-31082D02*
X65577Y-31082D01*
X65518Y-31200D02*
X65518Y-31082D01*
X65341Y-31200D02*
X65459Y-31200D01*
X65459Y-31200D02*
X65459Y-31082D01*
X65341Y-31082D02*
X65459Y-31082D01*
X65341Y-31200D02*
X65341Y-31082D01*
G54D12*
X65243Y-31023D02*
X65243Y-31377D01*
X65557Y-31023D02*
X65557Y-31377D01*
G54D16*
X66223Y-31023D02*
X66577Y-31023D01*
X66577Y-31023D02*
X66577Y-30866D01*
X66223Y-30866D02*
X66577Y-30866D01*
X66223Y-31023D02*
X66223Y-30866D01*
X66223Y-31534D02*
X66577Y-31534D01*
X66577Y-31534D02*
X66577Y-31377D01*
X66223Y-31377D02*
X66577Y-31377D01*
X66223Y-31534D02*
X66223Y-31377D01*
X66223Y-31200D02*
X66282Y-31200D01*
X66282Y-31200D02*
X66282Y-31082D01*
X66223Y-31082D02*
X66282Y-31082D01*
X66223Y-31200D02*
X66223Y-31082D01*
X66518Y-31200D02*
X66577Y-31200D01*
X66577Y-31200D02*
X66577Y-31082D01*
X66518Y-31082D02*
X66577Y-31082D01*
X66518Y-31200D02*
X66518Y-31082D01*
X66341Y-31200D02*
X66459Y-31200D01*
X66459Y-31200D02*
X66459Y-31082D01*
X66341Y-31082D02*
X66459Y-31082D01*
X66341Y-31200D02*
X66341Y-31082D01*
G54D12*
X66243Y-31023D02*
X66243Y-31377D01*
X66557Y-31023D02*
X66557Y-31377D01*
G54D17*
X69500Y-46000D02*
X61500Y-46000D01*
X61500Y-47000D02*
X69500Y-47000D01*
X69500Y-46000D02*
X69500Y-47000D01*
X61500Y-47000D02*
X61500Y-46000D01*
X68500Y-47000D02*
X68500Y-46000D01*
G54D10*
X68500Y-30500D02*
X69500Y-30500D01*
X69500Y-30500D02*
X69500Y-33500D01*
X69500Y-33500D02*
X68500Y-33500D01*
X68500Y-33500D02*
X68500Y-30500D01*
X69500Y-31500D02*
X68500Y-31500D01*
G54D17*
X61700Y-39200D02*
X61700Y-41200D01*
X62700Y-39200D02*
X62700Y-41200D01*
X61700Y-39200D02*
X62700Y-39200D01*
X62700Y-41200D02*
X61700Y-41200D01*
X62700Y-40200D02*
X61700Y-40200D01*
X60300Y-39200D02*
X60300Y-41200D01*
X61300Y-39200D02*
X61300Y-41200D01*
X60300Y-39200D02*
X61300Y-39200D01*
X61300Y-41200D02*
X60300Y-41200D01*
X61300Y-40200D02*
X60300Y-40200D01*
X68400Y-32500D02*
X68400Y-30500D01*
X67400Y-32500D02*
X67400Y-30500D01*
X68400Y-32500D02*
X67400Y-32500D01*
X67400Y-30500D02*
X68400Y-30500D01*
X67400Y-31500D02*
X68400Y-31500D01*
G54D15*
X63543Y-40569D02*
X63543Y-39231D01*
X66457Y-40569D02*
X66457Y-39231D01*
X64969Y-38457D02*
X63631Y-38457D01*
X64969Y-35543D02*
X63631Y-35543D01*
G54D17*
X60300Y-41700D02*
X60300Y-45700D01*
X61300Y-41700D02*
X61300Y-45700D01*
X60300Y-41700D02*
X61300Y-41700D01*
X61300Y-45700D02*
X60300Y-45700D01*
X61300Y-42700D02*
X60300Y-42700D01*
X69004Y-48972D02*
X69201Y-49248D01*
X69201Y-49248D02*
X68807Y-49248D01*
X68807Y-49248D02*
X69004Y-48972D01*
X69594Y-47476D02*
X61406Y-47476D01*
X69594Y-49445D02*
X61406Y-49445D01*
X69594Y-49760D02*
X69594Y-47201D01*
X69594Y-47201D02*
X61406Y-47201D01*
X61406Y-47201D02*
X61406Y-49760D01*
X61406Y-49760D02*
X69594Y-49760D01*
X62500Y-49512D02*
X62500Y-49762D01*
X63500Y-49512D02*
X63500Y-49762D01*
X64500Y-49512D02*
X64500Y-49762D01*
X65500Y-49512D02*
X65500Y-49762D01*
X66500Y-49512D02*
X66500Y-49762D01*
X67500Y-49512D02*
X67500Y-49762D01*
X68500Y-49512D02*
X68500Y-49762D01*
G54D12*
X65648Y-33793D02*
X65648Y-33939D01*
X65657Y-33956D01*
X65667Y-33964D01*
X65686Y-33973D01*
X65724Y-33973D01*
X65743Y-33964D01*
X65752Y-33956D01*
X65762Y-33939D01*
X65762Y-33793D01*
X65962Y-33973D02*
X65848Y-33973D01*
X65905Y-33973D02*
X65905Y-33793D01*
X65886Y-33819D01*
X65867Y-33836D01*
X65848Y-33844D01*
X62534Y-33993D02*
X62534Y-34121D01*
X62524Y-34147D01*
X62505Y-34164D01*
X62477Y-34173D01*
X62458Y-34173D01*
X62733Y-34173D02*
X62619Y-34173D01*
X62676Y-34173D02*
X62676Y-33993D01*
X62657Y-34019D01*
X62638Y-34036D01*
X62619Y-34044D01*
X67064Y-37966D02*
X67073Y-37937D01*
X67073Y-37890D01*
X67064Y-37871D01*
X67056Y-37861D01*
X67039Y-37852D01*
X67021Y-37852D01*
X67004Y-37861D01*
X66996Y-37871D01*
X66987Y-37890D01*
X66979Y-37928D01*
X66970Y-37947D01*
X66961Y-37956D01*
X66944Y-37966D01*
X66927Y-37966D01*
X66910Y-37956D01*
X66901Y-37947D01*
X66893Y-37928D01*
X66893Y-37880D01*
X66901Y-37852D01*
X66893Y-37785D02*
X67073Y-37738D01*
X66944Y-37700D01*
X67073Y-37662D01*
X66893Y-37614D01*
X67073Y-37433D02*
X67073Y-37547D01*
X67073Y-37490D02*
X66893Y-37490D01*
X66919Y-37509D01*
X66936Y-37528D01*
X66944Y-37547D01*
X63064Y-35366D02*
X63073Y-35337D01*
X63073Y-35290D01*
X63064Y-35271D01*
X63056Y-35261D01*
X63039Y-35252D01*
X63021Y-35252D01*
X63004Y-35261D01*
X62996Y-35271D01*
X62987Y-35290D01*
X62979Y-35328D01*
X62970Y-35347D01*
X62961Y-35356D01*
X62944Y-35366D01*
X62927Y-35366D01*
X62910Y-35356D01*
X62901Y-35347D01*
X62893Y-35328D01*
X62893Y-35280D01*
X62901Y-35252D01*
X62893Y-35185D02*
X63073Y-35138D01*
X62944Y-35100D01*
X63073Y-35062D01*
X62893Y-35014D01*
X62893Y-34956D02*
X62893Y-34833D01*
X62961Y-34899D01*
X62961Y-34871D01*
X62970Y-34852D01*
X62979Y-34842D01*
X62996Y-34833D01*
X63039Y-34833D01*
X63056Y-34842D01*
X63064Y-34852D01*
X63073Y-34871D01*
X63073Y-34928D01*
X63064Y-34947D01*
X63056Y-34956D01*
X67064Y-41966D02*
X67073Y-41937D01*
X67073Y-41890D01*
X67064Y-41871D01*
X67056Y-41861D01*
X67039Y-41852D01*
X67021Y-41852D01*
X67004Y-41861D01*
X66996Y-41871D01*
X66987Y-41890D01*
X66979Y-41928D01*
X66970Y-41947D01*
X66961Y-41956D01*
X66944Y-41966D01*
X66927Y-41966D01*
X66910Y-41956D01*
X66901Y-41947D01*
X66893Y-41928D01*
X66893Y-41880D01*
X66901Y-41852D01*
X66893Y-41785D02*
X67073Y-41738D01*
X66944Y-41700D01*
X67073Y-41662D01*
X66893Y-41614D01*
X66910Y-41547D02*
X66901Y-41537D01*
X66893Y-41518D01*
X66893Y-41471D01*
X66901Y-41452D01*
X66910Y-41442D01*
X66927Y-41433D01*
X66944Y-41433D01*
X66970Y-41442D01*
X67073Y-41556D01*
X67073Y-41433D01*
X62893Y-44252D02*
X63039Y-44252D01*
X63056Y-44243D01*
X63064Y-44233D01*
X63073Y-44214D01*
X63073Y-44176D01*
X63064Y-44157D01*
X63056Y-44148D01*
X63039Y-44138D01*
X62893Y-44138D01*
X62910Y-44052D02*
X62901Y-44042D01*
X62893Y-44023D01*
X62893Y-43976D01*
X62901Y-43957D01*
X62910Y-43947D01*
X62927Y-43938D01*
X62944Y-43938D01*
X62970Y-43947D01*
X63073Y-44061D01*
X63073Y-43938D01*
X68067Y-33873D02*
X68000Y-33787D01*
X67953Y-33873D02*
X67953Y-33693D01*
X68029Y-33693D01*
X68048Y-33701D01*
X68057Y-33710D01*
X68067Y-33727D01*
X68067Y-33753D01*
X68057Y-33770D01*
X68048Y-33779D01*
X68029Y-33787D01*
X67953Y-33787D01*
X68134Y-33693D02*
X68257Y-33693D01*
X68191Y-33761D01*
X68219Y-33761D01*
X68238Y-33770D01*
X68248Y-33779D01*
X68257Y-33796D01*
X68257Y-33839D01*
X68248Y-33856D01*
X68238Y-33864D01*
X68219Y-33873D01*
X68162Y-33873D01*
X68143Y-33864D01*
X68134Y-33856D01*
X67073Y-33133D02*
X66987Y-33200D01*
X67073Y-33247D02*
X66893Y-33247D01*
X66893Y-33171D01*
X66901Y-33152D01*
X66910Y-33143D01*
X66927Y-33133D01*
X66953Y-33133D01*
X66970Y-33143D01*
X66979Y-33152D01*
X66987Y-33171D01*
X66987Y-33247D01*
X66953Y-32962D02*
X67073Y-32962D01*
X66884Y-33009D02*
X67013Y-33057D01*
X67013Y-32933D01*
X65167Y-34173D02*
X65100Y-34087D01*
X65053Y-34173D02*
X65053Y-33993D01*
X65129Y-33993D01*
X65148Y-34001D01*
X65157Y-34010D01*
X65167Y-34027D01*
X65167Y-34053D01*
X65157Y-34070D01*
X65148Y-34079D01*
X65129Y-34087D01*
X65053Y-34087D01*
X65348Y-33993D02*
X65253Y-33993D01*
X65243Y-34079D01*
X65253Y-34070D01*
X65272Y-34061D01*
X65319Y-34061D01*
X65338Y-34070D01*
X65348Y-34079D01*
X65357Y-34096D01*
X65357Y-34139D01*
X65348Y-34156D01*
X65338Y-34164D01*
X65319Y-34173D01*
X65272Y-34173D01*
X65253Y-34164D01*
X65243Y-34156D01*
X65373Y-37633D02*
X65287Y-37700D01*
X65373Y-37747D02*
X65193Y-37747D01*
X65193Y-37671D01*
X65201Y-37652D01*
X65210Y-37643D01*
X65227Y-37633D01*
X65253Y-37633D01*
X65270Y-37643D01*
X65279Y-37652D01*
X65287Y-37671D01*
X65287Y-37747D01*
X65193Y-37462D02*
X65193Y-37500D01*
X65201Y-37519D01*
X65210Y-37528D01*
X65236Y-37547D01*
X65270Y-37557D01*
X65339Y-37557D01*
X65356Y-37547D01*
X65364Y-37538D01*
X65373Y-37519D01*
X65373Y-37481D01*
X65364Y-37462D01*
X65356Y-37452D01*
X65339Y-37443D01*
X65296Y-37443D01*
X65279Y-37452D01*
X65270Y-37462D01*
X65261Y-37481D01*
X65261Y-37519D01*
X65270Y-37538D01*
X65279Y-37547D01*
X65296Y-37557D01*
X65373Y-38433D02*
X65287Y-38500D01*
X65373Y-38547D02*
X65193Y-38547D01*
X65193Y-38471D01*
X65201Y-38452D01*
X65210Y-38443D01*
X65227Y-38433D01*
X65253Y-38433D01*
X65270Y-38443D01*
X65279Y-38452D01*
X65287Y-38471D01*
X65287Y-38547D01*
X65270Y-38319D02*
X65261Y-38338D01*
X65253Y-38347D01*
X65236Y-38357D01*
X65227Y-38357D01*
X65210Y-38347D01*
X65201Y-38338D01*
X65193Y-38319D01*
X65193Y-38281D01*
X65201Y-38262D01*
X65210Y-38252D01*
X65227Y-38243D01*
X65236Y-38243D01*
X65253Y-38252D01*
X65261Y-38262D01*
X65270Y-38281D01*
X65270Y-38319D01*
X65279Y-38338D01*
X65287Y-38347D01*
X65304Y-38357D01*
X65339Y-38357D01*
X65356Y-38347D01*
X65364Y-38338D01*
X65373Y-38319D01*
X65373Y-38281D01*
X65364Y-38262D01*
X65356Y-38252D01*
X65339Y-38243D01*
X65304Y-38243D01*
X65287Y-38252D01*
X65279Y-38262D01*
X65270Y-38281D01*
X64773Y-35033D02*
X64687Y-35100D01*
X64773Y-35147D02*
X64593Y-35147D01*
X64593Y-35071D01*
X64601Y-35052D01*
X64610Y-35043D01*
X64627Y-35033D01*
X64653Y-35033D01*
X64670Y-35043D01*
X64679Y-35052D01*
X64687Y-35071D01*
X64687Y-35147D01*
X64773Y-34938D02*
X64773Y-34900D01*
X64764Y-34881D01*
X64756Y-34871D01*
X64730Y-34852D01*
X64696Y-34843D01*
X64627Y-34843D01*
X64610Y-34852D01*
X64601Y-34862D01*
X64593Y-34881D01*
X64593Y-34919D01*
X64601Y-34938D01*
X64610Y-34947D01*
X64627Y-34957D01*
X64670Y-34957D01*
X64687Y-34947D01*
X64696Y-34938D01*
X64704Y-34919D01*
X64704Y-34881D01*
X64696Y-34862D01*
X64687Y-34852D01*
X64670Y-34843D01*
X64773Y-34428D02*
X64687Y-34495D01*
X64773Y-34542D02*
X64593Y-34542D01*
X64593Y-34466D01*
X64601Y-34447D01*
X64610Y-34438D01*
X64627Y-34428D01*
X64653Y-34428D01*
X64670Y-34438D01*
X64679Y-34447D01*
X64687Y-34466D01*
X64687Y-34542D01*
X64773Y-34238D02*
X64773Y-34352D01*
X64773Y-34295D02*
X64593Y-34295D01*
X64619Y-34314D01*
X64636Y-34333D01*
X64644Y-34352D01*
X64593Y-34114D02*
X64593Y-34095D01*
X64601Y-34076D01*
X64610Y-34067D01*
X64627Y-34057D01*
X64661Y-34048D01*
X64704Y-34048D01*
X64739Y-34057D01*
X64756Y-34067D01*
X64764Y-34076D01*
X64773Y-34095D01*
X64773Y-34114D01*
X64764Y-34133D01*
X64756Y-34143D01*
X64739Y-34152D01*
X64704Y-34162D01*
X64661Y-34162D01*
X64627Y-34152D01*
X64610Y-34143D01*
X64601Y-34133D01*
X64593Y-34114D01*
X63673Y-41828D02*
X63587Y-41895D01*
X63673Y-41942D02*
X63493Y-41942D01*
X63493Y-41866D01*
X63501Y-41847D01*
X63510Y-41838D01*
X63527Y-41828D01*
X63553Y-41828D01*
X63570Y-41838D01*
X63579Y-41847D01*
X63587Y-41866D01*
X63587Y-41942D01*
X63673Y-41638D02*
X63673Y-41752D01*
X63673Y-41695D02*
X63493Y-41695D01*
X63519Y-41714D01*
X63536Y-41733D01*
X63544Y-41752D01*
X63553Y-41467D02*
X63673Y-41467D01*
X63484Y-41514D02*
X63613Y-41562D01*
X63613Y-41438D01*
X65673Y-41828D02*
X65587Y-41895D01*
X65673Y-41942D02*
X65493Y-41942D01*
X65493Y-41866D01*
X65501Y-41847D01*
X65510Y-41838D01*
X65527Y-41828D01*
X65553Y-41828D01*
X65570Y-41838D01*
X65579Y-41847D01*
X65587Y-41866D01*
X65587Y-41942D01*
X65673Y-41638D02*
X65673Y-41752D01*
X65673Y-41695D02*
X65493Y-41695D01*
X65519Y-41714D01*
X65536Y-41733D01*
X65544Y-41752D01*
X65510Y-41562D02*
X65501Y-41552D01*
X65493Y-41533D01*
X65493Y-41486D01*
X65501Y-41467D01*
X65510Y-41457D01*
X65527Y-41448D01*
X65544Y-41448D01*
X65570Y-41457D01*
X65673Y-41571D01*
X65673Y-41448D01*
X68673Y-35147D02*
X68493Y-35147D01*
X68493Y-35100D01*
X68501Y-35071D01*
X68519Y-35052D01*
X68536Y-35043D01*
X68570Y-35033D01*
X68596Y-35033D01*
X68630Y-35043D01*
X68647Y-35052D01*
X68664Y-35071D01*
X68673Y-35100D01*
X68673Y-35147D01*
X68493Y-34966D02*
X68493Y-34843D01*
X68561Y-34909D01*
X68561Y-34881D01*
X68570Y-34862D01*
X68579Y-34852D01*
X68596Y-34843D01*
X68639Y-34843D01*
X68656Y-34852D01*
X68664Y-34862D01*
X68673Y-34881D01*
X68673Y-34938D01*
X68664Y-34957D01*
X68656Y-34966D01*
X65253Y-31973D02*
X65253Y-31793D01*
X65300Y-31793D01*
X65329Y-31801D01*
X65348Y-31819D01*
X65357Y-31836D01*
X65367Y-31870D01*
X65367Y-31896D01*
X65357Y-31930D01*
X65348Y-31947D01*
X65329Y-31964D01*
X65300Y-31973D01*
X65253Y-31973D01*
X65443Y-31810D02*
X65453Y-31801D01*
X65472Y-31793D01*
X65519Y-31793D01*
X65538Y-31801D01*
X65548Y-31810D01*
X65557Y-31827D01*
X65557Y-31844D01*
X65548Y-31870D01*
X65434Y-31973D01*
X65557Y-31973D01*
X66253Y-31973D02*
X66253Y-31793D01*
X66300Y-31793D01*
X66329Y-31801D01*
X66348Y-31819D01*
X66357Y-31836D01*
X66367Y-31870D01*
X66367Y-31896D01*
X66357Y-31930D01*
X66348Y-31947D01*
X66329Y-31964D01*
X66300Y-31973D01*
X66253Y-31973D01*
X66557Y-31973D02*
X66443Y-31973D01*
X66500Y-31973D02*
X66500Y-31793D01*
X66481Y-31819D01*
X66462Y-31836D01*
X66443Y-31844D01*
X61073Y-46647D02*
X60893Y-46647D01*
X60893Y-46571D01*
X60901Y-46552D01*
X60910Y-46543D01*
X60927Y-46533D01*
X60953Y-46533D01*
X60970Y-46543D01*
X60979Y-46552D01*
X60987Y-46571D01*
X60987Y-46647D01*
X60893Y-46362D02*
X60893Y-46400D01*
X60901Y-46419D01*
X60910Y-46428D01*
X60936Y-46447D01*
X60970Y-46457D01*
X61039Y-46457D01*
X61056Y-46447D01*
X61064Y-46438D01*
X61073Y-46419D01*
X61073Y-46381D01*
X61064Y-46362D01*
X61056Y-46352D01*
X61039Y-46343D01*
X60996Y-46343D01*
X60979Y-46352D01*
X60970Y-46362D01*
X60961Y-46381D01*
X60961Y-46419D01*
X60970Y-46438D01*
X60979Y-46447D01*
X60996Y-46457D01*
X61373Y-46947D02*
X61193Y-46947D01*
X61193Y-46900D01*
X61201Y-46871D01*
X61219Y-46852D01*
X61236Y-46843D01*
X61270Y-46833D01*
X61296Y-46833D01*
X61330Y-46843D01*
X61347Y-46852D01*
X61364Y-46871D01*
X61373Y-46900D01*
X61373Y-46947D01*
X61279Y-46747D02*
X61279Y-46681D01*
X61373Y-46652D02*
X61373Y-46747D01*
X61193Y-46747D01*
X61193Y-46652D01*
X61279Y-46500D02*
X61287Y-46471D01*
X61296Y-46462D01*
X61313Y-46452D01*
X61339Y-46452D01*
X61356Y-46462D01*
X61364Y-46471D01*
X61373Y-46490D01*
X61373Y-46566D01*
X61193Y-46566D01*
X61193Y-46500D01*
X61201Y-46481D01*
X61210Y-46471D01*
X61227Y-46462D01*
X61244Y-46462D01*
X61261Y-46471D01*
X61270Y-46481D01*
X61279Y-46500D01*
X61279Y-46566D01*
X61193Y-46366D02*
X61339Y-46366D01*
X61356Y-46357D01*
X61364Y-46347D01*
X61373Y-46328D01*
X61373Y-46290D01*
X61364Y-46271D01*
X61356Y-46262D01*
X61339Y-46252D01*
X61193Y-46252D01*
X61201Y-46052D02*
X61193Y-46071D01*
X61193Y-46099D01*
X61201Y-46128D01*
X61219Y-46147D01*
X61236Y-46156D01*
X61270Y-46166D01*
X61296Y-46166D01*
X61330Y-46156D01*
X61347Y-46147D01*
X61364Y-46128D01*
X61373Y-46099D01*
X61373Y-46080D01*
X61364Y-46052D01*
X61356Y-46042D01*
X61296Y-46042D01*
X61296Y-46080D01*
X68853Y-33773D02*
X68853Y-33593D01*
X68929Y-33593D01*
X68948Y-33601D01*
X68957Y-33610D01*
X68967Y-33627D01*
X68967Y-33653D01*
X68957Y-33670D01*
X68948Y-33679D01*
X68929Y-33687D01*
X68853Y-33687D01*
X69157Y-33773D02*
X69043Y-33773D01*
X69100Y-33773D02*
X69100Y-33593D01*
X69081Y-33619D01*
X69062Y-33636D01*
X69043Y-33644D01*
X62053Y-39073D02*
X62053Y-38893D01*
X62129Y-38893D01*
X62148Y-38901D01*
X62157Y-38910D01*
X62167Y-38927D01*
X62167Y-38953D01*
X62157Y-38970D01*
X62148Y-38979D01*
X62129Y-38987D01*
X62053Y-38987D01*
X62348Y-38893D02*
X62253Y-38893D01*
X62243Y-38979D01*
X62253Y-38970D01*
X62272Y-38961D01*
X62319Y-38961D01*
X62338Y-38970D01*
X62348Y-38979D01*
X62357Y-38996D01*
X62357Y-39039D01*
X62348Y-39056D01*
X62338Y-39064D01*
X62319Y-39073D01*
X62272Y-39073D01*
X62253Y-39064D01*
X62243Y-39056D01*
X62167Y-41573D02*
X62100Y-41487D01*
X62053Y-41573D02*
X62053Y-41393D01*
X62129Y-41393D01*
X62148Y-41401D01*
X62157Y-41410D01*
X62167Y-41427D01*
X62167Y-41453D01*
X62157Y-41470D01*
X62148Y-41479D01*
X62129Y-41487D01*
X62053Y-41487D01*
X62234Y-41393D02*
X62367Y-41573D01*
X62367Y-41393D02*
X62234Y-41573D01*
X60653Y-39073D02*
X60653Y-38893D01*
X60729Y-38893D01*
X60748Y-38901D01*
X60757Y-38910D01*
X60767Y-38927D01*
X60767Y-38953D01*
X60757Y-38970D01*
X60748Y-38979D01*
X60729Y-38987D01*
X60653Y-38987D01*
X60938Y-38953D02*
X60938Y-39073D01*
X60891Y-38884D02*
X60843Y-39013D01*
X60967Y-39013D01*
X60648Y-41393D02*
X60762Y-41393D01*
X60705Y-41573D02*
X60705Y-41393D01*
X60810Y-41393D02*
X60943Y-41573D01*
X60943Y-41393D02*
X60810Y-41573D01*
X67173Y-30847D02*
X66993Y-30847D01*
X66993Y-30771D01*
X67001Y-30752D01*
X67010Y-30743D01*
X67027Y-30733D01*
X67053Y-30733D01*
X67070Y-30743D01*
X67079Y-30752D01*
X67087Y-30771D01*
X67087Y-30847D01*
X67010Y-30657D02*
X67001Y-30647D01*
X66993Y-30628D01*
X66993Y-30581D01*
X67001Y-30562D01*
X67010Y-30552D01*
X67027Y-30543D01*
X67044Y-30543D01*
X67070Y-30552D01*
X67173Y-30666D01*
X67173Y-30543D01*
X63193Y-40061D02*
X63373Y-39928D01*
X63193Y-39928D02*
X63373Y-40061D01*
X63210Y-39862D02*
X63201Y-39852D01*
X63193Y-39833D01*
X63193Y-39786D01*
X63201Y-39767D01*
X63210Y-39757D01*
X63227Y-39748D01*
X63244Y-39748D01*
X63270Y-39757D01*
X63373Y-39871D01*
X63373Y-39748D01*
X63839Y-35293D02*
X63972Y-35473D01*
X63972Y-35293D02*
X63839Y-35473D01*
X64152Y-35473D02*
X64038Y-35473D01*
X64095Y-35473D02*
X64095Y-35293D01*
X64076Y-35319D01*
X64057Y-35336D01*
X64038Y-35344D01*
X60653Y-46073D02*
X60653Y-45893D01*
X60729Y-45893D01*
X60748Y-45901D01*
X60757Y-45910D01*
X60767Y-45927D01*
X60767Y-45953D01*
X60757Y-45970D01*
X60748Y-45979D01*
X60729Y-45987D01*
X60653Y-45987D01*
X60834Y-45893D02*
X60957Y-45893D01*
X60891Y-45961D01*
X60919Y-45961D01*
X60938Y-45970D01*
X60948Y-45979D01*
X60957Y-45996D01*
X60957Y-46039D01*
X60948Y-46056D01*
X60938Y-46064D01*
X60919Y-46073D01*
X60862Y-46073D01*
X60843Y-46064D01*
X60834Y-46056D01*
X61573Y-44584D02*
X61393Y-44584D01*
X61479Y-44584D02*
X61479Y-44470D01*
X61573Y-44470D02*
X61393Y-44470D01*
X61479Y-44374D02*
X61479Y-44308D01*
X61573Y-44279D02*
X61573Y-44374D01*
X61393Y-44374D01*
X61393Y-44279D01*
X61521Y-44203D02*
X61521Y-44108D01*
X61573Y-44222D02*
X61393Y-44155D01*
X61573Y-44089D01*
X61573Y-44022D02*
X61393Y-44022D01*
X61393Y-43975D01*
X61401Y-43946D01*
X61419Y-43927D01*
X61436Y-43918D01*
X61470Y-43908D01*
X61496Y-43908D01*
X61530Y-43918D01*
X61547Y-43927D01*
X61564Y-43946D01*
X61573Y-43975D01*
X61573Y-44022D01*
X61479Y-43822D02*
X61479Y-43756D01*
X61573Y-43727D02*
X61573Y-43822D01*
X61393Y-43822D01*
X61393Y-43727D01*
X61573Y-43527D02*
X61487Y-43594D01*
X61573Y-43641D02*
X61393Y-43641D01*
X61393Y-43565D01*
X61401Y-43546D01*
X61410Y-43537D01*
X61427Y-43527D01*
X61453Y-43527D01*
X61470Y-43537D01*
X61479Y-43546D01*
X61487Y-43565D01*
X61487Y-43641D01*
X61590Y-43489D02*
X61590Y-43337D01*
X61573Y-43185D02*
X61573Y-43299D01*
X61573Y-43242D02*
X61393Y-43242D01*
X61419Y-43261D01*
X61436Y-43280D01*
X61444Y-43299D01*
X61393Y-43118D02*
X61573Y-42985D01*
X61393Y-42985D02*
X61573Y-43118D01*
X61453Y-42824D02*
X61573Y-42824D01*
X61384Y-42871D02*
X61513Y-42919D01*
X61513Y-42795D01*
X60793Y-48752D02*
X60793Y-48638D01*
X60973Y-48695D02*
X60793Y-48695D01*
X60879Y-48505D02*
X60887Y-48476D01*
X60896Y-48467D01*
X60913Y-48457D01*
X60939Y-48457D01*
X60956Y-48467D01*
X60964Y-48476D01*
X60973Y-48495D01*
X60973Y-48571D01*
X60793Y-48571D01*
X60793Y-48505D01*
X60801Y-48486D01*
X60810Y-48476D01*
X60827Y-48467D01*
X60844Y-48467D01*
X60861Y-48476D01*
X60870Y-48486D01*
X60879Y-48505D01*
X60879Y-48571D01*
X60973Y-48267D02*
X60973Y-48381D01*
X60973Y-48324D02*
X60793Y-48324D01*
X60819Y-48343D01*
X60836Y-48362D01*
X60844Y-48381D01*
X61221Y-49024D02*
X61221Y-48929D01*
X61273Y-49043D02*
X61093Y-48976D01*
X61273Y-48910D01*
X61273Y-48843D02*
X61093Y-48843D01*
X61273Y-48729D01*
X61093Y-48729D01*
X61221Y-48643D02*
X61221Y-48548D01*
X61273Y-48662D02*
X61093Y-48595D01*
X61273Y-48529D01*
X61273Y-48367D02*
X61273Y-48462D01*
X61093Y-48462D01*
X61093Y-48262D02*
X61093Y-48224D01*
X61101Y-48205D01*
X61119Y-48186D01*
X61153Y-48177D01*
X61213Y-48177D01*
X61247Y-48186D01*
X61264Y-48205D01*
X61273Y-48224D01*
X61273Y-48262D01*
X61264Y-48281D01*
X61247Y-48300D01*
X61213Y-48310D01*
X61153Y-48310D01*
X61119Y-48300D01*
X61101Y-48281D01*
X61093Y-48262D01*
X61101Y-47986D02*
X61093Y-48005D01*
X61093Y-48033D01*
X61101Y-48062D01*
X61119Y-48081D01*
X61136Y-48090D01*
X61170Y-48100D01*
X61196Y-48100D01*
X61230Y-48090D01*
X61247Y-48081D01*
X61264Y-48062D01*
X61273Y-48033D01*
X61273Y-48014D01*
X61264Y-47986D01*
X61256Y-47976D01*
X61196Y-47976D01*
X61196Y-48014D01*
M02*
