G04 (created by PCBNEW-RS274X (2012-01-19 BZR 3256)-stable) date 12/4/2012 11:19:28 PM*
G01*
G70*
G90*
%MOIN*%
G04 Gerber Fmt 3.4, Leading zero omitted, Abs format*
%FSLAX34Y34*%
G04 APERTURE LIST*
%ADD10C,0.006000*%
%ADD11C,0.012000*%
%ADD12C,0.005000*%
%ADD13C,0.010000*%
%ADD14C,0.004000*%
G04 APERTURE END LIST*
G54D10*
G54D11*
X71114Y-39786D02*
X71200Y-39824D01*
X71343Y-39824D01*
X71400Y-39786D01*
X71429Y-39748D01*
X71457Y-39671D01*
X71457Y-39595D01*
X71429Y-39519D01*
X71400Y-39481D01*
X71343Y-39443D01*
X71229Y-39405D01*
X71171Y-39367D01*
X71143Y-39329D01*
X71114Y-39252D01*
X71114Y-39176D01*
X71143Y-39100D01*
X71171Y-39062D01*
X71229Y-39024D01*
X71371Y-39024D01*
X71457Y-39062D01*
X71714Y-39824D02*
X71714Y-39024D01*
X72286Y-39824D02*
X72000Y-39824D01*
X72000Y-39024D01*
X72486Y-39824D02*
X72486Y-39024D01*
X72829Y-39824D02*
X72572Y-39367D01*
X72829Y-39024D02*
X72486Y-39481D01*
X73743Y-39405D02*
X73829Y-39443D01*
X73857Y-39481D01*
X73886Y-39557D01*
X73886Y-39671D01*
X73857Y-39748D01*
X73829Y-39786D01*
X73771Y-39824D01*
X73543Y-39824D01*
X73543Y-39024D01*
X73743Y-39024D01*
X73800Y-39062D01*
X73829Y-39100D01*
X73857Y-39176D01*
X73857Y-39252D01*
X73829Y-39329D01*
X73800Y-39367D01*
X73743Y-39405D01*
X73543Y-39405D01*
X74257Y-39024D02*
X74371Y-39024D01*
X74429Y-39062D01*
X74486Y-39138D01*
X74514Y-39290D01*
X74514Y-39557D01*
X74486Y-39710D01*
X74429Y-39786D01*
X74371Y-39824D01*
X74257Y-39824D01*
X74200Y-39786D01*
X74143Y-39710D01*
X74114Y-39557D01*
X74114Y-39290D01*
X74143Y-39138D01*
X74200Y-39062D01*
X74257Y-39024D01*
X74686Y-39024D02*
X75029Y-39024D01*
X74858Y-39824D02*
X74858Y-39024D01*
X75143Y-39024D02*
X75486Y-39024D01*
X75315Y-39824D02*
X75315Y-39024D01*
X75800Y-39024D02*
X75914Y-39024D01*
X75972Y-39062D01*
X76029Y-39138D01*
X76057Y-39290D01*
X76057Y-39557D01*
X76029Y-39710D01*
X75972Y-39786D01*
X75914Y-39824D01*
X75800Y-39824D01*
X75743Y-39786D01*
X75686Y-39710D01*
X75657Y-39557D01*
X75657Y-39290D01*
X75686Y-39138D01*
X75743Y-39062D01*
X75800Y-39024D01*
X76315Y-39824D02*
X76315Y-39024D01*
X76515Y-39595D01*
X76715Y-39024D01*
X76715Y-39824D01*
G54D12*
X65450Y-39650D02*
X64550Y-39650D01*
X64550Y-39650D02*
X64550Y-40150D01*
X64550Y-40150D02*
X65450Y-40150D01*
X65450Y-40150D02*
X65450Y-39650D01*
X66850Y-38750D02*
X67750Y-38750D01*
X67750Y-38750D02*
X67750Y-38250D01*
X67750Y-38250D02*
X66850Y-38250D01*
X66850Y-38250D02*
X66850Y-38750D01*
X66650Y-31650D02*
X66650Y-30750D01*
X66650Y-30750D02*
X66150Y-30750D01*
X66150Y-30750D02*
X66150Y-31650D01*
X66150Y-31650D02*
X66650Y-31650D01*
X65650Y-31650D02*
X65650Y-30750D01*
X65650Y-30750D02*
X65150Y-30750D01*
X65150Y-30750D02*
X65150Y-31650D01*
X65150Y-31650D02*
X65650Y-31650D01*
X64050Y-36550D02*
X64050Y-37450D01*
X64050Y-37450D02*
X64550Y-37450D01*
X64550Y-37450D02*
X64550Y-36550D01*
X64550Y-36550D02*
X64050Y-36550D01*
X64450Y-45350D02*
X65350Y-45350D01*
X65350Y-45350D02*
X65350Y-44850D01*
X65350Y-44850D02*
X64450Y-44850D01*
X64450Y-44850D02*
X64450Y-45350D01*
X66850Y-42750D02*
X67750Y-42750D01*
X67750Y-42750D02*
X67750Y-42250D01*
X67750Y-42250D02*
X66850Y-42250D01*
X66850Y-42250D02*
X66850Y-42750D01*
X69250Y-34450D02*
X69250Y-33550D01*
X69250Y-33550D02*
X68750Y-33550D01*
X68750Y-33550D02*
X68750Y-34450D01*
X68750Y-34450D02*
X69250Y-34450D01*
G54D13*
X65400Y-42500D02*
X65399Y-42509D01*
X65396Y-42519D01*
X65391Y-42527D01*
X65385Y-42535D01*
X65377Y-42541D01*
X65369Y-42546D01*
X65360Y-42548D01*
X65350Y-42549D01*
X65341Y-42549D01*
X65332Y-42546D01*
X65323Y-42541D01*
X65316Y-42535D01*
X65309Y-42528D01*
X65305Y-42519D01*
X65302Y-42510D01*
X65301Y-42500D01*
X65301Y-42491D01*
X65304Y-42482D01*
X65308Y-42473D01*
X65315Y-42466D01*
X65322Y-42459D01*
X65330Y-42455D01*
X65340Y-42452D01*
X65349Y-42451D01*
X65358Y-42451D01*
X65368Y-42454D01*
X65376Y-42458D01*
X65384Y-42464D01*
X65390Y-42472D01*
X65395Y-42480D01*
X65398Y-42489D01*
X65399Y-42499D01*
X65400Y-42500D01*
X65800Y-43550D02*
X65300Y-43550D01*
X65300Y-43550D02*
X65300Y-42650D01*
X65300Y-42650D02*
X65800Y-42650D01*
X66200Y-43550D02*
X66700Y-43550D01*
X66700Y-43550D02*
X66700Y-42650D01*
X66700Y-42650D02*
X66200Y-42650D01*
X67200Y-36100D02*
X67199Y-36109D01*
X67196Y-36119D01*
X67191Y-36127D01*
X67185Y-36135D01*
X67177Y-36141D01*
X67169Y-36146D01*
X67160Y-36148D01*
X67150Y-36149D01*
X67141Y-36149D01*
X67132Y-36146D01*
X67123Y-36141D01*
X67116Y-36135D01*
X67109Y-36128D01*
X67105Y-36119D01*
X67102Y-36110D01*
X67101Y-36100D01*
X67101Y-36091D01*
X67104Y-36082D01*
X67108Y-36073D01*
X67115Y-36066D01*
X67122Y-36059D01*
X67130Y-36055D01*
X67140Y-36052D01*
X67149Y-36051D01*
X67158Y-36051D01*
X67168Y-36054D01*
X67176Y-36058D01*
X67184Y-36064D01*
X67190Y-36072D01*
X67195Y-36080D01*
X67198Y-36089D01*
X67199Y-36099D01*
X67200Y-36100D01*
X66700Y-35050D02*
X67200Y-35050D01*
X67200Y-35050D02*
X67200Y-35950D01*
X67200Y-35950D02*
X66700Y-35950D01*
X66300Y-35050D02*
X65800Y-35050D01*
X65800Y-35050D02*
X65800Y-35950D01*
X65800Y-35950D02*
X66300Y-35950D01*
X67200Y-37200D02*
X67199Y-37209D01*
X67196Y-37219D01*
X67191Y-37227D01*
X67185Y-37235D01*
X67177Y-37241D01*
X67169Y-37246D01*
X67160Y-37248D01*
X67150Y-37249D01*
X67141Y-37249D01*
X67132Y-37246D01*
X67123Y-37241D01*
X67116Y-37235D01*
X67109Y-37228D01*
X67105Y-37219D01*
X67102Y-37210D01*
X67101Y-37200D01*
X67101Y-37191D01*
X67104Y-37182D01*
X67108Y-37173D01*
X67115Y-37166D01*
X67122Y-37159D01*
X67130Y-37155D01*
X67140Y-37152D01*
X67149Y-37151D01*
X67158Y-37151D01*
X67168Y-37154D01*
X67176Y-37158D01*
X67184Y-37164D01*
X67190Y-37172D01*
X67195Y-37180D01*
X67198Y-37189D01*
X67199Y-37199D01*
X67200Y-37200D01*
X66700Y-36150D02*
X67200Y-36150D01*
X67200Y-36150D02*
X67200Y-37050D01*
X67200Y-37050D02*
X66700Y-37050D01*
X66300Y-36150D02*
X65800Y-36150D01*
X65800Y-36150D02*
X65800Y-37050D01*
X65800Y-37050D02*
X66300Y-37050D01*
G54D14*
X69000Y-38700D02*
X68700Y-38700D01*
X69000Y-39300D02*
X68700Y-39300D01*
X68000Y-38700D02*
X68300Y-38700D01*
X68000Y-39300D02*
X68300Y-39300D01*
X68000Y-39300D02*
X68000Y-38700D01*
X69000Y-38700D02*
X69000Y-39300D01*
X69000Y-42700D02*
X68700Y-42700D01*
X69000Y-43300D02*
X68700Y-43300D01*
X68000Y-42700D02*
X68300Y-42700D01*
X68000Y-43300D02*
X68300Y-43300D01*
X68000Y-43300D02*
X68000Y-42700D01*
X69000Y-42700D02*
X69000Y-43300D01*
X65750Y-34800D02*
X66050Y-34800D01*
X65750Y-34200D02*
X66050Y-34200D01*
X66750Y-34800D02*
X66450Y-34800D01*
X66750Y-34200D02*
X66450Y-34200D01*
X66750Y-34200D02*
X66750Y-34800D01*
X65750Y-34800D02*
X65750Y-34200D01*
X67600Y-35800D02*
X67600Y-36100D01*
X68200Y-35800D02*
X68200Y-36100D01*
X67600Y-36800D02*
X67600Y-36500D01*
X68200Y-36800D02*
X68200Y-36500D01*
X68200Y-36800D02*
X67600Y-36800D01*
X67600Y-35800D02*
X68200Y-35800D01*
X69500Y-34950D02*
X69200Y-34950D01*
X69500Y-35550D02*
X69200Y-35550D01*
X68500Y-34950D02*
X68800Y-34950D01*
X68500Y-35550D02*
X68800Y-35550D01*
X68500Y-35550D02*
X68500Y-34950D01*
X69500Y-34950D02*
X69500Y-35550D01*
X67700Y-34000D02*
X67700Y-34300D01*
X68300Y-34000D02*
X68300Y-34300D01*
X67700Y-35000D02*
X67700Y-34700D01*
X68300Y-35000D02*
X68300Y-34700D01*
X68300Y-35000D02*
X67700Y-35000D01*
X67700Y-34000D02*
X68300Y-34000D01*
X69500Y-35700D02*
X69200Y-35700D01*
X69500Y-36300D02*
X69200Y-36300D01*
X68500Y-35700D02*
X68800Y-35700D01*
X68500Y-36300D02*
X68800Y-36300D01*
X68500Y-36300D02*
X68500Y-35700D01*
X69500Y-35700D02*
X69500Y-36300D01*
X65128Y-39473D02*
X65195Y-39387D01*
X65242Y-39473D02*
X65242Y-39293D01*
X65166Y-39293D01*
X65147Y-39301D01*
X65138Y-39310D01*
X65128Y-39327D01*
X65128Y-39353D01*
X65138Y-39370D01*
X65147Y-39379D01*
X65166Y-39387D01*
X65242Y-39387D01*
X64938Y-39473D02*
X65052Y-39473D01*
X64995Y-39473D02*
X64995Y-39293D01*
X65014Y-39319D01*
X65033Y-39336D01*
X65052Y-39344D01*
X64871Y-39293D02*
X64748Y-39293D01*
X64814Y-39361D01*
X64786Y-39361D01*
X64767Y-39370D01*
X64757Y-39379D01*
X64748Y-39396D01*
X64748Y-39439D01*
X64757Y-39456D01*
X64767Y-39464D01*
X64786Y-39473D01*
X64843Y-39473D01*
X64862Y-39464D01*
X64871Y-39456D01*
X67428Y-39073D02*
X67495Y-38987D01*
X67542Y-39073D02*
X67542Y-38893D01*
X67466Y-38893D01*
X67447Y-38901D01*
X67438Y-38910D01*
X67428Y-38927D01*
X67428Y-38953D01*
X67438Y-38970D01*
X67447Y-38979D01*
X67466Y-38987D01*
X67542Y-38987D01*
X67238Y-39073D02*
X67352Y-39073D01*
X67295Y-39073D02*
X67295Y-38893D01*
X67314Y-38919D01*
X67333Y-38936D01*
X67352Y-38944D01*
X67067Y-38893D02*
X67105Y-38893D01*
X67124Y-38901D01*
X67133Y-38910D01*
X67152Y-38936D01*
X67162Y-38970D01*
X67162Y-39039D01*
X67152Y-39056D01*
X67143Y-39064D01*
X67124Y-39073D01*
X67086Y-39073D01*
X67067Y-39064D01*
X67057Y-39056D01*
X67048Y-39039D01*
X67048Y-38996D01*
X67057Y-38979D01*
X67067Y-38970D01*
X67086Y-38961D01*
X67124Y-38961D01*
X67143Y-38970D01*
X67152Y-38979D01*
X67162Y-38996D01*
X66433Y-30573D02*
X66500Y-30487D01*
X66547Y-30573D02*
X66547Y-30393D01*
X66471Y-30393D01*
X66452Y-30401D01*
X66443Y-30410D01*
X66433Y-30427D01*
X66433Y-30453D01*
X66443Y-30470D01*
X66452Y-30479D01*
X66471Y-30487D01*
X66547Y-30487D01*
X66243Y-30573D02*
X66357Y-30573D01*
X66300Y-30573D02*
X66300Y-30393D01*
X66319Y-30419D01*
X66338Y-30436D01*
X66357Y-30444D01*
X65433Y-30573D02*
X65500Y-30487D01*
X65547Y-30573D02*
X65547Y-30393D01*
X65471Y-30393D01*
X65452Y-30401D01*
X65443Y-30410D01*
X65433Y-30427D01*
X65433Y-30453D01*
X65443Y-30470D01*
X65452Y-30479D01*
X65471Y-30487D01*
X65547Y-30487D01*
X65357Y-30410D02*
X65347Y-30401D01*
X65328Y-30393D01*
X65281Y-30393D01*
X65262Y-30401D01*
X65252Y-30410D01*
X65243Y-30427D01*
X65243Y-30444D01*
X65252Y-30470D01*
X65366Y-30573D01*
X65243Y-30573D01*
X64333Y-37773D02*
X64400Y-37687D01*
X64447Y-37773D02*
X64447Y-37593D01*
X64371Y-37593D01*
X64352Y-37601D01*
X64343Y-37610D01*
X64333Y-37627D01*
X64333Y-37653D01*
X64343Y-37670D01*
X64352Y-37679D01*
X64371Y-37687D01*
X64447Y-37687D01*
X64266Y-37593D02*
X64133Y-37593D01*
X64219Y-37773D01*
X65028Y-44673D02*
X65095Y-44587D01*
X65142Y-44673D02*
X65142Y-44493D01*
X65066Y-44493D01*
X65047Y-44501D01*
X65038Y-44510D01*
X65028Y-44527D01*
X65028Y-44553D01*
X65038Y-44570D01*
X65047Y-44579D01*
X65066Y-44587D01*
X65142Y-44587D01*
X64838Y-44673D02*
X64952Y-44673D01*
X64895Y-44673D02*
X64895Y-44493D01*
X64914Y-44519D01*
X64933Y-44536D01*
X64952Y-44544D01*
X64648Y-44673D02*
X64762Y-44673D01*
X64705Y-44673D02*
X64705Y-44493D01*
X64724Y-44519D01*
X64743Y-44536D01*
X64762Y-44544D01*
X67428Y-42073D02*
X67495Y-41987D01*
X67542Y-42073D02*
X67542Y-41893D01*
X67466Y-41893D01*
X67447Y-41901D01*
X67438Y-41910D01*
X67428Y-41927D01*
X67428Y-41953D01*
X67438Y-41970D01*
X67447Y-41979D01*
X67466Y-41987D01*
X67542Y-41987D01*
X67238Y-42073D02*
X67352Y-42073D01*
X67295Y-42073D02*
X67295Y-41893D01*
X67314Y-41919D01*
X67333Y-41936D01*
X67352Y-41944D01*
X67057Y-41893D02*
X67152Y-41893D01*
X67162Y-41979D01*
X67152Y-41970D01*
X67133Y-41961D01*
X67086Y-41961D01*
X67067Y-41970D01*
X67057Y-41979D01*
X67048Y-41996D01*
X67048Y-42039D01*
X67057Y-42056D01*
X67067Y-42064D01*
X67086Y-42073D01*
X67133Y-42073D01*
X67152Y-42064D01*
X67162Y-42056D01*
X69573Y-33872D02*
X69487Y-33805D01*
X69573Y-33758D02*
X69393Y-33758D01*
X69393Y-33834D01*
X69401Y-33853D01*
X69410Y-33862D01*
X69427Y-33872D01*
X69453Y-33872D01*
X69470Y-33862D01*
X69479Y-33853D01*
X69487Y-33834D01*
X69487Y-33758D01*
X69573Y-34062D02*
X69573Y-33948D01*
X69573Y-34005D02*
X69393Y-34005D01*
X69419Y-33986D01*
X69436Y-33967D01*
X69444Y-33948D01*
X69393Y-34129D02*
X69393Y-34262D01*
X69573Y-34176D01*
X66033Y-42456D02*
X66043Y-42464D01*
X66071Y-42473D01*
X66090Y-42473D01*
X66119Y-42464D01*
X66138Y-42447D01*
X66147Y-42430D01*
X66157Y-42396D01*
X66157Y-42370D01*
X66147Y-42336D01*
X66138Y-42319D01*
X66119Y-42301D01*
X66090Y-42293D01*
X66071Y-42293D01*
X66043Y-42301D01*
X66033Y-42310D01*
X65919Y-42370D02*
X65938Y-42361D01*
X65947Y-42353D01*
X65957Y-42336D01*
X65957Y-42327D01*
X65947Y-42310D01*
X65938Y-42301D01*
X65919Y-42293D01*
X65881Y-42293D01*
X65862Y-42301D01*
X65852Y-42310D01*
X65843Y-42327D01*
X65843Y-42336D01*
X65852Y-42353D01*
X65862Y-42361D01*
X65881Y-42370D01*
X65919Y-42370D01*
X65938Y-42379D01*
X65947Y-42387D01*
X65957Y-42404D01*
X65957Y-42439D01*
X65947Y-42456D01*
X65938Y-42464D01*
X65919Y-42473D01*
X65881Y-42473D01*
X65862Y-42464D01*
X65852Y-42456D01*
X65843Y-42439D01*
X65843Y-42404D01*
X65852Y-42387D01*
X65862Y-42379D01*
X65881Y-42370D01*
X65656Y-35467D02*
X65664Y-35457D01*
X65673Y-35429D01*
X65673Y-35410D01*
X65664Y-35381D01*
X65647Y-35362D01*
X65630Y-35353D01*
X65596Y-35343D01*
X65570Y-35343D01*
X65536Y-35353D01*
X65519Y-35362D01*
X65501Y-35381D01*
X65493Y-35410D01*
X65493Y-35429D01*
X65501Y-35457D01*
X65510Y-35467D01*
X65493Y-35534D02*
X65493Y-35667D01*
X65673Y-35581D01*
X65656Y-36567D02*
X65664Y-36557D01*
X65673Y-36529D01*
X65673Y-36510D01*
X65664Y-36481D01*
X65647Y-36462D01*
X65630Y-36453D01*
X65596Y-36443D01*
X65570Y-36443D01*
X65536Y-36453D01*
X65519Y-36462D01*
X65501Y-36481D01*
X65493Y-36510D01*
X65493Y-36529D01*
X65501Y-36557D01*
X65510Y-36567D01*
X65553Y-36738D02*
X65673Y-36738D01*
X65484Y-36691D02*
X65613Y-36643D01*
X65613Y-36767D01*
X68628Y-39556D02*
X68638Y-39564D01*
X68666Y-39573D01*
X68685Y-39573D01*
X68714Y-39564D01*
X68733Y-39547D01*
X68742Y-39530D01*
X68752Y-39496D01*
X68752Y-39470D01*
X68742Y-39436D01*
X68733Y-39419D01*
X68714Y-39401D01*
X68685Y-39393D01*
X68666Y-39393D01*
X68638Y-39401D01*
X68628Y-39410D01*
X68438Y-39573D02*
X68552Y-39573D01*
X68495Y-39573D02*
X68495Y-39393D01*
X68514Y-39419D01*
X68533Y-39436D01*
X68552Y-39444D01*
X68314Y-39393D02*
X68295Y-39393D01*
X68276Y-39401D01*
X68267Y-39410D01*
X68257Y-39427D01*
X68248Y-39461D01*
X68248Y-39504D01*
X68257Y-39539D01*
X68267Y-39556D01*
X68276Y-39564D01*
X68295Y-39573D01*
X68314Y-39573D01*
X68333Y-39564D01*
X68343Y-39556D01*
X68352Y-39539D01*
X68362Y-39504D01*
X68362Y-39461D01*
X68352Y-39427D01*
X68343Y-39410D01*
X68333Y-39401D01*
X68314Y-39393D01*
X68533Y-42556D02*
X68543Y-42564D01*
X68571Y-42573D01*
X68590Y-42573D01*
X68619Y-42564D01*
X68638Y-42547D01*
X68647Y-42530D01*
X68657Y-42496D01*
X68657Y-42470D01*
X68647Y-42436D01*
X68638Y-42419D01*
X68619Y-42401D01*
X68590Y-42393D01*
X68571Y-42393D01*
X68543Y-42401D01*
X68533Y-42410D01*
X68438Y-42573D02*
X68400Y-42573D01*
X68381Y-42564D01*
X68371Y-42556D01*
X68352Y-42530D01*
X68343Y-42496D01*
X68343Y-42427D01*
X68352Y-42410D01*
X68362Y-42401D01*
X68381Y-42393D01*
X68419Y-42393D01*
X68438Y-42401D01*
X68447Y-42410D01*
X68457Y-42427D01*
X68457Y-42470D01*
X68447Y-42487D01*
X68438Y-42496D01*
X68419Y-42504D01*
X68381Y-42504D01*
X68362Y-42496D01*
X68352Y-42487D01*
X68343Y-42470D01*
X66283Y-34056D02*
X66293Y-34064D01*
X66321Y-34073D01*
X66340Y-34073D01*
X66369Y-34064D01*
X66388Y-34047D01*
X66397Y-34030D01*
X66407Y-33996D01*
X66407Y-33970D01*
X66397Y-33936D01*
X66388Y-33919D01*
X66369Y-33901D01*
X66340Y-33893D01*
X66321Y-33893D01*
X66293Y-33901D01*
X66283Y-33910D01*
X66112Y-33893D02*
X66150Y-33893D01*
X66169Y-33901D01*
X66178Y-33910D01*
X66197Y-33936D01*
X66207Y-33970D01*
X66207Y-34039D01*
X66197Y-34056D01*
X66188Y-34064D01*
X66169Y-34073D01*
X66131Y-34073D01*
X66112Y-34064D01*
X66102Y-34056D01*
X66093Y-34039D01*
X66093Y-33996D01*
X66102Y-33979D01*
X66112Y-33970D01*
X66131Y-33961D01*
X66169Y-33961D01*
X66188Y-33970D01*
X66197Y-33979D01*
X66207Y-33996D01*
X67933Y-35656D02*
X67943Y-35664D01*
X67971Y-35673D01*
X67990Y-35673D01*
X68019Y-35664D01*
X68038Y-35647D01*
X68047Y-35630D01*
X68057Y-35596D01*
X68057Y-35570D01*
X68047Y-35536D01*
X68038Y-35519D01*
X68019Y-35501D01*
X67990Y-35493D01*
X67971Y-35493D01*
X67943Y-35501D01*
X67933Y-35510D01*
X67752Y-35493D02*
X67847Y-35493D01*
X67857Y-35579D01*
X67847Y-35570D01*
X67828Y-35561D01*
X67781Y-35561D01*
X67762Y-35570D01*
X67752Y-35579D01*
X67743Y-35596D01*
X67743Y-35639D01*
X67752Y-35656D01*
X67762Y-35664D01*
X67781Y-35673D01*
X67828Y-35673D01*
X67847Y-35664D01*
X67857Y-35656D01*
X69033Y-34856D02*
X69043Y-34864D01*
X69071Y-34873D01*
X69090Y-34873D01*
X69119Y-34864D01*
X69138Y-34847D01*
X69147Y-34830D01*
X69157Y-34796D01*
X69157Y-34770D01*
X69147Y-34736D01*
X69138Y-34719D01*
X69119Y-34701D01*
X69090Y-34693D01*
X69071Y-34693D01*
X69043Y-34701D01*
X69033Y-34710D01*
X68966Y-34693D02*
X68843Y-34693D01*
X68909Y-34761D01*
X68881Y-34761D01*
X68862Y-34770D01*
X68852Y-34779D01*
X68843Y-34796D01*
X68843Y-34839D01*
X68852Y-34856D01*
X68862Y-34864D01*
X68881Y-34873D01*
X68938Y-34873D01*
X68957Y-34864D01*
X68966Y-34856D01*
X68033Y-33856D02*
X68043Y-33864D01*
X68071Y-33873D01*
X68090Y-33873D01*
X68119Y-33864D01*
X68138Y-33847D01*
X68147Y-33830D01*
X68157Y-33796D01*
X68157Y-33770D01*
X68147Y-33736D01*
X68138Y-33719D01*
X68119Y-33701D01*
X68090Y-33693D01*
X68071Y-33693D01*
X68043Y-33701D01*
X68033Y-33710D01*
X67957Y-33710D02*
X67947Y-33701D01*
X67928Y-33693D01*
X67881Y-33693D01*
X67862Y-33701D01*
X67852Y-33710D01*
X67843Y-33727D01*
X67843Y-33744D01*
X67852Y-33770D01*
X67966Y-33873D01*
X67843Y-33873D01*
X69033Y-36556D02*
X69043Y-36564D01*
X69071Y-36573D01*
X69090Y-36573D01*
X69119Y-36564D01*
X69138Y-36547D01*
X69147Y-36530D01*
X69157Y-36496D01*
X69157Y-36470D01*
X69147Y-36436D01*
X69138Y-36419D01*
X69119Y-36401D01*
X69090Y-36393D01*
X69071Y-36393D01*
X69043Y-36401D01*
X69033Y-36410D01*
X68843Y-36573D02*
X68957Y-36573D01*
X68900Y-36573D02*
X68900Y-36393D01*
X68919Y-36419D01*
X68938Y-36436D01*
X68957Y-36444D01*
M02*
